<svg width="37" height="37" viewBox="0 0 37 37" fill="none" xmlns="http://www.w3.org/2000/svg">
<rect x="0.0957031" y="0.5" width="36" height="36" rx="18" fill="#273373"/>
<path fill-rule="evenodd" clip-rule="evenodd" d="M19.526 26.1364V19.1703H21.9089L22.2665 16.4547H19.526V14.7211C19.526 13.9351 19.7476 13.3995 20.898 13.3995L22.3629 13.3989V10.97C22.1096 10.9377 21.24 10.8636 20.2279 10.8636C18.1144 10.8636 16.6675 12.129 16.6675 14.4522V16.4547H14.2773V19.1703H16.6675V26.1364H19.526Z" fill="white"/>
<mask id="mask0_35_1029" style="mask-type:luminance" maskUnits="userSpaceOnUse" x="14" y="10" width="9" height="17">
<path fill-rule="evenodd" clip-rule="evenodd" d="M19.526 26.1364V19.1703H21.9089L22.2665 16.4547H19.526V14.7211C19.526 13.9351 19.7476 13.3995 20.898 13.3995L22.3629 13.3989V10.97C22.1096 10.9377 21.24 10.8636 20.2279 10.8636C18.1144 10.8636 16.6675 12.129 16.6675 14.4522V16.4547H14.2773V19.1703H16.6675V26.1364H19.526Z" fill="white"/>
</mask>
<g mask="url(#mask0_35_1029)">
</g>
</svg>
