<svg width="37" height="37" viewBox="0 0 37 37" fill="none" xmlns="http://www.w3.org/2000/svg">
<rect x="0.0957031" y="0.5" width="36" height="36" rx="18" fill="#273373"/>
<path fill-rule="evenodd" clip-rule="evenodd" d="M18.0959 17.1636V19.8364H21.8765C21.3245 21.3919 19.8385 22.5091 18.0959 22.5091C15.8855 22.5091 14.0868 20.7103 14.0868 18.5C14.0868 16.2896 15.8855 14.4909 18.0959 14.4909C19.0541 14.4909 19.9761 14.8343 20.6924 15.4584L22.4484 13.4432C21.2457 12.3955 19.7009 11.8182 18.0959 11.8182C14.4115 11.8182 11.4141 14.8156 11.4141 18.5C11.4141 22.1843 14.4115 25.1818 18.0959 25.1818C21.7802 25.1818 24.7777 22.1843 24.7777 18.5V17.1636H18.0959Z" fill="white"/>
<mask id="mask0_35_1030" style="mask-type:luminance" maskUnits="userSpaceOnUse" x="11" y="11" width="14" height="15">
<path fill-rule="evenodd" clip-rule="evenodd" d="M18.0959 17.1636V19.8364H21.8765C21.3245 21.3919 19.8385 22.5091 18.0959 22.5091C15.8855 22.5091 14.0868 20.7103 14.0868 18.5C14.0868 16.2896 15.8855 14.4909 18.0959 14.4909C19.0541 14.4909 19.9761 14.8343 20.6924 15.4584L22.4484 13.4432C21.2457 12.3955 19.7009 11.8182 18.0959 11.8182C14.4115 11.8182 11.4141 14.8156 11.4141 18.5C11.4141 22.1843 14.4115 25.1818 18.0959 25.1818C21.7802 25.1818 24.7777 22.1843 24.7777 18.5V17.1636H18.0959Z" fill="white"/>
</mask>
<g mask="url(#mask0_35_1030)">
</g>
</svg>
