<svg width="37" height="37" viewBox="0 0 37 37" fill="none" xmlns="http://www.w3.org/2000/svg">
<rect x="0.0957031" y="0.5" width="36" height="36" rx="18" fill="#273373"/>
<path fill-rule="evenodd" clip-rule="evenodd" d="M14.2463 9.90906H21.945C24.5597 9.90906 26.6868 12.0362 26.6867 14.6506V22.3493C26.6867 24.9638 24.5597 27.0909 21.945 27.0909H14.2463C11.6319 27.0909 9.50488 24.9639 9.50488 22.3493V14.6506C9.50488 12.0362 11.6319 9.90906 14.2463 9.90906ZM21.9451 25.5664C23.7191 25.5664 25.1623 24.1233 25.1623 22.3493H25.1622V14.6506C25.1622 12.8768 23.719 11.4335 21.945 11.4335H14.2463C12.4725 11.4335 11.0293 12.8768 11.0293 14.6506V22.3493C11.0293 24.1233 12.4725 25.5665 14.2463 25.5664H21.9451ZM13.5958 18.5001C13.5958 16.0187 15.6145 14 18.0958 14C20.5771 14 22.5958 16.0187 22.5958 18.5001C22.5958 20.9814 20.5771 23 18.0958 23C15.6145 23 13.5958 20.9814 13.5958 18.5001ZM15.1453 18.5C15.1453 20.1269 16.4689 21.4503 18.0958 21.4503C19.7226 21.4503 21.0463 20.1269 21.0463 18.5C21.0463 16.873 19.7227 15.5494 18.0958 15.5494C16.4688 15.5494 15.1453 16.873 15.1453 18.5Z" fill="white"/>
<mask id="mask0_35_1031" style="mask-type:luminance" maskUnits="userSpaceOnUse" x="9" y="9" width="18" height="19">
<path fill-rule="evenodd" clip-rule="evenodd" d="M14.2463 9.90906H21.945C24.5597 9.90906 26.6868 12.0362 26.6867 14.6506V22.3493C26.6867 24.9638 24.5597 27.0909 21.945 27.0909H14.2463C11.6319 27.0909 9.50488 24.9639 9.50488 22.3493V14.6506C9.50488 12.0362 11.6319 9.90906 14.2463 9.90906ZM21.9451 25.5664C23.7191 25.5664 25.1623 24.1233 25.1623 22.3493H25.1622V14.6506C25.1622 12.8768 23.719 11.4335 21.945 11.4335H14.2463C12.4725 11.4335 11.0293 12.8768 11.0293 14.6506V22.3493C11.0293 24.1233 12.4725 25.5665 14.2463 25.5664H21.9451ZM13.5958 18.5001C13.5958 16.0187 15.6145 14 18.0958 14C20.5771 14 22.5958 16.0187 22.5958 18.5001C22.5958 20.9814 20.5771 23 18.0958 23C15.6145 23 13.5958 20.9814 13.5958 18.5001ZM15.1453 18.5C15.1453 20.1269 16.4689 21.4503 18.0958 21.4503C19.7226 21.4503 21.0463 20.1269 21.0463 18.5C21.0463 16.873 19.7227 15.5494 18.0958 15.5494C16.4688 15.5494 15.1453 16.873 15.1453 18.5Z" fill="white"/>
</mask>
<g mask="url(#mask0_35_1031)">
</g>
</svg>
