<svg width="342" height="270" viewBox="0 0 342 270" fill="none" xmlns="http://www.w3.org/2000/svg">
<g clip-path="url(#clip0_329_2199)">
<path d="M168.561 8.99112C225.003 26.8962 224.465 70.2751 243.156 87.0505L174.169 141.415C165.446 130.768 141.063 98.7425 127.894 83.7745C103.454 55.9849 81.1945 45.3661 64.2309 64.7963L24.5264 53.4997C24.5264 53.4997 68.3089 -22.8088 168.561 8.99112Z" fill="white"/>
<path d="M174.169 142.404C173.886 142.404 173.602 142.291 173.432 142.065C170.459 138.45 165.701 132.378 160.179 125.318C149.332 111.508 135.852 94.3085 127.186 84.4523C110.506 65.5022 95.9209 55.9001 83.8283 55.9001H83.7717C76.8333 55.9001 70.4896 59.1479 64.9673 65.5022C64.7124 65.7847 64.3442 65.8976 63.9761 65.7847L24.2716 54.4881C23.9884 54.4033 23.7618 54.2057 23.6485 53.9232C23.5352 53.6408 23.5636 53.3302 23.7052 53.076C23.8184 52.8783 35.0331 33.6176 58.4537 18.5649C72.1888 9.6971 87.3966 3.99232 103.624 1.5918C123.901 -1.4018 145.849 0.801034 168.845 8.08733C207.756 20.4289 219.849 44.7165 229.563 64.2596C234.065 73.3251 237.974 81.148 243.779 86.3727C243.977 86.5704 244.119 86.8245 244.091 87.107C244.091 87.3894 243.949 87.6436 243.723 87.813L174.735 142.178C174.565 142.319 174.339 142.376 174.14 142.376L174.169 142.404ZM83.8283 53.9515C96.5156 53.9515 111.582 63.7795 128.63 83.1814C137.353 93.0942 150.862 110.321 161.708 124.132C166.862 130.712 171.365 136.445 174.339 140.116L241.712 87.0222C236.104 81.5999 232.281 73.9182 227.892 65.1069C218.32 45.9027 206.425 22.0104 168.307 9.92303C116.878 -6.40054 80.7698 6.47757 59.5015 20.1464C39.5926 32.9398 28.6895 48.7833 26.0274 52.963L63.9194 63.7513C69.725 57.2557 76.4085 53.9797 83.7717 53.9515H83.8283Z" fill="#221F5A"/>
<path d="M191.753 66.6264C197.606 64.209 200.385 57.5182 197.961 51.6822C195.537 45.8461 188.827 43.0747 182.975 45.4921C177.123 47.9095 174.344 54.6002 176.768 60.4363C179.192 66.2724 185.901 69.0438 191.753 66.6264Z" fill="#221F5A"/>
<path d="M62.2486 74.7654C71.4809 65.0786 69.5551 49.3764 58.2555 42.1748C49.2214 36.4418 37.3271 38.2492 30.4453 46.4393C30.4453 46.4393 21.5246 56.3802 19.0324 60.0234C12.4055 69.6537 6.71324 86.0903 4.05117 99.6179C1.3891 113.146 -2.80224 125.205 15.011 134.835C32.8242 144.437 34.3818 128.481 32.2295 125.176C30.0772 121.872 23.6202 120.008 23.6202 114.106C23.6202 112.27 23.6202 110.039 23.9034 107.864C23.9034 107.864 30.0488 118.173 38.6581 111.338C38.4599 111.903 38.2616 112.496 38.0351 113.061C35.3163 119.98 32.7676 128.763 41.7166 130.994C50.6657 133.225 54.6588 119.387 58.482 108.514C62.1353 98.1494 64.769 88.6038 61.5972 77.4766C61.314 76.4882 61.5972 75.4432 62.2769 74.709L62.2486 74.7654Z" fill="white"/>
<path d="M279.434 237.436H167.202L160.405 263.927H285.976C282.577 240.628 279.434 237.436 279.434 237.436Z" fill="#221F5A"/>
<path d="M285.976 264.887H160.405C160.122 264.887 159.839 264.746 159.641 264.52C159.471 264.294 159.386 263.983 159.471 263.701L166.268 237.21C166.381 236.787 166.749 236.476 167.202 236.476H279.434C279.689 236.476 279.944 236.589 280.114 236.759C280.453 237.097 283.569 240.854 286.939 263.786C286.967 264.068 286.91 264.35 286.712 264.548C286.542 264.746 286.259 264.887 285.976 264.887ZM161.651 262.967H284.871C282.153 244.779 279.661 239.583 278.924 238.368H167.938L161.651 262.967Z" fill="#221F5A"/>
<path d="M312.993 121.985C335.536 162.145 366.291 243.932 303.166 265.057C270.117 276.127 241.004 257.601 220.755 237.436H169.1L168.647 145.341C168.533 123.002 181.447 102.499 201.866 93.3202C202.347 93.0942 202.857 92.8966 203.339 92.6706L212.089 89.4511L241.57 84.2829C260.828 82.0518 292.914 86.3445 312.937 121.957L312.993 121.985Z" fill="white"/>
<path d="M283.314 269.293C257.713 269.293 235.652 253.506 220.387 238.397H169.128C168.59 238.397 168.165 237.973 168.165 237.436L167.712 145.341C167.599 122.494 180.853 101.736 201.498 92.4446C201.979 92.2187 202.489 91.9928 202.999 91.7951C203.48 91.5974 204.047 91.7951 204.273 92.3034C204.471 92.7835 204.273 93.3484 203.763 93.5743C203.254 93.8002 202.772 93.9979 202.291 94.2238C182.354 103.176 169.525 123.256 169.638 145.369L170.063 236.533H220.755C221.01 236.533 221.265 236.646 221.435 236.815C240.154 255.483 269.494 275.365 302.855 264.209C319.082 258.787 330.098 248.846 335.564 234.697C347.459 203.942 331.26 156.581 312.144 122.494C290.536 84.0287 255.702 83.6615 241.74 85.2995C241.202 85.356 240.749 84.9889 240.664 84.4523C240.608 83.9157 240.976 83.4638 241.514 83.3791C255.872 81.7129 291.668 82.08 313.815 121.562C319.62 131.87 330.268 152.712 336.64 176.378C343.041 200.214 343.296 220.068 337.348 235.375C331.656 250.089 320.243 260.397 303.449 266.017C296.539 268.333 289.771 269.349 283.257 269.349L283.314 269.293Z" fill="#221F5A"/>
<path d="M148.455 193.041H134.946C134.946 193.041 134.889 193.041 134.861 192.984C134.04 189.539 132.709 186.291 130.981 183.297L140.468 173.837L128.064 161.467L118.775 170.73C115.717 168.81 112.347 167.341 108.778 166.409V153.503H91.2201V166.155C87.5102 167.002 83.9986 168.442 80.8267 170.335L71.9343 161.467L59.5302 173.837L68.366 182.648C66.4119 185.839 64.9676 189.341 64.0897 193.069H51.5439V210.579H64.2313C65.1658 214.222 66.6668 217.639 68.6208 220.717L59.5302 229.783L71.9343 242.153L81.2515 232.861C84.3101 234.64 87.6518 235.968 91.2201 236.787V250.117H108.778V236.533C112.205 235.629 115.405 234.245 118.351 232.466L128.064 242.153L140.468 229.783L130.726 220.068C132.482 217.159 133.813 213.996 134.691 210.635C134.691 210.607 134.748 210.579 134.776 210.579H148.455V193.069V193.041ZM110.534 217.187C92.6644 227.439 74.2848 209.11 84.565 191.29C85.7261 189.256 87.4253 187.562 89.4643 186.404C107.334 176.152 125.714 194.481 115.434 212.301C114.273 214.335 112.573 216.029 110.534 217.187Z" fill="url(#paint0_linear_329_2199)"/>
<path d="M237.733 61.6106C243.301 46.552 235.573 29.8435 220.473 24.291C205.373 18.7386 188.618 26.4449 183.05 41.5035C177.482 56.5621 185.21 73.2707 200.31 78.8231C215.41 84.3755 232.165 76.6693 237.733 61.6106Z" fill="#221F5A"/>
<path d="M234.377 68.0722C224.04 73.4946 215.403 68.9477 214.496 60.4188C214.496 60.4188 201.469 35.1144 190.226 38.8705C183.373 42.2878 180.654 50.506 182.608 59.6563C183.458 63.6666 185.044 74.6525 187.706 82.4189C190.368 90.157 193.794 98.9119 212.174 89.5075L217.98 102.075L243.156 87.107L234.377 68.1005V68.0722Z" fill="white"/>
<path d="M214.836 99.6745C214.411 99.6745 214.043 99.3921 213.902 98.9967L211.523 90.8349C204.216 94.4216 198.694 95.3536 194.672 93.7438C189.886 91.8234 188.074 86.5422 186.771 82.7014C184.732 76.7424 183.316 68.9195 182.382 63.7514C182.098 62.1698 181.844 60.786 181.645 59.8258C179.55 49.913 182.665 41.5536 189.773 37.9951C190.255 37.7692 190.821 37.9387 191.048 38.4188C191.274 38.8989 191.104 39.4637 190.623 39.6896C184.336 42.8244 181.589 50.3931 183.514 59.4022C183.713 60.3906 183.968 61.7745 184.251 63.3842C185.185 68.4959 186.573 76.2058 188.555 82.0518C190.113 86.5987 191.699 90.4678 195.38 91.9363C199.062 93.4049 204.386 92.3317 211.693 88.6038C211.948 88.4626 212.259 88.4626 212.514 88.6038C212.769 88.7168 212.967 88.9427 213.052 89.2252L215.742 98.4884C215.884 98.9967 215.601 99.5333 215.091 99.6745C215.006 99.6745 214.921 99.7027 214.836 99.7027V99.6745Z" fill="#221F5A"/>
<path d="M243.156 88.0107C242.788 88.0107 242.448 87.8131 242.278 87.4459L233.499 68.4394C233.272 67.9593 233.499 67.3945 233.98 67.1685C234.462 66.9426 235.028 67.1685 235.255 67.6486L244.034 86.6552C244.261 87.1353 244.034 87.7001 243.553 87.926C243.411 87.9825 243.298 88.0107 243.156 88.0107Z" fill="#221F5A"/>
<path d="M212.146 90.4112C211.806 90.4112 211.466 90.2135 211.296 89.9029C211.042 89.4228 211.24 88.8579 211.693 88.6038L218.15 85.1866C218.631 84.9324 219.198 85.1301 219.453 85.5819C219.708 86.062 219.509 86.6269 219.056 86.881L212.599 90.2983C212.458 90.383 212.316 90.4112 212.146 90.4112Z" fill="#221F5A"/>
<path d="M202.8 61.9156C203.253 62.8758 202.8 64.0337 201.837 64.4856C200.874 64.9374 199.713 64.4856 199.26 63.5253C198.807 62.5651 199.26 61.4072 200.223 60.9554C201.186 60.5035 202.347 60.9554 202.8 61.9156Z" fill="#221F5A"/>
<path d="M188.216 64.768C188.669 65.7282 188.216 66.8861 187.253 67.338C186.29 67.7898 185.129 67.338 184.676 66.3778C184.223 65.4176 184.676 64.2597 185.639 63.8078C186.601 63.3559 187.763 63.8078 188.216 64.768Z" fill="#221F5A"/>
<path d="M219.198 85.8926C219.198 85.8926 222.426 97.0197 214.836 99.3638L212.146 89.4792L219.198 85.8926Z" fill="#221F5A"/>
<path d="M318.175 214.561C317.694 214.561 317.269 214.194 317.213 213.685C317.128 212.697 314.664 189.482 290.45 185.19H290.252C264.934 180.671 248.197 177.706 221.775 163.415C221.321 163.161 221.123 162.568 221.378 162.116C221.633 161.664 222.199 161.467 222.681 161.721C248.848 175.87 265.444 178.807 290.592 183.269H290.79C316.448 187.844 319.11 213.262 319.138 213.516C319.195 214.052 318.799 214.504 318.26 214.561C318.232 214.561 318.204 214.561 318.175 214.561Z" fill="#221F5A"/>
<path d="M270.202 181.066C269.777 181.066 269.38 180.784 269.267 180.332L258.732 136.417C258.619 135.908 258.93 135.4 259.44 135.259C259.95 135.146 260.46 135.456 260.601 135.965L271.136 179.88C271.25 180.389 270.938 180.897 270.428 181.038C270.343 181.038 270.287 181.038 270.202 181.038V181.066Z" fill="#221F5A"/>
<path d="M218.546 117.495C218.32 117.495 218.093 117.495 217.895 117.495C203.083 116.478 202.489 93.9132 202.46 92.953C202.46 92.4164 202.885 91.9928 203.395 91.9645C203.933 91.9645 204.358 92.3882 204.386 92.8965C204.386 93.1224 204.981 114.671 218.036 115.546C231.46 116.478 258.562 84.0852 258.817 83.7463C259.157 83.3509 259.752 83.2944 260.176 83.6333C260.573 83.9722 260.63 84.5653 260.29 84.9889C259.185 86.3445 233.131 117.495 218.546 117.495Z" fill="#221F5A"/>
<path d="M220.783 238.397C220.529 238.397 220.274 238.284 220.075 238.086C219.962 237.973 216.932 234.669 195.437 202.332C195.154 201.88 195.267 201.287 195.72 201.005C196.173 200.722 196.768 200.835 197.051 201.287C218.433 233.511 221.435 236.758 221.463 236.787C221.831 237.182 221.803 237.775 221.435 238.142C221.237 238.312 221.01 238.397 220.783 238.397Z" fill="#221F5A"/>
<path d="M158.055 124.442L181.193 176.915C183.09 181.179 188.244 182.93 192.464 180.728C196.542 178.581 198.071 173.526 195.834 169.6L166.664 119.302L158.055 124.471V124.442Z" fill="#221F5A"/>
<path d="M139.137 18.2261C134.833 13.8204 130.67 10.6292 126.762 8.70874C120.163 5.51745 115.292 6.5059 112.375 7.91797L103.766 12.0695C100.877 13.538 97.2239 16.7293 95.6663 23.6767C94.7317 27.9129 94.6467 33.1376 95.4397 39.2378C96.9407 50.9297 101.528 65.0787 108.325 79.1147C115.122 93.1507 123.391 105.521 131.633 113.965C135.937 118.37 140.1 121.562 144.008 123.482C150.607 126.673 155.478 125.685 158.395 124.273C158.565 124.188 158.706 124.103 158.876 124.019L166.749 120.234C169.666 118.822 173.489 115.631 175.075 108.514C176.01 104.278 176.095 99.0532 175.302 92.953C173.801 81.2611 169.213 67.1121 162.416 53.0761C155.62 39.0401 147.35 26.6703 139.109 18.2261H139.137Z" fill="url(#paint1_linear_329_2199)"/>
<path d="M146.84 60.6165C160.292 88.3779 163.889 114.417 154.912 118.766C145.906 123.087 127.724 104.108 114.272 76.3188C100.821 48.5574 97.2239 22.5188 106.201 18.1696C115.207 13.8487 133.388 32.8269 146.84 60.6165Z" fill="white"/>
<path d="M152.108 120.319C141.969 120.319 125.855 102.499 113.366 76.7424C99.4612 48.0491 96.1195 21.954 105.748 17.3224C115.377 12.6908 133.785 31.5278 147.69 60.2212C161.595 88.9145 164.937 115.01 155.308 119.641C154.317 120.121 153.269 120.347 152.108 120.347V120.319ZM109.062 18.4803C108.184 18.4803 107.362 18.6497 106.598 19.0169C98.2435 23.0554 102.123 49.094 115.122 75.867C126.932 100.268 142.961 118.399 152.023 118.399C152.901 118.399 153.722 118.229 154.487 117.862C162.841 113.823 158.961 87.7849 145.963 61.0119C134.153 36.6113 118.124 18.4803 109.062 18.4803Z" fill="#221F5A"/>
<path d="M140.128 63.8361C148.058 80.2162 150.182 95.5513 144.886 98.093C139.59 100.635 128.857 89.4512 120.927 73.0711C112.998 56.691 110.874 41.3559 116.17 38.8142C121.466 36.2725 132.199 47.4561 140.128 63.8361Z" fill="#221F5A"/>
<path d="M220.33 161.523L202.121 152.175C202.121 152.175 188.386 132.209 175.868 135.146C175.868 135.146 180.598 142.997 174.82 145.059C169.043 147.092 164.54 137.631 164.54 137.631C164.54 137.631 153.382 146.838 158.82 155.621C158.82 155.621 153.241 168.132 162.331 173.328C162.331 173.328 157.998 184.342 168.562 188.324C168.562 188.324 167.429 193.916 173.518 196.938C175.217 197.785 193.993 201.993 193.993 201.993L194.361 202.276C208.266 212.979 228.628 205.891 232.791 188.861C235.453 177.988 230.299 166.691 220.302 161.552L220.33 161.523Z" fill="white"/>
<path d="M209.201 208.235C203.707 208.235 198.298 206.427 193.795 202.982L193.597 202.841C190.878 202.219 174.792 198.604 173.121 197.757C167.882 195.159 167.486 190.725 167.571 188.918C164.654 187.675 162.615 185.755 161.51 183.241C159.811 179.457 160.717 175.39 161.227 173.724C153.411 168.584 156.894 158.021 157.8 155.677C152.589 146.442 163.861 136.981 163.974 136.897C164.201 136.699 164.512 136.643 164.795 136.699C165.079 136.756 165.333 136.953 165.447 137.236C165.475 137.32 169.666 145.906 174.537 144.183C175.585 143.816 176.237 143.223 176.548 142.347C177.341 140.173 175.755 136.784 175.075 135.682C174.906 135.428 174.906 135.089 175.019 134.807C175.132 134.524 175.387 134.327 175.67 134.242C188.131 131.333 201.215 149.21 202.772 151.469L220.784 160.704C231.206 166.042 236.53 177.734 233.754 189.087C231.715 197.39 225.655 204.027 217.584 206.851C214.837 207.811 212.033 208.263 209.229 208.263L209.201 208.235ZM164.286 139.128C161.878 141.472 155.591 148.504 159.641 155.056C159.811 155.31 159.839 155.649 159.698 155.96C159.471 156.44 154.6 167.765 162.813 172.453C163.238 172.679 163.408 173.187 163.238 173.639C163.238 173.695 161.425 178.383 163.238 182.45C164.229 184.681 166.155 186.319 168.902 187.364C169.327 187.534 169.581 187.986 169.496 188.437C169.468 188.635 168.619 193.351 173.943 196.006C175.104 196.571 186.97 199.367 194.191 200.977C194.333 201.005 194.446 201.061 194.56 201.146L194.928 201.429C201.215 206.258 209.399 207.585 216.876 204.959C224.352 202.361 229.931 196.204 231.829 188.522C234.406 178.016 229.478 167.256 219.849 162.314L201.64 152.966C201.64 152.966 201.385 152.797 201.3 152.656C201.158 152.458 188.726 134.581 177.313 135.795C178.077 137.433 179.182 140.455 178.304 142.884C177.794 144.296 176.718 145.313 175.132 145.878C169.865 147.741 165.758 141.698 164.257 139.071L164.286 139.128Z" fill="#221F5A"/>
<path d="M172.3 178.242C172.3 178.242 172.073 178.242 171.932 178.186L161.991 174.204C161.51 174.006 161.255 173.441 161.453 172.961C161.652 172.481 162.218 172.227 162.699 172.425L172.64 176.407C173.121 176.604 173.376 177.169 173.178 177.649C173.036 178.016 172.668 178.242 172.3 178.242Z" fill="#221F5A"/>
<path d="M172.101 190.838C172.101 190.838 171.847 190.838 171.705 190.753L168.193 189.172C167.712 188.946 167.485 188.381 167.712 187.901C167.938 187.421 168.505 187.195 168.986 187.421L172.498 189.002C172.979 189.228 173.206 189.793 172.979 190.273C172.809 190.612 172.47 190.838 172.101 190.838Z" fill="#221F5A"/>
<path d="M175.868 164.348C175.868 164.348 175.585 164.348 175.472 164.263L158.423 156.44C157.942 156.214 157.744 155.649 157.942 155.169C158.168 154.689 158.735 154.491 159.216 154.689L176.265 162.512C176.746 162.738 176.945 163.303 176.746 163.783C176.576 164.122 176.237 164.348 175.868 164.348Z" fill="#221F5A"/>
<path d="M58.7934 127.436L53.2427 130.373C53.2427 130.373 53.2143 130.373 53.186 130.373C52.0815 129.13 50.8355 128.085 49.4761 127.238L51.2886 121.279L43.5006 118.907L41.7165 124.725C40.0456 124.612 38.3464 124.725 36.6755 125.12L33.8435 119.839L26.6503 123.651L29.4256 128.82C28.0946 129.978 26.9618 131.333 26.0839 132.802L20.5048 131.107L18.126 138.874L23.6767 140.568C23.5634 142.291 23.7616 144.042 24.1864 145.764L19.0605 148.504L22.8837 155.677L28.0946 152.91C29.284 154.209 30.6434 155.254 32.116 156.101L30.3602 161.806L38.1481 164.178L39.9323 158.332C41.5749 158.388 43.2457 158.219 44.86 157.767L47.7769 163.218L54.9702 159.405L51.9966 153.842C53.186 152.74 54.2055 151.469 55.0268 150.085L61.1156 151.949L63.4945 144.183L57.3774 142.319C57.4623 140.738 57.3207 139.156 56.9526 137.574C56.9526 137.574 56.9526 137.546 56.9526 137.518L62.5599 134.553L58.7367 127.379L58.7934 127.436ZM48.5416 145.567C43.444 153.644 31.9178 150.142 32.2293 140.596C32.2576 139.495 32.5974 138.45 33.1638 137.518C38.2614 129.441 49.7876 132.943 49.4761 142.488C49.4478 143.59 49.108 144.635 48.5416 145.567Z" fill="#221F5A"/>
<path d="M98.045 124.132C97.7901 124.132 97.5635 124.047 97.3653 123.849L84.0549 110.576C83.6868 110.209 83.6868 109.587 84.0549 109.22C84.4231 108.853 85.0461 108.853 85.4143 109.22L98.7246 122.494C99.0928 122.861 99.0928 123.482 98.7246 123.849C98.5264 124.047 98.2998 124.132 98.045 124.132Z" fill="#221F5A"/>
<path d="M84.7346 124.132C84.4797 124.132 84.2532 124.047 84.0549 123.849C83.6868 123.482 83.6868 122.861 84.0549 122.494L97.3653 109.22C97.7334 108.853 98.3565 108.853 98.7246 109.22C99.0928 109.587 99.0928 110.209 98.7246 110.576L85.4143 123.849C85.216 124.047 84.9895 124.132 84.7346 124.132Z" fill="#221F5A"/>
<path d="M24.7531 138.845C22.176 138.845 18.8342 137.998 14.5296 135.682C-2.51899 126.504 -0.1118 114.868 2.43699 102.583C2.66355 101.538 2.86179 100.493 3.08835 99.4485C5.55218 86.9375 11.1878 69.7385 18.2395 59.4868C20.7316 55.8437 29.2276 46.3545 29.7374 45.8179C36.9023 37.3173 49.3914 35.3968 58.7936 41.3558C64.4293 44.9425 68.1108 50.7884 68.9321 57.3969C69.7534 64.0054 67.5728 70.5857 62.9566 75.415C62.5035 75.8951 62.3053 76.6011 62.5035 77.2789C65.7886 88.8297 62.9 98.8272 59.36 108.881C59.0768 109.7 58.7936 110.547 58.4821 111.395C55.0837 121.223 51.2888 132.265 43.6141 132.265C42.9345 132.265 42.1981 132.18 41.4335 131.983C38.5449 131.248 36.5342 129.836 35.4297 127.718C33.3057 123.623 35.0898 117.862 37.1006 112.75C38.8281 108.345 39.1113 105.097 37.8935 103.092C36.959 101.538 35.0049 100.578 32.0879 100.239C30.1339 100.013 28.6329 100.409 27.4718 101.425C24.5548 104.024 24.5548 110.35 24.5548 114.134C24.5548 117.523 27.047 119.443 29.4542 121.279C30.8419 122.352 32.1729 123.369 33.0225 124.668C34.4951 126.956 34.4102 132.802 31.2383 136.191C29.9356 137.603 27.8966 138.845 24.7531 138.845ZM46.8143 39.8025C40.9521 39.8025 35.1748 42.316 31.1817 47.0606C31.0967 47.1735 22.2892 56.9733 19.8254 60.56C12.9437 70.5857 7.39297 87.5023 4.98578 99.8156C4.78754 100.889 4.56098 101.934 4.33442 102.979C1.84227 115.066 -0.338359 125.487 15.4641 133.988C22.091 137.574 27.047 137.857 29.8223 134.892C32.5411 131.954 32.2579 127.012 31.4083 125.685C30.7569 124.668 29.5675 123.736 28.2931 122.776C25.7726 120.827 22.6574 118.427 22.6574 114.106C22.6574 110.011 22.6574 103.148 26.2257 99.9851C27.7833 98.6012 29.8507 98.0364 32.3428 98.3188C35.8828 98.7142 38.3183 99.9851 39.5644 102.075C41.122 104.645 40.8954 108.345 38.913 113.4C37.1572 117.834 35.4014 123.341 37.1572 126.786C38.0068 128.396 39.5644 129.497 41.9149 130.062C49.3348 131.898 53.2429 120.658 56.6696 110.717C56.9528 109.87 57.2643 109.022 57.5475 108.203C60.9742 98.4318 63.8062 88.7732 60.6627 77.759C60.2946 76.4599 60.6627 75.0479 61.569 74.0594C65.7603 69.6537 67.771 63.6383 67.0064 57.5946C66.2701 51.551 62.9 46.2133 57.7458 42.9373C54.3757 40.791 50.5808 39.7743 46.8426 39.7743L46.8143 39.8025Z" fill="#221F5A"/>
<path d="M32.7394 114.671C32.2296 114.671 31.7199 114.614 31.2101 114.529C26.2258 113.626 23.1956 108.599 23.054 108.373C22.7708 107.921 22.9407 107.328 23.3938 107.074C23.8469 106.791 24.4417 106.961 24.6965 107.413C24.7249 107.469 27.4436 111.931 31.55 112.666C33.6739 113.033 35.8546 112.355 38.0352 110.632C38.46 110.293 39.0547 110.378 39.3946 110.773C39.7344 111.197 39.6494 111.79 39.253 112.129C37.129 113.823 34.9483 114.699 32.7394 114.699V114.671Z" fill="#221F5A"/>
<path d="M32.2012 107.893C32.2012 107.893 32.0879 107.893 32.0312 107.893C31.5215 107.808 31.1533 107.3 31.2383 106.791L32.5127 99.3355C32.5976 98.8272 33.1074 98.4601 33.6172 98.5448C34.1269 98.6295 34.4951 99.1378 34.4101 99.6462L33.1357 107.102C33.0508 107.582 32.6543 107.893 32.2012 107.893Z" fill="#221F5A"/>
<path d="M195.43 49.5035C200.406 44.5404 200.406 36.4937 195.43 31.5307C190.453 26.5677 182.384 26.5677 177.407 31.5307C172.43 36.4937 172.43 44.5404 177.407 49.5035C182.384 54.4665 190.453 54.4665 195.43 49.5035Z" fill="#221F5A"/>
<path d="M184.506 52.144C176.944 52.144 170.799 46.0156 170.799 38.4751C170.799 30.9347 176.944 24.8063 184.506 24.8063C192.067 24.8063 198.212 30.9347 198.212 38.4751C198.212 46.0156 192.067 52.144 184.506 52.144ZM184.506 26.7549C178.02 26.7549 172.725 32.0361 172.725 38.5034C172.725 44.9707 177.992 50.2518 184.506 50.2518C191.019 50.2518 196.287 44.9707 196.287 38.5034C196.287 32.0361 190.991 26.7549 184.506 26.7549Z" fill="#221F5A"/>
<path d="M209.257 58.3571C216.076 58.3571 221.605 52.8443 221.605 46.0439C221.605 39.2434 216.076 33.7306 209.257 33.7306C202.438 33.7306 196.91 39.2434 196.91 46.0439C196.91 52.8443 202.438 58.3571 209.257 58.3571Z" fill="#221F5A"/>
<path d="M224.295 59.1197C226.306 63.4406 224.409 68.5806 220.047 70.5575C215.714 72.5626 210.56 70.6704 208.578 66.3212C206.567 62.0003 208.465 56.8603 212.826 54.8834C217.187 52.9065 222.313 54.7705 224.295 59.1197Z" fill="white"/>
<path d="M215.658 65.7564C215.658 65.7564 215.545 65.7564 215.488 65.7564C214.978 65.6717 214.639 65.1634 214.723 64.6268L215.743 59.2891C215.828 58.7808 216.338 58.4137 216.876 58.5266C217.386 58.6114 217.725 59.1197 217.64 59.6563L216.621 64.9939C216.536 65.4458 216.139 65.7847 215.686 65.7847L215.658 65.7564Z" fill="#221F5A"/>
<path d="M179.125 60.4471C178.672 60.4471 178.275 60.1364 178.19 59.6563C178.105 59.148 178.445 58.6396 178.955 58.5267L200.138 54.5164C200.648 54.4034 201.158 54.7705 201.271 55.2789C201.356 55.7872 201.016 56.2956 200.506 56.4086L179.323 60.4188C179.323 60.4188 179.21 60.4188 179.153 60.4188L179.125 60.4471Z" fill="url(#paint2_linear_329_2199)"/>
<path d="M202.517 74.7089C197.901 74.7089 193.709 71.5741 192.577 66.9143C191.217 61.4354 194.587 55.9001 200.081 54.5728C202.744 53.9232 205.491 54.3468 207.841 55.7589C210.192 57.171 211.834 59.4021 212.486 62.0568C213.137 64.7115 212.712 67.4509 211.296 69.7949C209.88 72.139 207.643 73.777 204.981 74.4265C204.16 74.6242 203.338 74.7089 202.545 74.7089H202.517ZM202.517 56.1825C201.866 56.1825 201.186 56.2673 200.506 56.4367C198.354 56.9733 196.513 58.3006 195.38 60.1928C194.219 62.085 193.879 64.3161 194.417 66.4624C195.522 70.8963 200.025 73.6358 204.499 72.5343C206.652 71.9978 208.492 70.6704 209.625 68.7782C210.786 66.886 211.126 64.655 210.588 62.5086C210.05 60.3623 208.719 58.5266 206.822 57.3969C205.491 56.6062 204.018 56.1825 202.517 56.1825Z" fill="url(#paint3_linear_329_2199)"/>
<path d="M181.334 78.7192C176.717 78.7192 172.526 75.5844 171.393 70.9246C170.742 68.2699 171.167 65.5305 172.583 63.1864C173.999 60.8424 176.236 59.2044 178.898 58.5548C184.392 57.2275 189.943 60.56 191.274 66.0388C191.925 68.6935 191.5 71.4329 190.084 73.777C188.668 76.121 186.431 77.759 183.769 78.4086C182.948 78.6063 182.127 78.691 181.334 78.691V78.7192ZM181.334 60.1928C180.682 60.1928 180.003 60.2776 179.351 60.4188C177.199 60.9554 175.358 62.2827 174.225 64.1749C173.064 66.0671 172.724 68.2981 173.262 70.4445C174.367 74.8784 178.87 77.6178 183.344 76.5164C185.497 75.9798 187.337 74.6525 188.47 72.7603C189.631 70.8681 189.971 68.637 189.433 66.4907C188.499 62.7063 185.1 60.1646 181.362 60.1646L181.334 60.1928Z" fill="url(#paint4_linear_329_2199)"/>
<path d="M192.181 76.9118C191.699 76.9118 191.303 76.5729 191.218 76.0646L189.462 62.6216C189.405 62.0851 189.773 61.6049 190.283 61.5485C190.821 61.4637 191.303 61.8591 191.359 62.3675L193.115 75.8104C193.172 76.347 192.804 76.8271 192.294 76.8836C192.265 76.8836 192.209 76.8836 192.181 76.8836V76.9118Z" fill="#221F5A"/>
<path d="M191.132 80.4138C190.679 80.4138 190.254 80.0749 190.198 79.5948C190.113 79.0865 190.481 78.5781 190.991 78.4934L195.21 77.8438C195.72 77.7591 196.23 78.1263 196.315 78.6346C196.4 79.1712 196.032 79.6513 195.522 79.736L191.302 80.3856C191.302 80.3856 191.217 80.3856 191.161 80.3856L191.132 80.4138Z" fill="#221F5A"/>
</g>
<defs>
<linearGradient id="paint0_linear_329_2199" x1="51.5439" y1="201.81" x2="148.455" y2="201.81" gradientUnits="userSpaceOnUse">
<stop stop-color="#4B25DA"/>
<stop offset="0.354167" stop-color="#4C27D9"/>
<stop offset="0.6875" stop-color="#5330D7"/>
<stop offset="1" stop-color="#6D56CD"/>
</linearGradient>
<linearGradient id="paint1_linear_329_2199" x1="94.8999" y1="66.0954" x2="175.842" y2="66.0954" gradientUnits="userSpaceOnUse">
<stop stop-color="#4B25DA"/>
<stop offset="0.354167" stop-color="#4C27D9"/>
<stop offset="0.6875" stop-color="#5330D7"/>
<stop offset="1" stop-color="#6D56CD"/>
</linearGradient>
<linearGradient id="paint2_linear_329_2199" x1="178.177" y1="57.4715" x2="201.284" y2="57.4715" gradientUnits="userSpaceOnUse">
<stop stop-color="#4B25DA"/>
<stop offset="0.354167" stop-color="#4C27D9"/>
<stop offset="0.6875" stop-color="#5330D7"/>
<stop offset="1" stop-color="#6D56CD"/>
</linearGradient>
<linearGradient id="paint3_linear_329_2199" x1="192.275" y1="64.4922" x2="212.784" y2="64.4922" gradientUnits="userSpaceOnUse">
<stop stop-color="#4B25DA"/>
<stop offset="0.354167" stop-color="#4C27D9"/>
<stop offset="0.6875" stop-color="#5330D7"/>
<stop offset="1" stop-color="#6D56CD"/>
</linearGradient>
<linearGradient id="paint4_linear_329_2199" x1="171.095" y1="68.4914" x2="191.572" y2="68.4914" gradientUnits="userSpaceOnUse">
<stop stop-color="#4B25DA"/>
<stop offset="0.354167" stop-color="#4C27D9"/>
<stop offset="0.6875" stop-color="#5330D7"/>
<stop offset="1" stop-color="#6D56CD"/>
</linearGradient>
<clipPath id="clip0_329_2199">
<rect width="341" height="269" fill="white" transform="translate(0.652832 0.292725)"/>
</clipPath>
</defs>
</svg>
