<svg width="308" height="270" viewBox="0 0 308 270" fill="none" xmlns="http://www.w3.org/2000/svg">
<path d="M155.199 236.073L233.545 233.306C247.383 237.824 252.343 253.457 254.2 268.557H149.45L155.199 236.073Z" fill="white"/>
<path d="M149.45 269.293C149.45 269.293 149.374 269.293 149.323 269.293C148.916 269.217 148.662 268.836 148.713 268.43L154.461 235.946C154.512 235.616 154.817 235.362 155.174 235.337L233.52 232.57C233.52 232.57 233.698 232.57 233.774 232.596C245.526 236.428 252.445 248.153 254.938 268.455C254.989 268.861 254.709 269.217 254.302 269.267C253.895 269.318 253.539 269.039 253.488 268.633C251.097 249.041 244.534 237.722 233.469 234.042L155.835 236.783L150.188 268.684C150.137 269.039 149.806 269.293 149.45 269.293Z" fill="#221F5A"/>
<path d="M152.986 227.317L152.35 250.513L249.571 250.944V246.173C295.23 271.196 325.017 242.874 295.23 195.239C270.327 155.395 265.138 134.433 215.867 132.961L190.913 131.946C163.924 131.159 155.454 136.311 143.244 148.746C136.274 155.827 127.549 166.612 120.198 163.186C111.498 159.126 73.3428 161.486 78.1758 200.391C85.8578 262.415 139.937 261.73 152.986 227.342V227.317Z" fill="#221F5A"/>
<path d="M215.867 132.935L190.913 131.92C179.721 131.59 171.733 132.301 165.323 134.103C168.147 137.123 180.102 148.416 201.52 149.152C219.733 149.786 234.385 140.929 240.871 136.209C233.978 134.331 225.813 133.214 215.841 132.91L215.867 132.935Z" fill="white"/>
<path d="M153.876 114.958H40.3762C18.1697 114.958 0.109375 96.9399 0.109375 74.7847C0.109375 52.6295 18.1697 34.6109 40.3762 34.6109C43.9883 34.6109 47.5495 35.0931 51.0344 36.0321C54.1377 26.1346 60.3952 17.2522 68.7131 10.933C77.5143 4.25854 88.0198 0.756348 99.1104 0.756348C110.201 0.756348 120.401 4.18241 129.152 10.6539C137.546 16.8715 143.676 25.3479 146.932 35.1946C149.247 34.7886 151.562 34.5855 153.851 34.5855C176.057 34.5855 194.118 52.6041 194.118 74.7593C194.118 96.9145 176.057 114.933 153.851 114.933L153.876 114.958ZM40.3762 36.0829C18.9837 36.0829 1.58472 53.4416 1.58472 74.7847C1.58472 96.1278 18.9837 113.486 40.3762 113.486H153.851C175.243 113.486 192.642 96.1278 192.642 74.7847C192.642 53.4416 175.243 36.0829 153.851 36.0829C151.434 36.0829 148.967 36.3113 146.55 36.7681C146.194 36.8442 145.813 36.6158 145.711 36.2605C139.275 15.9072 120.554 2.22829 99.1358 2.22829C77.7178 2.22829 58.3602 16.5924 52.2553 37.1487C52.1281 37.5294 51.7211 37.7578 51.3396 37.6563C47.7784 36.6158 44.09 36.0829 40.4017 36.0829H40.3762Z" fill="#221F5A"/>
<path d="M85.7558 64.0843V25.6616H108.497V64.0843H123.733L110.43 82.0267L97.1262 99.9691L83.8226 82.0267L70.519 64.0843H85.7558Z" fill="#0085FF"/>
<path d="M280.807 256.198C271.828 256.198 261.297 253.254 250.308 247.391V250.919C250.308 251.122 250.232 251.3 250.079 251.452C249.952 251.579 249.749 251.655 249.57 251.655L152.35 251.223C152.147 251.223 151.969 251.147 151.816 250.995C151.689 250.843 151.612 250.665 151.612 250.462L152.147 231.073C149.018 237.443 144.337 242.646 138.436 246.249C131.772 250.335 123.886 252.061 116.204 251.147C106.894 250.031 98.449 245.259 91.7845 237.367C84.1788 228.358 79.3457 215.922 77.438 200.442C75.1741 182.093 82.5508 172.551 89.139 167.78C100.128 159.811 115.415 160.09 120.503 162.476C126.455 165.242 133.654 157.679 139.988 151.005C140.903 150.04 141.819 149.076 142.684 148.188C154.639 136.006 163.288 130.372 190.887 131.159L215.841 132.174C259.033 133.494 268.928 150.015 286.861 180.063C289.659 184.732 292.534 189.554 295.815 194.808C302.912 206.152 307.033 217.191 307.77 226.683C308.457 235.641 306.193 243.128 301.208 248.381C296.273 253.584 289.176 256.172 280.756 256.172L280.807 256.198ZM249.57 245.437C249.57 245.437 249.825 245.463 249.927 245.539C271.065 257.111 290.321 257.847 300.19 247.417C304.871 242.468 307.007 235.362 306.346 226.835C305.634 217.546 301.564 206.761 294.619 195.62C291.338 190.366 288.438 185.519 285.64 180.85C267.402 150.294 258.245 134.966 215.841 133.671L190.887 132.656C163.771 131.87 155.708 137.097 143.778 149.228C142.913 150.116 141.997 151.055 141.081 152.02C134.392 159.05 126.811 167.044 119.892 163.821C115.059 161.562 100.535 161.334 90.0039 168.973C80.9991 175.495 77.1836 186.306 78.9133 200.264C80.7956 215.465 85.5015 227.647 92.9291 236.428C99.3393 244.041 107.454 248.609 116.382 249.675C132 251.553 146.423 242.443 152.299 227.013C152.426 226.683 152.783 226.48 153.139 226.556C153.495 226.632 153.749 226.936 153.724 227.292L153.113 249.751L248.833 250.158V246.122C248.833 245.869 248.96 245.615 249.189 245.488C249.316 245.412 249.443 245.386 249.57 245.386V245.437Z" fill="#221F5A"/>
<path d="M160.464 201.101C160.312 201.101 160.159 201.051 160.032 200.974C154.741 197.269 151.562 191.229 151.562 184.783C151.562 176.764 156.369 169.582 163.797 166.511C164.178 166.359 164.611 166.511 164.763 166.917C164.916 167.298 164.763 167.729 164.356 167.881C157.463 170.724 153.011 177.347 153.011 184.783C153.011 190.747 155.937 196.356 160.846 199.782C161.177 200.01 161.253 200.467 161.024 200.797C160.871 201 160.643 201.101 160.414 201.101H160.464Z" fill="#221F5A"/>
<path d="M164.84 158.415C164.84 158.009 164.509 157.679 164.102 157.679C163.695 157.679 163.364 158.009 163.364 158.415V167.196C163.364 167.603 163.695 167.932 164.102 167.932C164.509 167.932 164.84 167.603 164.84 167.196V158.415Z" fill="#221F5A"/>
<path d="M157.361 220.262C157.361 220.262 157.285 220.262 157.234 220.262C156.827 220.186 156.547 219.831 156.623 219.425L159.727 200.264C159.803 199.858 160.159 199.579 160.566 199.655C160.973 199.731 161.253 200.086 161.177 200.492L158.073 219.653C158.022 220.008 157.692 220.262 157.336 220.262H157.361Z" fill="#221F5A"/>
<path d="M295.23 206.481C295.077 206.481 294.925 206.431 294.797 206.355C272.413 190.239 249.723 188.082 249.494 188.057C249.087 188.031 248.782 187.676 248.833 187.27C248.858 186.864 249.24 186.56 249.621 186.61C249.85 186.61 272.922 188.793 295.662 205.187C295.993 205.416 296.069 205.898 295.84 206.202C295.688 206.405 295.459 206.507 295.23 206.507V206.481Z" fill="white"/>
<path d="M249.57 246.909C249.367 246.909 249.163 246.833 249.011 246.655L229.272 224.754C228.992 224.449 229.017 223.993 229.322 223.713C229.628 223.434 230.086 223.46 230.365 223.764L250.104 245.666C250.384 245.97 250.359 246.427 250.054 246.706C249.901 246.833 249.748 246.884 249.57 246.884V246.909Z" fill="white"/>
<path d="M244.509 195.95C244.102 195.95 243.771 195.62 243.771 195.214V158.39C243.771 157.984 244.102 157.654 244.509 157.654C244.916 157.654 245.246 157.984 245.246 158.39V195.214C245.246 195.62 244.916 195.95 244.509 195.95Z" fill="white"/>
<path d="M192.999 155.37H117.374C101.654 155.37 88.9102 168.084 88.9102 183.768V213.917C88.9102 229.601 101.654 242.316 117.374 242.316H192.999C208.719 242.316 221.463 229.601 221.463 213.917V183.768C221.463 168.084 208.719 155.37 192.999 155.37Z" fill="white"/>
<path d="M208.235 243.052H102.137C94.4299 243.052 88.1724 236.809 88.1724 229.119V168.566C88.1724 160.877 94.4299 154.634 102.137 154.634H208.235C215.943 154.634 222.2 160.877 222.2 168.566V229.119C222.2 236.809 215.943 243.052 208.235 243.052ZM102.137 156.106C95.2439 156.106 89.6477 161.689 89.6477 168.566V229.119C89.6477 235.996 95.2439 241.58 102.137 241.58H208.235C215.129 241.58 220.725 235.996 220.725 229.119V168.566C220.725 161.689 215.129 156.106 208.235 156.106H102.137Z" fill="#221F5A"/>
<path d="M159.255 208.593C164.654 206.361 167.218 200.186 164.982 194.799C162.746 189.412 156.556 186.854 151.156 189.085C145.757 191.316 143.193 197.492 145.429 202.879C147.666 208.266 153.856 210.824 159.255 208.593Z" fill="#0085FF"/>
<path d="M149.628 148.315H108.776V108.293L121.597 95.5026H149.628V148.315Z" fill="white"/>
<path d="M149.628 149.051H108.802C108.395 149.051 108.064 148.721 108.064 148.315V108.319C108.064 108.116 108.14 107.938 108.293 107.786L121.113 94.995C121.24 94.8681 121.444 94.792 121.647 94.792H149.654C150.061 94.792 150.391 95.1219 150.391 95.528V148.34C150.391 148.746 150.061 149.076 149.654 149.076L149.628 149.051ZM109.539 147.579H148.89V96.2386H121.927L109.539 108.598V147.553V147.579Z" fill="#221F5A"/>
<path d="M121.597 109.029H108.776C108.471 109.029 108.217 108.851 108.089 108.572C107.988 108.293 108.039 107.989 108.242 107.76L121.062 94.9695C121.266 94.7665 121.597 94.6904 121.876 94.8173C122.156 94.9188 122.334 95.198 122.334 95.5025V108.293C122.334 108.699 122.004 109.029 121.597 109.029ZM110.557 107.557H120.859V97.279L110.557 107.557Z" fill="#221F5A"/>
<path d="M221.524 109.525C227.095 98.4982 222.651 85.0538 211.599 79.4959C200.547 73.9381 187.072 78.3714 181.501 89.398C175.93 100.425 180.374 113.869 191.426 119.427C202.478 124.985 215.953 120.551 221.524 109.525Z" fill="#221F5A"/>
<path d="M212.636 137.808L211.415 119.587C201.8 115.526 208.108 104.08 208.108 104.08C197.577 103.294 194.805 92.5333 193.711 86.6456C193.406 85.0213 191.727 84.057 190.175 84.6407C186.945 85.8588 182.239 87.9652 181.425 91.3913C177.584 107.405 171.275 122.962 188.649 125.855L189.081 135.549L212.661 137.808H212.636Z" fill="white"/>
<path d="M212.382 134.661C212 134.661 211.669 134.357 211.644 133.976L210.652 118.977C210.626 118.571 210.932 118.216 211.339 118.191C211.746 118.191 212.102 118.47 212.127 118.876L213.119 133.874C213.145 134.28 212.839 134.636 212.432 134.661C212.432 134.661 212.407 134.661 212.382 134.661Z" fill="#221F5A"/>
<path d="M189.056 134.103C188.674 134.103 188.344 133.798 188.318 133.418L187.911 126.464C183.307 125.601 180.153 123.774 178.296 120.932C174.531 115.171 176.871 106.136 179.339 96.5684C179.797 94.8173 180.255 93.0155 180.687 91.2136C180.687 91.1882 180.687 91.1629 180.712 91.1375C180.738 91.036 181.654 88.6504 183.612 86.2903C183.867 85.9857 184.325 85.935 184.655 86.1887C184.96 86.4425 185.011 86.8993 184.757 87.2292C183.104 89.2341 182.239 91.3151 182.111 91.6197C181.679 93.4215 181.221 95.2234 180.763 96.9491C178.372 106.187 176.134 114.917 179.542 120.145C181.247 122.759 184.248 124.383 188.751 125.119C189.081 125.17 189.336 125.449 189.361 125.804L189.793 133.316C189.793 133.722 189.514 134.077 189.107 134.103C189.107 134.103 189.081 134.103 189.056 134.103Z" fill="#221F5A"/>
<path d="M190.938 126.667C190.175 126.667 189.387 126.642 188.573 126.566C188.166 126.54 187.86 126.185 187.911 125.779C187.937 125.373 188.293 125.068 188.7 125.119C193.482 125.525 197.323 124.459 197.374 124.459C197.755 124.358 198.162 124.586 198.29 124.967C198.391 125.347 198.162 125.753 197.781 125.88C197.654 125.931 194.83 126.692 190.964 126.692L190.938 126.667Z" fill="#221F5A"/>
<path d="M189.03 132.809C189.03 132.809 190.811 134.864 193.914 133.062C197.043 131.261 198.264 124.891 198.264 124.891L188.598 125.855L189.005 132.834L189.03 132.809Z" fill="#221F5A"/>
<path d="M183.867 108.344C183.867 108.344 183.689 108.344 183.587 108.293C183.205 108.141 183.027 107.709 183.18 107.329L186.97 98.0404C187.123 97.6597 187.555 97.4821 187.937 97.6343C188.318 97.7866 188.496 98.218 188.344 98.5987L184.554 107.887C184.426 108.166 184.172 108.344 183.867 108.344Z" fill="#221F5A"/>
<path d="M213.348 106.415C213.043 110.07 209.813 112.785 206.15 112.481C202.487 112.176 199.765 108.953 200.07 105.299C200.375 101.644 203.606 98.9286 207.269 99.2331C210.932 99.5377 213.654 102.761 213.348 106.415Z" fill="white"/>
<path d="M205.386 107.684C205.208 107.684 205.056 107.633 204.903 107.506C204.598 107.253 204.547 106.771 204.827 106.466L207.549 103.268C207.803 102.964 208.286 102.913 208.592 103.192C208.897 103.446 208.948 103.928 208.668 104.233L205.946 107.43C205.793 107.608 205.59 107.684 205.386 107.684Z" fill="#221F5A"/>
<path d="M195.975 101.543C195.898 102.355 195.186 102.964 194.372 102.913C193.558 102.837 192.948 102.126 192.999 101.314C193.075 100.502 193.787 99.893 194.601 99.9438C195.415 99.9945 196.026 100.73 195.975 101.543Z" fill="#221F5A"/>
<path d="M184.223 98.8017C184.146 99.6138 183.434 100.223 182.62 100.172C181.806 100.096 181.196 99.3854 181.247 98.5733C181.323 97.7612 182.035 97.1521 182.849 97.2029C183.663 97.2537 184.274 97.9896 184.223 98.8017Z" fill="#221F5A"/>
<path d="M288.464 27.2097C288.362 24.6211 287.879 22.0579 287.014 19.5455C283.097 8.27753 271.955 1.22238 260.254 0.384901C251.427 -0.249555 241.253 2.33902 235.784 9.77485C227.415 21.1697 233.469 36.7012 225.711 48.4005C221.259 55.1258 212.432 56.2424 207.167 62.0794C199.917 70.0989 201.952 83.727 211.389 89.0818C217.342 92.4571 225.151 91.7212 230.645 87.7368C238.2 82.2805 238.811 71.6977 246.213 66.0891C250.461 62.8915 257.303 62.7646 262.187 60.912C267.555 58.8564 272.693 56.1663 277.093 52.461C284.394 46.2941 288.871 36.7012 288.464 27.2097Z" fill="#221F5A"/>
<path d="M222.277 91.7973C222.124 91.7973 221.971 91.7466 221.844 91.6451L202.995 77.8139C202.665 77.5855 202.588 77.1033 202.843 76.7734C203.072 76.4435 203.555 76.3674 203.886 76.6212L222.735 90.4523C223.065 90.6807 223.142 91.1629 222.887 91.4928C222.735 91.6958 222.531 91.7973 222.302 91.7973H222.277Z" fill="#0085FF"/>
<path d="M225.303 90.8583C224.133 90.8583 223.37 90.7822 223.268 90.7568C222.861 90.7061 222.582 90.3508 222.607 89.9447C222.658 89.5387 223.014 89.2595 223.421 89.2849C223.548 89.2849 235.122 90.4523 239.141 82.8134C240.082 81.0623 240.845 79.3874 241.583 77.7885C244.229 72.0784 246.314 67.5611 252.699 66.0892C256.26 65.2771 274.422 60.2268 282.944 41.5484C283.122 41.1677 283.554 41.0155 283.91 41.1931C284.292 41.3708 284.445 41.8022 284.266 42.1575C277.449 57.1307 263.662 65.074 253.004 67.5357C247.306 68.8554 245.45 72.8652 242.88 78.423C242.143 80.0472 241.354 81.7222 240.413 83.4986C236.979 90.0208 229.043 90.8329 225.253 90.8329L225.303 90.8583Z" fill="#221F5A"/>
<path d="M246.976 186.357L238.022 183.768C238.658 172.525 231.714 164.734 227.618 163.516C223.523 162.298 208.515 160.978 199.332 161.384C190.15 161.79 187.173 163.339 187.326 167.171C187.453 170.343 192.82 172.678 198.06 172.475C190.582 173.82 183.612 174.302 183.714 180.19C183.79 185.164 191.549 185.468 195.949 185.215C191.854 185.951 186.334 187.879 188.038 192.701C190.226 198.944 200.172 197.828 202.207 197.548C202.105 197.548 201.978 197.599 201.876 197.625C195.822 199.096 196.738 208.055 202.944 208.36C202.995 208.36 203.046 208.36 203.097 208.36C208.159 208.537 221.539 207.624 221.539 207.624C220.928 212.242 222.353 216.201 224.871 219.551C233.774 231.403 252.267 229.22 258.652 215.846L259.491 214.07C264.807 202.954 258.855 189.757 247.001 186.331L246.976 186.357Z" fill="white"/>
<path d="M240.362 228.053C233.977 228.053 228.076 225.135 224.21 220.034C221.513 216.43 220.318 212.547 220.648 208.461C217.571 208.664 207.345 209.299 203.021 209.146H202.868C199.18 208.969 197.297 206.202 197.017 203.512C196.865 201.812 197.348 199.934 198.671 198.589C198.594 198.589 198.544 198.589 198.467 198.589C194.525 198.589 188.979 197.701 187.3 193.006C186.741 191.432 186.843 189.986 187.555 188.742C188.216 187.626 189.361 186.687 190.989 185.951C188.42 185.697 185.952 185.062 184.426 183.641C183.459 182.728 182.951 181.586 182.925 180.241C182.849 175.165 187.428 173.693 192.897 172.652C189.437 171.713 186.639 169.785 186.563 167.221C186.385 162.222 191.091 161.029 199.281 160.674C208.489 160.268 223.65 161.588 227.822 162.831C231.79 164.024 239.192 171.409 238.785 183.235L247.179 185.671C253.03 187.372 257.837 191.508 260.33 197.066C262.823 202.624 262.747 208.943 260.127 214.45L259.287 216.227C256.108 222.851 249.825 227.241 242.473 227.977C241.761 228.053 241.074 228.078 240.388 228.078L240.362 228.053ZM221.488 206.913C221.691 206.913 221.895 206.989 222.022 207.141C222.175 207.294 222.251 207.522 222.225 207.751C221.691 211.76 222.76 215.592 225.405 219.145C229.348 224.399 235.682 227.14 242.321 226.48C249.163 225.794 254.988 221.709 257.939 215.567L258.779 213.791C261.22 208.69 261.297 202.802 258.957 197.65C256.642 192.498 252.19 188.641 246.747 187.067L237.793 184.479C237.462 184.377 237.233 184.073 237.259 183.717C237.869 172.881 231.256 165.369 227.389 164.227C223.319 163.009 208.439 161.714 199.332 162.12C189.692 162.552 187.911 164.227 188.013 167.145C188.114 169.683 192.947 171.916 197.984 171.739C198.366 171.739 198.696 172.018 198.747 172.399C198.798 172.779 198.518 173.135 198.137 173.211C197.348 173.363 196.56 173.49 195.771 173.617C188.674 174.81 184.324 175.774 184.375 180.19C184.375 181.129 184.731 181.89 185.418 182.525C187.071 184.047 190.862 184.783 195.847 184.479C196.229 184.453 196.585 184.732 196.61 185.139C196.661 185.519 196.381 185.874 196 185.951C193.354 186.433 189.971 187.423 188.801 189.453C188.292 190.316 188.242 191.305 188.649 192.473C190.658 198.158 200.121 197.092 202.003 196.838C202.41 196.787 202.766 197.041 202.842 197.447C202.919 197.853 202.639 198.208 202.257 198.284C202.156 198.284 202.054 198.335 201.952 198.361C199.256 199.02 198.238 201.33 198.442 203.36C198.645 205.39 200.095 207.522 202.893 207.649H203.046C208.006 207.827 221.284 206.938 221.412 206.913C221.412 206.913 221.437 206.913 221.462 206.913H221.488Z" fill="#221F5A"/>
<path d="M237.59 200.416C237.183 200.416 236.852 200.061 236.877 199.655L237.284 183.743C237.284 183.337 237.64 183.007 238.047 183.032C238.454 183.032 238.785 183.387 238.76 183.793L238.353 199.706C238.353 200.112 238.022 200.416 237.615 200.416H237.59Z" fill="#221F5A"/>
<path d="M198.01 198.741C197.628 198.741 197.323 198.462 197.272 198.081C197.221 197.675 197.527 197.32 197.933 197.269L224.566 194.325C224.973 194.275 225.329 194.579 225.38 194.985C225.431 195.391 225.126 195.747 224.719 195.797L198.086 198.741C198.086 198.741 198.035 198.741 198.01 198.741Z" fill="#221F5A"/>
<path d="M194.321 186.128C193.94 186.128 193.635 185.849 193.584 185.468C193.533 185.062 193.838 184.707 194.245 184.656L221.895 181.611C222.302 181.56 222.658 181.865 222.709 182.271C222.76 182.677 222.455 183.032 222.048 183.083L194.398 186.128C194.398 186.128 194.347 186.128 194.321 186.128Z" fill="#221F5A"/>
<path d="M198.035 173.236C197.654 173.236 197.348 172.957 197.298 172.576C197.247 172.17 197.552 171.815 197.959 171.764L219.606 169.455C220.013 169.404 220.369 169.709 220.42 170.115C220.471 170.521 220.165 170.876 219.758 170.927L198.112 173.236C198.112 173.236 198.061 173.236 198.035 173.236Z" fill="#221F5A"/>
<path d="M95.7783 181.814C95.7783 181.814 109.642 181.814 109.591 174.581C109.54 167.704 94.4047 169.937 92.8531 170.191C94.2521 169.962 105.75 167.907 105.877 162.831C106.004 157.425 96.0836 157.07 86.1631 158.72C76.2427 160.369 75.0471 167.907 77.7944 171.383C77.7944 171.383 72.5543 177.296 78.5829 182.829C78.5829 182.829 74.4112 191.381 79.1934 195.518C79.1934 195.518 71.079 205.39 89.5208 213.689V207.37C89.5208 207.37 103.308 207.395 105.139 200.391C106.513 195.188 100.23 195.061 97.2791 195.036C100.255 194.807 109.107 193.209 109.565 188.844C110.176 182.956 103.053 181.839 95.7783 181.839V181.814Z" fill="white"/>
<path d="M89.495 214.374C89.495 214.374 89.2915 214.374 89.1898 214.298C82.0674 211.1 77.9212 207.243 76.8782 202.878C76.0643 199.426 77.4633 196.686 78.1755 195.569C74.3345 191.559 76.8274 184.834 77.6414 182.956C72.7066 178.058 75.7081 172.881 76.8274 171.333C75.6064 169.455 75.3775 166.866 76.2678 164.582C77.0309 162.577 79.3202 159.075 85.9847 157.958C90.3853 157.222 101.043 155.903 105.037 159.354C106.08 160.268 106.614 161.435 106.589 162.806C106.512 165.648 103.536 167.602 100.331 168.896C103.485 168.972 106.792 169.48 108.675 171.079C109.743 171.992 110.303 173.16 110.303 174.556C110.303 176.155 109.743 177.55 108.573 178.718C107.148 180.139 105.012 181.053 102.9 181.611C105.749 182.144 107.708 183.057 108.903 184.402C109.972 185.595 110.43 187.118 110.252 188.894C109.921 192.041 106.029 193.869 102.392 194.858C103.536 195.188 104.579 195.747 105.266 196.635C106.055 197.675 106.233 198.995 105.826 200.568C104.096 207.141 93.2088 207.979 90.2327 208.08V213.689C90.2327 213.943 90.1055 214.171 89.902 214.298C89.7748 214.374 89.6476 214.425 89.495 214.425V214.374ZM95.549 158.542C92.8527 158.542 89.724 158.821 86.2391 159.405C80.2868 160.395 78.3027 163.389 77.6414 165.115C76.8528 167.12 77.1326 169.404 78.3282 170.901C78.5571 171.18 78.5317 171.586 78.3282 171.84C78.1247 172.069 73.6477 177.297 79.0658 182.245C79.2948 182.474 79.3711 182.829 79.2185 183.108C79.1676 183.184 75.352 191.204 79.6509 194.934C79.9561 195.188 79.9816 195.645 79.7272 195.95C79.7272 195.975 77.4379 198.817 78.3282 202.573C79.2185 206.253 82.7033 209.603 88.7573 212.471V207.319C88.7573 207.116 88.8337 206.938 88.9863 206.786C89.1135 206.659 89.317 206.583 89.5205 206.583C89.6985 206.583 102.748 206.507 104.427 200.162C104.732 199.02 104.63 198.157 104.121 197.498C102.824 195.797 99.0593 195.747 97.2533 195.747C96.8463 195.747 96.5411 195.417 96.5156 195.036C96.5156 194.63 96.7954 194.3 97.2024 194.275C100.687 194.021 108.446 192.244 108.827 188.742C108.98 187.372 108.649 186.28 107.861 185.392C106.131 183.489 102.188 182.575 95.778 182.575C95.4219 182.524 95.142 182.22 95.142 181.839C95.142 181.433 95.4727 181.103 95.8797 181.103C95.8797 181.103 104.325 181.053 107.657 177.703C108.547 176.814 108.954 175.799 108.954 174.606C108.954 173.642 108.573 172.855 107.835 172.221C104.961 169.81 97.2024 170.267 93.0562 170.927C92.6492 171.003 92.2677 170.724 92.2168 170.318C92.1405 169.911 92.4203 169.531 92.8273 169.48C97.4059 168.719 105.139 166.46 105.241 162.831C105.241 161.892 104.935 161.156 104.198 160.522C102.722 159.253 99.7207 158.593 95.6762 158.593L95.549 158.542Z" fill="#221F5A"/>
<path d="M77.7685 172.069C77.3869 172.069 77.0562 171.764 77.0308 171.383C77.0053 170.977 77.3106 170.622 77.7176 170.597L92.6491 169.429C93.0561 169.379 93.4122 169.709 93.4377 170.115C93.4631 170.521 93.1579 170.876 92.7509 170.901L77.8193 172.069H77.7685Z" fill="#221F5A"/>
<path d="M78.5575 183.514C78.1759 183.514 77.8453 183.21 77.8198 182.829C77.8198 182.423 78.0996 182.068 78.5066 182.042L95.7275 181.052C96.1345 181.052 96.4906 181.332 96.5161 181.738C96.5161 182.144 96.2363 182.499 95.8293 182.524L78.6084 183.514C78.6084 183.514 78.5829 183.514 78.5575 183.514Z" fill="#221F5A"/>
<path d="M79.1678 196.229C78.7609 196.229 78.4302 195.924 78.4302 195.518C78.4302 195.112 78.7354 194.782 79.1424 194.757L97.2282 194.275C97.6351 194.275 97.9658 194.579 97.9658 194.985C97.9658 195.391 97.6606 195.721 97.2536 195.747L79.1678 196.229Z" fill="#221F5A"/>
<path d="M184.197 111.871C184.197 111.871 183.943 111.871 183.816 111.871C183.409 111.846 183.104 111.465 183.154 111.059C183.18 110.653 183.561 110.349 183.968 110.399C185.851 110.577 187.046 108.674 187.072 108.648C187.275 108.293 187.733 108.192 188.089 108.395C188.445 108.598 188.547 109.054 188.318 109.41C188.242 109.511 186.767 111.871 184.223 111.871H184.197Z" fill="#221F5A"/>
</svg>
