<svg width="308" height="270" viewBox="0 0 308 270" fill="none" xmlns="http://www.w3.org/2000/svg">
<path d="M155.199 235.959L233.545 233.193C247.383 237.71 252.343 253.343 254.2 268.443H149.45L155.199 235.959Z" fill="white"/>
<path d="M149.45 269.179C149.45 269.179 149.374 269.179 149.323 269.179C148.916 269.103 148.662 268.723 148.713 268.316L154.461 235.832C154.512 235.502 154.817 235.249 155.174 235.223L233.52 232.457C233.52 232.457 233.698 232.457 233.774 232.482C245.526 236.315 252.445 248.039 254.938 268.342C254.989 268.748 254.709 269.103 254.302 269.154C253.895 269.205 253.539 268.926 253.488 268.52C251.097 248.928 244.534 237.609 233.469 233.929L155.835 236.67L150.188 268.57C150.137 268.926 149.806 269.179 149.45 269.179Z" fill="#221F5A"/>
<path d="M152.986 227.204L152.35 250.4L249.571 250.831V246.06C295.23 271.083 325.017 242.761 295.23 195.126C270.327 155.282 265.138 134.319 215.867 132.848L190.913 131.832C163.924 131.046 155.454 136.197 143.244 148.633C136.274 155.713 127.549 166.499 120.198 163.073C111.498 159.013 73.3428 161.373 78.1758 200.278C85.8578 262.302 139.937 261.617 152.986 227.229V227.204Z" fill="#221F5A"/>
<path d="M215.867 132.822L190.913 131.807C179.721 131.477 171.733 132.188 165.323 133.99C168.147 137.01 180.102 148.303 201.52 149.039C219.733 149.673 234.385 140.816 240.871 136.096C233.978 134.218 225.813 133.101 215.841 132.797L215.867 132.822Z" fill="white"/>
<path d="M153.876 114.845H40.3762C18.1697 114.845 0.109375 96.8266 0.109375 74.6714C0.109375 52.5162 18.1697 34.4976 40.3762 34.4976C43.9883 34.4976 47.5495 34.9798 51.0344 35.9188C54.1377 26.0213 60.3952 17.1389 68.7131 10.8197C77.5143 4.14526 88.0198 0.643066 99.1104 0.643066C110.201 0.643066 120.401 4.06913 129.152 10.5406C137.546 16.7582 143.676 25.2346 146.932 35.0813C149.247 34.6753 151.562 34.4723 153.851 34.4723C176.057 34.4723 194.118 52.4908 194.118 74.646C194.118 96.8012 176.057 114.82 153.851 114.82L153.876 114.845ZM40.3762 35.9696C18.9837 35.9696 1.58472 53.3283 1.58472 74.6714C1.58472 96.0145 18.9837 113.373 40.3762 113.373H153.851C175.243 113.373 192.642 96.0145 192.642 74.6714C192.642 53.3283 175.243 35.9696 153.851 35.9696C151.434 35.9696 148.967 36.198 146.55 36.6548C146.194 36.7309 145.813 36.5025 145.711 36.1472C139.275 15.7939 120.554 2.115 99.1358 2.115C77.7178 2.115 58.3602 16.4791 52.2553 37.0355C52.1281 37.4161 51.7211 37.6445 51.3396 37.543C47.7784 36.5025 44.09 35.9696 40.4017 35.9696H40.3762Z" fill="#221F5A"/>
<path d="M85.7558 63.971V25.5483H108.497V63.971H123.733L110.43 81.9134L97.1262 99.8558L83.8226 81.9134L70.519 63.971H85.7558Z" fill="#0085FF"/>
<path d="M280.807 256.084C271.828 256.084 261.297 253.14 250.308 247.278V250.806C250.308 251.009 250.232 251.186 250.079 251.339C249.952 251.465 249.749 251.542 249.57 251.542L152.35 251.11C152.147 251.11 151.969 251.034 151.816 250.882C151.689 250.729 151.612 250.552 151.612 250.349L152.147 230.96C149.018 237.33 144.337 242.532 138.436 246.136C131.772 250.222 123.886 251.948 116.204 251.034C106.894 249.917 98.449 245.146 91.7845 237.254C84.1788 228.244 79.3457 215.809 77.438 200.328C75.1741 181.98 82.5508 172.438 89.139 167.666C100.128 159.698 115.415 159.977 120.503 162.362C126.455 165.129 133.654 157.566 139.988 150.891C140.903 149.927 141.819 148.963 142.684 148.074C154.639 135.893 163.288 130.259 190.887 131.046L215.841 132.061C259.033 133.38 268.928 149.902 286.861 179.95C289.659 184.619 292.534 189.441 295.815 194.694C302.912 206.038 307.033 217.078 307.77 226.569C308.457 235.528 306.193 243.014 301.208 248.268C296.273 253.47 289.176 256.059 280.756 256.059L280.807 256.084ZM249.57 245.324C249.57 245.324 249.825 245.349 249.927 245.425C271.065 256.998 290.321 257.734 300.19 247.303C304.871 242.355 307.007 235.249 306.346 226.722C305.634 217.433 301.564 206.647 294.619 195.506C291.338 190.253 288.438 185.406 285.64 180.736C267.402 150.181 258.245 134.852 215.841 133.558L190.887 132.543C163.771 131.756 155.708 136.984 143.778 149.115C142.913 150.003 141.997 150.942 141.081 151.907C134.392 158.936 126.811 166.93 119.892 163.707C115.059 161.449 100.535 161.22 90.0039 168.859C80.9991 175.381 77.1836 186.193 78.9133 200.151C80.7956 215.352 85.5015 227.534 92.9291 236.315C99.3393 243.928 107.454 248.496 116.382 249.562C132 251.44 146.423 242.329 152.299 226.899C152.426 226.569 152.783 226.366 153.139 226.442C153.495 226.519 153.749 226.823 153.724 227.178L153.113 249.638L248.833 250.044V246.009C248.833 245.755 248.96 245.502 249.189 245.375C249.316 245.298 249.443 245.273 249.57 245.273V245.324Z" fill="#221F5A"/>
<path d="M160.464 200.988C160.312 200.988 160.159 200.937 160.032 200.861C154.741 197.156 151.562 191.116 151.562 184.67C151.562 176.65 156.369 169.468 163.797 166.398C164.178 166.245 164.611 166.398 164.763 166.804C164.916 167.184 164.763 167.616 164.356 167.768C157.463 170.61 153.011 177.234 153.011 184.67C153.011 190.634 155.937 196.242 160.846 199.668C161.177 199.897 161.253 200.354 161.024 200.684C160.871 200.887 160.643 200.988 160.414 200.988H160.464Z" fill="#221F5A"/>
<path d="M164.84 158.302C164.84 157.895 164.509 157.566 164.102 157.566C163.695 157.566 163.364 157.895 163.364 158.302V167.083C163.364 167.489 163.695 167.819 164.102 167.819C164.509 167.819 164.84 167.489 164.84 167.083V158.302Z" fill="#221F5A"/>
<path d="M157.361 220.149C157.361 220.149 157.285 220.149 157.234 220.149C156.827 220.073 156.547 219.717 156.623 219.311L159.727 200.151C159.803 199.745 160.159 199.465 160.566 199.542C160.973 199.618 161.253 199.973 161.177 200.379L158.073 219.54C158.022 219.895 157.692 220.149 157.336 220.149H157.361Z" fill="#221F5A"/>
<path d="M295.23 206.368C295.077 206.368 294.925 206.317 294.797 206.241C272.413 190.126 249.723 187.969 249.494 187.944C249.087 187.918 248.782 187.563 248.833 187.157C248.858 186.751 249.24 186.446 249.621 186.497C249.85 186.497 272.922 188.68 295.662 205.074C295.993 205.302 296.069 205.784 295.84 206.089C295.688 206.292 295.459 206.394 295.23 206.394V206.368Z" fill="white"/>
<path d="M249.57 246.796C249.367 246.796 249.163 246.72 249.011 246.542L229.272 224.641C228.992 224.336 229.017 223.879 229.322 223.6C229.628 223.321 230.086 223.346 230.365 223.651L250.104 245.552C250.384 245.857 250.359 246.314 250.054 246.593C249.901 246.72 249.748 246.771 249.57 246.771V246.796Z" fill="white"/>
<path d="M244.509 195.836C244.102 195.836 243.771 195.506 243.771 195.1V158.276C243.771 157.87 244.102 157.541 244.509 157.541C244.916 157.541 245.246 157.87 245.246 158.276V195.1C245.246 195.506 244.916 195.836 244.509 195.836Z" fill="white"/>
<path d="M192.999 155.257H117.374C101.654 155.257 88.9102 167.971 88.9102 183.655V213.804C88.9102 229.488 101.654 242.202 117.374 242.202H192.999C208.719 242.202 221.463 229.488 221.463 213.804V183.655C221.463 167.971 208.719 155.257 192.999 155.257Z" fill="white"/>
<path d="M208.235 242.938H102.137C94.4299 242.938 88.1724 236.695 88.1724 229.006V168.453C88.1724 160.764 94.4299 154.521 102.137 154.521H208.235C215.943 154.521 222.2 160.764 222.2 168.453V229.006C222.2 236.695 215.943 242.938 208.235 242.938ZM102.137 155.992C95.2439 155.992 89.6477 161.576 89.6477 168.453V229.006C89.6477 235.883 95.2439 241.466 102.137 241.466H208.235C215.129 241.466 220.725 235.883 220.725 229.006V168.453C220.725 161.576 215.129 155.992 208.235 155.992H102.137Z" fill="#221F5A"/>
<path d="M159.255 208.479C164.654 206.248 167.218 200.072 164.982 194.685C162.746 189.299 156.556 186.741 151.156 188.972C145.757 191.203 143.193 197.379 145.429 202.766C147.666 208.153 153.856 210.711 159.255 208.479Z" fill="#0085FF"/>
<path d="M149.628 148.202H108.776V108.18L121.597 95.3894H149.628V148.202Z" fill="white"/>
<path d="M149.628 148.938H108.802C108.395 148.938 108.064 148.608 108.064 148.202V108.206C108.064 108.003 108.14 107.825 108.293 107.673L121.113 94.882C121.24 94.7551 121.444 94.679 121.647 94.679H149.654C150.061 94.679 150.391 95.0089 150.391 95.4149V148.227C150.391 148.633 150.061 148.963 149.654 148.963L149.628 148.938ZM109.539 147.466H148.89V96.1255H121.927L109.539 108.485V147.44V147.466Z" fill="#221F5A"/>
<path d="M121.597 108.916H108.776C108.471 108.916 108.217 108.738 108.089 108.459C107.988 108.18 108.039 107.875 108.242 107.647L121.062 94.8564C121.266 94.6534 121.597 94.5772 121.876 94.7041C122.156 94.8056 122.334 95.0848 122.334 95.3893V108.18C122.334 108.586 122.004 108.916 121.597 108.916ZM110.557 107.444H120.859V97.1658L110.557 107.444Z" fill="#221F5A"/>
<path d="M221.524 109.411C227.095 98.3848 222.651 84.9404 211.599 79.3825C200.547 73.8247 187.072 78.258 181.501 89.2846C175.93 100.311 180.374 113.756 191.426 119.313C202.478 124.871 215.953 120.438 221.524 109.411Z" fill="#221F5A"/>
<path d="M212.636 137.695L211.415 119.473C201.8 115.413 208.108 103.967 208.108 103.967C197.577 103.18 194.805 92.42 193.711 86.5323C193.406 84.9081 191.727 83.9437 190.175 84.5274C186.945 85.7455 182.239 87.8519 181.425 91.278C177.584 107.292 171.275 122.849 188.649 125.742L189.081 135.436L212.661 137.695H212.636Z" fill="white"/>
<path d="M212.382 134.548C212 134.548 211.669 134.243 211.644 133.863L210.652 118.864C210.626 118.458 210.932 118.103 211.339 118.077C211.746 118.077 212.102 118.357 212.127 118.763L213.119 133.761C213.145 134.167 212.839 134.522 212.432 134.548C212.432 134.548 212.407 134.548 212.382 134.548Z" fill="#221F5A"/>
<path d="M189.056 133.99C188.674 133.99 188.344 133.685 188.318 133.304L187.911 126.351C183.307 125.488 180.153 123.661 178.296 120.818C174.531 115.057 176.871 106.023 179.339 96.4552C179.797 94.7041 180.255 92.9022 180.687 91.1003C180.687 91.075 180.687 91.0496 180.712 91.0242C180.738 90.9227 181.654 88.5371 183.612 86.177C183.867 85.8724 184.325 85.8217 184.655 86.0755C184.96 86.3292 185.011 86.786 184.757 87.116C183.104 89.1208 182.239 91.2019 182.111 91.5064C181.679 93.3083 181.221 95.1101 180.763 96.8358C178.372 106.073 176.134 114.804 179.542 120.032C181.247 122.645 184.248 124.27 188.751 125.006C189.081 125.056 189.336 125.336 189.361 125.691L189.793 133.203C189.793 133.609 189.514 133.964 189.107 133.99C189.107 133.99 189.081 133.99 189.056 133.99Z" fill="#221F5A"/>
<path d="M190.938 126.554C190.175 126.554 189.387 126.528 188.573 126.452C188.166 126.427 187.86 126.072 187.911 125.666C187.937 125.26 188.293 124.955 188.7 125.006C193.482 125.412 197.323 124.346 197.374 124.346C197.755 124.244 198.162 124.473 198.29 124.853C198.391 125.234 198.162 125.64 197.781 125.767C197.654 125.818 194.83 126.579 190.964 126.579L190.938 126.554Z" fill="#221F5A"/>
<path d="M189.03 132.695C189.03 132.695 190.811 134.751 193.914 132.949C197.043 131.147 198.264 124.777 198.264 124.777L188.598 125.742L189.005 132.721L189.03 132.695Z" fill="#221F5A"/>
<path d="M183.867 108.231C183.867 108.231 183.689 108.231 183.587 108.18C183.205 108.028 183.027 107.596 183.18 107.215L186.97 97.927C187.123 97.5463 187.555 97.3687 187.937 97.5209C188.318 97.6732 188.496 98.1046 188.344 98.4853L184.554 107.774C184.426 108.053 184.172 108.231 183.867 108.231Z" fill="#221F5A"/>
<path d="M213.348 106.302C213.043 109.956 209.813 112.672 206.15 112.367C202.487 112.063 199.765 108.84 200.07 105.185C200.375 101.531 203.606 98.8154 207.269 99.12C210.932 99.4245 213.654 102.648 213.348 106.302Z" fill="white"/>
<path d="M205.386 107.571C205.208 107.571 205.056 107.52 204.903 107.393C204.598 107.139 204.547 106.657 204.827 106.353L207.549 103.155C207.803 102.85 208.286 102.8 208.592 103.079C208.897 103.333 208.948 103.815 208.668 104.119L205.946 107.317C205.793 107.495 205.59 107.571 205.386 107.571Z" fill="#221F5A"/>
<path d="M195.975 101.429C195.898 102.241 195.186 102.85 194.372 102.8C193.558 102.723 192.948 102.013 192.999 101.201C193.075 100.389 193.787 99.7796 194.601 99.8303C195.415 99.8811 196.026 100.617 195.975 101.429Z" fill="#221F5A"/>
<path d="M184.223 98.6885C184.146 99.5006 183.434 100.11 182.62 100.059C181.806 99.9827 181.196 99.2722 181.247 98.4601C181.323 97.6479 182.035 97.0389 182.849 97.0896C183.663 97.1404 184.274 97.8764 184.223 98.6885Z" fill="#221F5A"/>
<path d="M288.464 27.0964C288.362 24.5078 287.879 21.9446 287.014 19.4322C283.097 8.16425 271.955 1.1091 260.254 0.271619C251.427 -0.362837 241.253 2.22574 235.784 9.66156C227.415 21.0564 233.469 36.5879 225.711 48.2872C221.259 55.0125 212.432 56.1291 207.167 61.9661C199.917 69.9856 201.952 83.6137 211.389 88.9686C217.342 92.3439 225.151 91.6079 230.645 87.6235C238.2 82.1672 238.811 71.5845 246.213 65.9759C250.461 62.7782 257.303 62.6513 262.187 60.7987C267.555 58.7431 272.693 56.053 277.093 52.3478C284.394 46.1808 288.871 36.5879 288.464 27.0964Z" fill="#221F5A"/>
<path d="M222.277 91.6841C222.124 91.6841 221.971 91.6333 221.844 91.5318L202.995 77.7007C202.665 77.4722 202.588 76.9901 202.843 76.6601C203.072 76.3302 203.555 76.2541 203.886 76.5079L222.735 90.339C223.065 90.5674 223.142 91.0496 222.887 91.3795C222.735 91.5825 222.531 91.6841 222.302 91.6841H222.277Z" fill="#0085FF"/>
<path d="M225.303 90.745C224.133 90.745 223.37 90.6689 223.268 90.6435C222.861 90.5928 222.582 90.2375 222.607 89.8314C222.658 89.4254 223.014 89.1462 223.421 89.1716C223.548 89.1716 235.122 90.339 239.141 82.7001C240.082 80.949 240.845 79.2741 241.583 77.6753C244.229 71.9652 246.314 67.4478 252.699 65.9759C256.26 65.1638 274.422 60.1135 282.944 41.4351C283.122 41.0545 283.554 40.9022 283.91 41.0798C284.292 41.2575 284.445 41.6889 284.266 42.0442C277.449 57.0174 263.662 64.9608 253.004 67.4225C247.306 68.7421 245.45 72.7519 242.88 78.3097C242.143 79.9339 241.354 81.6089 240.413 83.3854C236.979 89.9076 229.043 90.7197 225.253 90.7197L225.303 90.745Z" fill="#221F5A"/>
<path d="M246.976 186.243L238.022 183.655C238.658 172.412 231.714 164.621 227.618 163.403C223.523 162.185 208.515 160.865 199.332 161.271C190.15 161.677 187.173 163.225 187.326 167.057C187.453 170.23 192.82 172.565 198.06 172.362C190.582 173.707 183.612 174.189 183.714 180.077C183.79 185.051 191.549 185.355 195.949 185.101C191.854 185.837 186.334 187.766 188.038 192.588C190.226 198.831 200.172 197.714 202.207 197.435C202.105 197.435 201.978 197.486 201.876 197.511C195.822 198.983 196.738 207.942 202.944 208.246C202.995 208.246 203.046 208.246 203.097 208.246C208.159 208.424 221.539 207.51 221.539 207.51C220.928 212.129 222.353 216.088 224.871 219.438C233.774 231.29 252.267 229.107 258.652 215.733L259.491 213.956C264.807 202.841 258.855 189.644 247.001 186.218L246.976 186.243Z" fill="white"/>
<path d="M240.362 227.94C233.977 227.94 228.076 225.021 224.21 219.92C221.513 216.317 220.318 212.434 220.648 208.348C217.571 208.551 207.345 209.185 203.021 209.033H202.868C199.18 208.856 197.297 206.089 197.017 203.399C196.865 201.699 197.348 199.821 198.671 198.476C198.594 198.476 198.544 198.476 198.467 198.476C194.525 198.476 188.979 197.588 187.3 192.893C186.741 191.319 186.843 189.873 187.555 188.629C188.216 187.512 189.361 186.573 190.989 185.837C188.42 185.584 185.952 184.949 184.426 183.528C183.459 182.614 182.951 181.472 182.925 180.127C182.849 175.052 187.428 173.58 192.897 172.539C189.437 171.6 186.639 169.672 186.563 167.108C186.385 162.109 191.091 160.916 199.281 160.561C208.489 160.155 223.65 161.474 227.822 162.718C231.79 163.911 239.192 171.296 238.785 183.122L247.179 185.558C253.03 187.259 257.837 191.395 260.33 196.953C262.823 202.511 262.747 208.83 260.127 214.337L259.287 216.114C256.108 222.737 249.825 227.128 242.473 227.864C241.761 227.94 241.074 227.965 240.388 227.965L240.362 227.94ZM221.488 206.8C221.691 206.8 221.895 206.876 222.022 207.028C222.175 207.181 222.251 207.409 222.225 207.637C221.691 211.647 222.76 215.479 225.405 219.032C229.348 224.285 235.682 227.026 242.321 226.367C249.163 225.681 254.988 221.595 257.939 215.454L258.779 213.677C261.22 208.576 261.297 202.689 258.957 197.537C256.642 192.385 252.19 188.528 246.747 186.954L237.793 184.366C237.462 184.264 237.233 183.959 237.259 183.604C237.869 172.768 231.256 165.256 227.389 164.114C223.319 162.896 208.439 161.601 199.332 162.007C189.692 162.439 187.911 164.114 188.013 167.032C188.114 169.57 192.947 171.803 197.984 171.626C198.366 171.626 198.696 171.905 198.747 172.285C198.798 172.666 198.518 173.021 198.137 173.098C197.348 173.25 196.56 173.377 195.771 173.504C188.674 174.696 184.324 175.661 184.375 180.077C184.375 181.016 184.731 181.777 185.418 182.411C187.071 183.934 190.862 184.67 195.847 184.366C196.229 184.34 196.585 184.619 196.61 185.025C196.661 185.406 196.381 185.761 196 185.837C193.354 186.32 189.971 187.309 188.801 189.34C188.292 190.203 188.242 191.192 188.649 192.36C190.658 198.044 200.121 196.979 202.003 196.725C202.41 196.674 202.766 196.928 202.842 197.334C202.919 197.74 202.639 198.095 202.257 198.171C202.156 198.171 202.054 198.222 201.952 198.247C199.256 198.907 198.238 201.217 198.442 203.247C198.645 205.277 200.095 207.409 202.893 207.536H203.046C208.006 207.714 221.284 206.825 221.412 206.8C221.412 206.8 221.437 206.8 221.462 206.8H221.488Z" fill="#221F5A"/>
<path d="M237.59 200.303C237.183 200.303 236.852 199.948 236.877 199.542L237.284 183.629C237.284 183.223 237.64 182.893 238.047 182.919C238.454 182.919 238.785 183.274 238.76 183.68L238.353 199.592C238.353 199.998 238.022 200.303 237.615 200.303H237.59Z" fill="#221F5A"/>
<path d="M198.01 198.628C197.628 198.628 197.323 198.349 197.272 197.968C197.221 197.562 197.527 197.207 197.933 197.156L224.566 194.212C224.973 194.161 225.329 194.466 225.38 194.872C225.431 195.278 225.126 195.633 224.719 195.684L198.086 198.628C198.086 198.628 198.035 198.628 198.01 198.628Z" fill="#221F5A"/>
<path d="M194.321 186.015C193.94 186.015 193.635 185.736 193.584 185.355C193.533 184.949 193.838 184.594 194.245 184.543L221.895 181.498C222.302 181.447 222.658 181.752 222.709 182.158C222.76 182.564 222.455 182.919 222.048 182.97L194.398 186.015C194.398 186.015 194.347 186.015 194.321 186.015Z" fill="#221F5A"/>
<path d="M198.035 173.123C197.654 173.123 197.348 172.844 197.298 172.463C197.247 172.057 197.552 171.702 197.959 171.651L219.606 169.341C220.013 169.291 220.369 169.595 220.42 170.001C220.471 170.407 220.165 170.763 219.758 170.813L198.112 173.123C198.112 173.123 198.061 173.123 198.035 173.123Z" fill="#221F5A"/>
<path d="M95.7783 181.701C95.7783 181.701 109.642 181.701 109.591 174.468C109.54 167.59 94.4047 169.824 92.8531 170.077C94.2521 169.849 105.75 167.793 105.877 162.718C106.004 157.312 96.0836 156.957 86.1631 158.606C76.2427 160.256 75.0471 167.793 77.7944 171.27C77.7944 171.27 72.5543 177.183 78.5829 182.716C78.5829 182.716 74.4112 191.268 79.1934 195.405C79.1934 195.405 71.079 205.277 89.5208 213.576V207.257C89.5208 207.257 103.308 207.282 105.139 200.278C106.513 195.075 100.23 194.948 97.2791 194.923C100.255 194.694 109.107 193.095 109.565 188.73C110.176 182.843 103.053 181.726 95.7783 181.726V181.701Z" fill="white"/>
<path d="M89.495 214.261C89.495 214.261 89.2915 214.261 89.1898 214.185C82.0674 210.987 77.9212 207.13 76.8782 202.765C76.0643 199.313 77.4633 196.572 78.1755 195.456C74.3345 191.446 76.8274 184.721 77.6414 182.843C72.7066 177.945 75.7081 172.768 76.8274 171.22C75.6064 169.342 75.3775 166.753 76.2678 164.469C77.0309 162.464 79.3202 158.962 85.9847 157.845C90.3853 157.109 101.043 155.79 105.037 159.241C106.08 160.155 106.614 161.322 106.589 162.692C106.512 165.535 103.536 167.489 100.331 168.783C103.485 168.859 106.792 169.367 108.675 170.966C109.743 171.879 110.303 173.047 110.303 174.443C110.303 176.041 109.743 177.437 108.573 178.605C107.148 180.026 105.012 180.939 102.9 181.498C105.749 182.031 107.708 182.944 108.903 184.289C109.972 185.482 110.43 187.005 110.252 188.781C109.921 191.928 106.029 193.755 102.392 194.745C103.536 195.075 104.579 195.633 105.266 196.522C106.055 197.562 106.233 198.882 105.826 200.455C104.096 207.028 93.2088 207.866 90.2327 207.967V213.576C90.2327 213.83 90.1055 214.058 89.902 214.185C89.7748 214.261 89.6476 214.312 89.495 214.312V214.261ZM95.549 158.429C92.8527 158.429 89.724 158.708 86.2391 159.292C80.2868 160.281 78.3027 163.276 77.6414 165.002C76.8528 167.007 77.1326 169.291 78.3282 170.788C78.5571 171.067 78.5317 171.473 78.3282 171.727C78.1247 171.955 73.6477 177.183 79.0658 182.132C79.2948 182.361 79.3711 182.716 79.2185 182.995C79.1676 183.071 75.352 191.091 79.6509 194.821C79.9561 195.075 79.9816 195.532 79.7272 195.836C79.7272 195.862 77.4379 198.704 78.3282 202.46C79.2185 206.14 82.7033 209.49 88.7573 212.358V207.206C88.7573 207.003 88.8337 206.825 88.9863 206.673C89.1135 206.546 89.317 206.47 89.5205 206.47C89.6985 206.47 102.748 206.394 104.427 200.049C104.732 198.907 104.63 198.044 104.121 197.384C102.824 195.684 99.0593 195.633 97.2533 195.633C96.8463 195.633 96.5411 195.303 96.5156 194.923C96.5156 194.517 96.7954 194.187 97.2024 194.161C100.687 193.908 108.446 192.131 108.827 188.629C108.98 187.259 108.649 186.167 107.861 185.279C106.131 183.376 102.188 182.462 95.778 182.462C95.4219 182.411 95.142 182.107 95.142 181.726C95.142 181.32 95.4727 180.99 95.8797 180.99C95.8797 180.99 104.325 180.939 107.657 177.589C108.547 176.701 108.954 175.686 108.954 174.493C108.954 173.529 108.573 172.742 107.835 172.108C104.961 169.697 97.2024 170.154 93.0562 170.813C92.6492 170.89 92.2677 170.61 92.2168 170.204C92.1405 169.798 92.4203 169.418 92.8273 169.367C97.4059 168.606 105.139 166.347 105.241 162.718C105.241 161.779 104.935 161.043 104.198 160.408C102.722 159.139 99.7207 158.48 95.6762 158.48L95.549 158.429Z" fill="#221F5A"/>
<path d="M77.7685 171.955C77.3869 171.955 77.0562 171.651 77.0308 171.27C77.0053 170.864 77.3106 170.509 77.7176 170.483L92.6491 169.316C93.0561 169.265 93.4122 169.595 93.4377 170.001C93.4631 170.407 93.1579 170.763 92.7509 170.788L77.8193 171.955H77.7685Z" fill="#221F5A"/>
<path d="M78.5575 183.401C78.1759 183.401 77.8453 183.096 77.8198 182.716C77.8198 182.31 78.0996 181.954 78.5066 181.929L95.7275 180.939C96.1345 180.939 96.4906 181.218 96.5161 181.624C96.5161 182.03 96.2363 182.386 95.8293 182.411L78.6084 183.401C78.6084 183.401 78.5829 183.401 78.5575 183.401Z" fill="#221F5A"/>
<path d="M79.1678 196.116C78.7609 196.116 78.4302 195.811 78.4302 195.405C78.4302 194.999 78.7354 194.669 79.1424 194.644L97.2282 194.161C97.6351 194.161 97.9658 194.466 97.9658 194.872C97.9658 195.278 97.6606 195.608 97.2536 195.633L79.1678 196.116Z" fill="#221F5A"/>
<path d="M184.197 111.758C184.197 111.758 183.943 111.758 183.816 111.758C183.409 111.733 183.104 111.352 183.154 110.946C183.18 110.54 183.561 110.235 183.968 110.286C185.851 110.464 187.046 108.56 187.072 108.535C187.275 108.18 187.733 108.078 188.089 108.281C188.445 108.484 188.547 108.941 188.318 109.296C188.242 109.398 186.767 111.758 184.223 111.758H184.197Z" fill="#221F5A"/>
</svg>
