<svg width="293" height="270" viewBox="0 0 293 270" fill="none" xmlns="http://www.w3.org/2000/svg">
<g clip-path="url(#clip0_329_2075)">
<path d="M217.81 1.22681H53.9229V106.525H217.81C246.879 106.525 270.452 82.9542 270.452 53.8895C270.452 24.8247 246.906 1.22681 217.81 1.22681Z" fill="white"/>
<path d="M217.81 107.459H53.9229C53.4009 107.459 52.9888 107.047 52.9888 106.525V1.22675C52.9888 0.704796 53.4009 0.292725 53.9229 0.292725H217.81C247.346 0.292725 271.386 24.3302 271.386 53.862C271.386 83.3937 247.346 107.431 217.81 107.431V107.459ZM54.8571 105.591H217.81C246.329 105.591 269.546 82.4048 269.546 53.862C269.546 25.3192 246.329 2.16078 217.81 2.16078H54.8571V105.591Z" fill="#221F5A"/>
<path d="M53.9228 106.497C82.9961 106.497 106.565 82.9316 106.565 53.862C106.565 24.7924 82.9961 1.22681 53.9228 1.22681C24.8495 1.22681 1.28101 24.7924 1.28101 53.862C1.28101 82.9316 24.8495 106.497 53.9228 106.497Z" fill="#0085FF"/>
<path d="M53.9229 107.459C24.3874 107.459 0.346924 83.4212 0.346924 53.862C0.346924 24.3027 24.3874 0.292725 53.9229 0.292725C83.4583 0.292725 107.499 24.3302 107.499 53.862C107.499 83.3937 83.4583 107.431 53.9229 107.431V107.459ZM53.9229 2.16078C25.404 2.16078 2.21521 25.3466 2.21521 53.862C2.21521 82.3773 25.4315 105.591 53.9504 105.591C82.4692 105.591 105.685 82.3773 105.685 53.862C105.685 25.3466 82.4418 2.16078 53.9229 2.16078Z" fill="#221F5A"/>
<path d="M217.81 129.436H53.9229V234.734H217.81C246.879 234.734 270.452 211.163 270.452 182.098C270.452 153.034 246.879 129.463 217.81 129.463V129.436Z" fill="white"/>
<path d="M217.81 235.668H53.9229C53.4009 235.668 52.9888 235.256 52.9888 234.734V129.436C52.9888 128.914 53.4009 128.502 53.9229 128.502H217.81C247.346 128.502 271.386 152.539 271.386 182.071C271.386 211.603 247.346 235.64 217.81 235.64V235.668ZM54.8571 233.8H217.81C246.329 233.8 269.546 210.614 269.546 182.071C269.546 153.528 246.329 130.342 217.81 130.342H54.8571V233.772V233.8Z" fill="#221F5A"/>
<path d="M53.9228 234.734C82.9961 234.734 106.565 211.168 106.565 182.098C106.565 153.029 82.9961 129.463 53.9228 129.463C24.8495 129.463 1.28101 153.029 1.28101 182.098C1.28101 211.168 24.8495 234.734 53.9228 234.734Z" fill="white"/>
<path d="M53.9229 235.667C24.3874 235.667 0.346924 211.63 0.346924 182.098C0.346924 152.566 24.3874 128.529 53.9229 128.529C83.4583 128.529 107.499 152.566 107.499 182.098C107.499 211.63 83.4583 235.667 53.9229 235.667ZM53.9229 130.37C25.404 130.37 2.18774 153.583 2.18774 182.098C2.18774 210.613 25.404 233.827 53.9229 233.827C82.4418 233.827 105.658 210.613 105.658 182.098C105.658 153.583 82.4692 130.37 53.9229 130.37Z" fill="#221F5A"/>
<path d="M44.4165 69.3834C44.1692 69.3834 43.9494 69.3009 43.7571 69.1086L26.5578 52.3786C26.2006 52.0214 26.1732 51.4171 26.5578 51.0599C26.915 50.7028 27.5194 50.6753 27.8766 51.0599L44.4439 67.1582L79.6667 33.6156C80.0514 33.2585 80.6283 33.2859 80.9855 33.6431C81.3427 34.0277 81.3152 34.6046 80.958 34.9617L45.0759 69.1361C44.8835 69.3009 44.6637 69.3834 44.4439 69.3834H44.4165Z" fill="white"/>
<path d="M78.7603 207.867C78.513 207.867 78.2932 207.784 78.1008 207.592L28.4263 157.924C28.0692 157.567 28.0692 156.962 28.4263 156.605C28.7835 156.248 29.3879 156.248 29.7451 156.605L79.4196 206.273C79.7768 206.63 79.7768 207.235 79.4196 207.592C79.2273 207.784 79.0075 207.867 78.7603 207.867Z" fill="#221F5A"/>
<path d="M29.0857 207.867C28.8384 207.867 28.6187 207.784 28.4263 207.592C28.0692 207.235 28.0692 206.63 28.4263 206.273L78.1008 156.605C78.458 156.248 79.0625 156.248 79.4196 156.605C79.7768 156.962 79.7768 157.567 79.4196 157.924L29.7451 207.592C29.5528 207.784 29.333 207.867 29.0857 207.867Z" fill="#221F5A"/>
<path d="M266.716 162.017C265.424 160.781 264.463 159.27 263.886 157.567C260.726 148.199 249.104 115.096 236.246 93.9977C221.163 69.1911 203.496 82.1301 203.496 82.1301C188.66 65.1802 171.103 77.5973 171.103 77.5973C154.976 62.2957 140.332 70.0427 132.281 77.0754C103.872 27.8191 92.9923 17.5448 81.2606 22.7369C66.8363 29.1103 66.7813 40.7032 84.063 73.2568C89.3931 83.3114 112.032 123.035 112.032 123.035C112.032 123.035 99.5863 111.854 79.3373 111.882C57.7696 111.882 52.2746 135.864 72.7159 146.138C91.5362 155.589 110.247 169.764 122.528 185.615C132.941 199.048 155.113 206.823 165.663 211.823C167.642 212.757 169.29 214.268 170.416 216.136L185.006 240.42C201.573 267.974 237.51 276.655 264.793 259.65C296.636 239.816 301.307 195.312 274.271 169.297L266.716 162.044V162.017Z" fill="white"/>
<path d="M234.488 269.293C229.899 269.293 225.256 268.743 220.668 267.645C205.309 263.936 192.341 254.431 184.209 240.887L169.62 216.603C168.576 214.872 167.064 213.498 165.251 212.647C163.41 211.768 161.185 210.806 158.794 209.762C147.53 204.845 130.495 197.428 121.758 186.164C110.164 171.22 92.1405 156.935 72.2762 146.935C62.4127 141.99 57.3848 133.172 59.4454 124.491C61.3962 116.25 69.199 110.92 79.3372 110.893H79.3922C93.5967 110.893 103.9 116.222 109.038 119.601C103.213 109.354 87.5247 81.7455 83.2387 73.6689C71.5893 51.6918 67.9352 39.4945 70.6827 31.5552C72.1388 27.3796 75.3809 24.2753 80.8758 21.8578C87.5797 18.8909 93.6791 20.9787 101.18 28.8081C108.735 36.6924 118.132 50.7303 132.529 75.6194C140.386 69.1086 155.085 61.554 171.213 76.416C174.565 74.3832 190.198 66.1967 203.661 80.9214C205.612 79.7401 211.299 76.8006 218.442 78.2017C225.448 79.6027 231.713 84.7399 237.043 93.5033C249.901 114.629 261.523 147.649 264.765 157.264C265.287 158.803 266.166 160.204 267.348 161.33L274.903 168.583C288.009 181.192 294.41 198.774 292.515 216.85C290.619 234.926 280.7 250.805 265.26 260.392C255.863 266.243 245.23 269.265 234.46 269.265L234.488 269.293ZM79.3647 112.788H79.3098C70.0782 112.788 62.9897 117.568 61.2313 124.958C59.3905 132.76 64.0337 140.754 73.1004 145.314C93.212 155.424 111.483 169.929 123.242 185.065C131.677 195.944 148.464 203.252 159.564 208.087C161.954 209.13 164.207 210.119 166.048 210.998C168.191 212.015 169.977 213.636 171.213 215.669L185.802 239.953C193.688 253.057 206.216 262.26 221.107 265.859C235.999 269.43 251.33 266.958 264.325 258.881C279.244 249.568 288.86 234.212 290.701 216.713C292.542 199.213 286.305 182.181 273.639 169.984L266.084 162.731C264.71 161.413 263.639 159.737 263.034 157.924C259.792 148.364 248.253 115.48 235.477 94.5197C230.421 86.2233 224.597 81.3609 218.113 80.0697C210.255 78.5039 204.128 82.8718 204.046 82.9268C203.661 83.2015 203.111 83.1465 202.809 82.7894C188.715 66.6912 172.34 77.8995 171.653 78.394C171.296 78.6412 170.801 78.6138 170.471 78.3116C155.388 63.999 141.705 70.1251 132.886 77.8171C132.666 78.0094 132.391 78.0918 132.116 78.0369C131.842 77.9819 131.594 77.8171 131.457 77.5698C104.367 30.6212 93.1846 18.5063 81.6176 23.616C76.6172 25.8137 73.7049 28.5609 72.4136 32.2146C69.8859 39.5219 73.595 51.6643 84.8597 72.8448C90.1349 82.7619 112.609 122.183 112.829 122.595C113.049 123.008 112.966 123.502 112.609 123.777C112.252 124.051 111.73 124.051 111.4 123.749C111.29 123.639 98.9818 112.816 79.3647 112.816V112.788Z" fill="#221F5A"/>
<path d="M274.271 169.297L267.815 163.088C270.754 186.027 260.781 210.092 239.158 223.553C219.074 236.052 194.622 235.64 175.499 224.624L184.978 240.393C201.545 267.947 237.482 276.628 264.765 259.623C296.608 239.789 301.279 195.285 274.244 169.269L274.271 169.297Z" fill="#221F5A"/>
<path d="M124.039 145.369C123.709 145.369 123.407 145.204 123.215 144.902L111.208 123.502C110.961 123.062 111.126 122.486 111.565 122.238C112.005 121.991 112.582 122.156 112.829 122.595L124.836 143.996C125.083 144.435 124.918 145.012 124.478 145.259C124.341 145.342 124.176 145.369 124.011 145.369H124.039Z" fill="#221F5A"/>
<path d="M144.26 99.0525C143.931 99.0525 143.628 98.8877 143.464 98.5855L131.457 77.5424C131.21 77.1028 131.347 76.5259 131.814 76.2787C132.254 76.0314 132.831 76.1688 133.078 76.6358L145.085 97.6789C145.332 98.1185 145.194 98.6954 144.727 98.9426C144.59 99.025 144.425 99.0525 144.26 99.0525Z" fill="#221F5A"/>
<path d="M183.385 99.4097C183.055 99.4097 182.753 99.2448 182.588 98.9426L170.307 78.0644C170.032 77.6248 170.197 77.0479 170.636 76.8007C171.076 76.526 171.653 76.6908 171.9 77.1303L184.181 98.0086C184.456 98.4482 184.291 99.0251 183.852 99.2723C183.714 99.3547 183.55 99.4097 183.385 99.4097Z" fill="#221F5A"/>
<path d="M215.255 104.574C214.926 104.574 214.596 104.409 214.431 104.08L202.672 82.5971C202.425 82.1576 202.59 81.5807 203.029 81.3334C203.469 81.0862 204.046 81.251 204.293 81.6905L216.052 103.173C216.299 103.613 216.135 104.19 215.695 104.437C215.558 104.519 215.393 104.547 215.255 104.547V104.574Z" fill="#221F5A"/>
</g>
<defs>
<clipPath id="clip0_329_2075">
<rect width="292.525" height="269" fill="white" transform="translate(0.346924 0.292725)"/>
</clipPath>
</defs>
</svg>
