<svg width="179" height="22" viewBox="0 0 179 22" fill="none" xmlns="http://www.w3.org/2000/svg">
<g clip-path="url(#clip0_689_2922)">
<path d="M4.96945 20.4005C4.46283 20.6603 3.88795 20.2049 3.99033 19.6235L5.0797 13.4153L0.455764 9.01058C0.0239514 8.59845 0.248389 7.84508 0.827201 7.7637L7.25583 6.8502L10.1223 1.17102C10.3809 0.659141 11.0805 0.659141 11.339 1.17102L14.2055 6.8502L20.6341 7.7637C21.213 7.84508 21.4374 8.59845 21.0043 9.01058L16.3816 13.4153L17.471 19.6235C17.5734 20.2049 16.9985 20.6603 16.4919 20.4005L10.7287 17.4395L4.96945 20.4005Z" fill="#F27753"/>
</g>
<g clip-path="url(#clip1_689_2922)">
<path d="M41.9695 20.4005C41.4628 20.6603 40.888 20.2049 40.9903 19.6235L42.0797 13.4153L37.4558 9.01058C37.024 8.59845 37.2484 7.84508 37.8272 7.7637L44.2558 6.8502L47.1223 1.17102C47.3809 0.659141 48.0805 0.659141 48.339 1.17102L51.2055 6.8502L57.6341 7.7637C58.213 7.84508 58.4374 8.59845 58.0043 9.01058L53.3816 13.4153L54.471 19.6235C54.5734 20.2049 53.9985 20.6603 53.4919 20.4005L47.7287 17.4395L41.9695 20.4005Z" fill="#F27753"/>
</g>
<g clip-path="url(#clip2_689_2922)">
<path d="M78.9695 20.4005C78.4628 20.6603 77.888 20.2049 77.9903 19.6235L79.0797 13.4153L74.4558 9.01058C74.024 8.59845 74.2484 7.84508 74.8272 7.7637L81.2558 6.8502L84.1223 1.17102C84.3809 0.659141 85.0805 0.659141 85.339 1.17102L88.2055 6.8502L94.6341 7.7637C95.213 7.84508 95.4374 8.59845 95.0043 9.01058L90.3816 13.4153L91.471 19.6235C91.5734 20.2049 90.9985 20.6603 90.4919 20.4005L84.7287 17.4395L78.9695 20.4005Z" fill="#F27753"/>
</g>
<g clip-path="url(#clip3_689_2922)">
<path d="M115.969 20.4005C115.463 20.6603 114.888 20.2049 114.99 19.6235L116.08 13.4153L111.456 9.01058C111.024 8.59845 111.248 7.84508 111.827 7.7637L118.256 6.8502L121.122 1.17102C121.381 0.659141 122.08 0.659141 122.339 1.17102L125.206 6.8502L131.634 7.7637C132.213 7.84508 132.437 8.59845 132.004 9.01058L127.382 13.4153L128.471 19.6235C128.573 20.2049 127.999 20.6603 127.492 20.4005L121.729 17.4395L115.969 20.4005Z" fill="#F27753"/>
</g>
<g clip-path="url(#clip4_689_2922)">
<path d="M161.969 20.4005C161.463 20.6603 160.888 20.2049 160.99 19.6235L162.08 13.4153L157.456 9.01058C157.024 8.59845 157.248 7.84508 157.827 7.7637L164.256 6.8502L167.122 1.17102C167.381 0.659141 168.08 0.659141 168.339 1.17102L171.206 6.8502L177.634 7.7637C178.213 7.84508 178.437 8.59845 178.004 9.01058L173.382 13.4153L174.471 19.6235C174.573 20.2049 173.999 20.6603 173.492 20.4005L167.729 17.4395L161.969 20.4005Z" fill="#F27753"/>
</g>
<defs>
<clipPath id="clip0_689_2922">
<rect width="21" height="21" fill="white" transform="translate(0.228516 0.131592)"/>
</clipPath>
<clipPath id="clip1_689_2922">
<rect width="21" height="21" fill="white" transform="translate(37.2285 0.131592)"/>
</clipPath>
<clipPath id="clip2_689_2922">
<rect width="21" height="21" fill="white" transform="translate(74.2285 0.131592)"/>
</clipPath>
<clipPath id="clip3_689_2922">
<rect width="21" height="21" fill="white" transform="translate(111.229 0.131592)"/>
</clipPath>
<clipPath id="clip4_689_2922">
<rect width="21" height="21" fill="white" transform="translate(157.229 0.131592)"/>
</clipPath>
</defs>
</svg>
