<svg width="22" height="22" viewBox="0 0 22 22" fill="none" xmlns="http://www.w3.org/2000/svg">
<path id="Shape" fill-rule="evenodd" clip-rule="evenodd" d="M11.2807 21.4634C17.1554 21.4634 21.9178 16.7009 21.9178 10.8261H19.554C19.554 15.3954 15.8499 19.0995 11.2807 19.0995C6.71144 19.0995 3.00736 15.3954 3.00736 10.8261C3.00736 6.25674 6.71144 2.55257 11.2807 2.55257C12.5947 2.55257 13.8372 2.85894 14.9406 3.40414L16.5172 1.56484C14.9713 0.688832 13.1843 0.188721 11.2807 0.188721C5.40595 0.188721 0.643555 4.95122 0.643555 10.8261C0.643555 16.7009 5.40595 21.4634 11.2807 21.4634ZM19.2502 6.88904C19.687 6.40385 19.6476 5.65653 19.1624 5.21985C18.6773 4.78319 17.9299 4.82252 17.4932 5.30771L10.8834 12.6522L8.57308 10.3268C8.11301 9.86373 7.36468 9.8613 6.90162 10.3214C6.43856 10.7814 6.43614 11.5298 6.89619 11.9929L10.0874 15.2049C10.3164 15.4354 10.6302 15.5615 10.955 15.5534C11.2798 15.5454 11.587 15.404 11.8043 15.1626L19.2502 6.88904Z" fill="#0085FF"/>
</svg>
