<svg width="37" height="36" viewBox="0 0 37 36" fill="none" xmlns="http://www.w3.org/2000/svg">
<rect x="0.0957031" width="36" height="36" rx="18" fill="#0045FF"/>
<path fill-rule="evenodd" clip-rule="evenodd" d="M20.244 20.8634V19.4315C20.5662 19.2718 21.4876 18.175 21.5842 17.318C21.8376 17.2987 22.2358 17.066 22.3532 16.1475C22.4162 15.6542 22.1656 15.3771 22.0137 15.2898C22.0137 15.2898 22.3918 14.5717 22.3918 13.7047C22.3918 11.9664 21.7095 10.483 20.244 10.483C20.244 10.483 19.7349 9.40906 18.0961 9.40906C15.0591 9.40906 13.8005 11.3571 13.8005 13.7047C13.8005 14.4951 14.1785 15.2898 14.1785 15.2898C14.0268 15.3771 13.7762 15.6549 13.8392 16.1475C13.9566 17.066 14.3547 17.2987 14.6081 17.318C14.7048 18.175 15.6262 19.2718 15.9483 19.4315V20.8634C15.2324 23.0111 9.50488 21.5793 9.50488 26.5909H26.6874C26.6874 21.5793 20.9599 23.0111 20.244 20.8634Z" fill="white"/>
</svg>
