<svg width="159" height="45" viewBox="0 0 159 45" fill="none" xmlns="http://www.w3.org/2000/svg">
<path d="M48.2801 41.73C44.9501 41.73 42.0401 41.14 39.5601 39.96C37.0801 38.78 35.0101 37.21 33.3401 35.24C31.6701 33.27 30.4301 31.05 29.5901 28.59C28.7601 26.13 28.3401 23.61 28.3401 21.04C28.3401 18.47 28.7601 16.01 29.5901 13.55C30.4201 11.09 31.6701 8.86996 33.3401 6.89996C35.0101 4.92996 37.0801 3.35996 39.5601 2.19996C42.0401 1.03996 44.9501 0.459961 48.2801 0.459961C51.0701 0.459961 53.4501 0.809961 55.4201 1.51996C57.3901 2.22996 59.0401 3.12996 60.3601 4.23996C61.6801 5.33996 62.7501 6.51996 63.5601 7.76996C64.3701 9.01996 64.9801 10.2 65.3801 11.3C65.7801 12.4 66.1001 13.66 66.3601 15.07H58.0501C57.8001 14.09 57.4901 13.25 57.1301 12.54C56.7701 11.83 56.2301 11.14 55.5301 10.45C54.8201 9.75996 53.8801 9.16996 52.7101 8.68996C51.5301 8.19996 50.0801 7.95996 48.3401 7.95996C45.8401 7.95996 43.7501 8.59996 42.0701 9.88996C40.3901 11.18 39.1201 12.81 38.2701 14.81C37.4201 16.8 36.9901 18.88 36.9901 21.06C36.9901 23.24 37.4101 25.32 38.2701 27.33C39.1201 29.34 40.3901 30.99 42.0701 32.27C43.7501 33.56 45.8401 34.2 48.3401 34.2C50.0801 34.2 51.5401 33.96 52.7101 33.49C53.8901 33.02 54.8301 32.43 55.5301 31.72C56.2301 31.01 56.7701 30.31 57.1301 29.6C57.4901 28.89 57.8001 28.07 58.0501 27.13H66.3601C66.1101 28.54 65.7801 29.8 65.3801 30.9C64.9801 32 64.3801 33.18 63.5601 34.43C62.7501 35.68 61.6801 36.86 60.3601 37.96C59.0401 39.06 57.3901 39.97 55.4201 40.68C53.4501 41.39 51.0701 41.74 48.2801 41.74V41.73Z" fill="#2A3A7D"/>
<path d="M72.23 41.19V1H80.59V41.19H72.23Z" fill="#2A3A7D"/>
<path d="M7.28 17.52L14.06 24.3H23.4L16.73 17.63C16.52 17.42 16.22 17.29 15.92 17.29H8.36V8.28H27.7V1H0V23.7L6.18 17.52C6.49 17.21 6.98 17.21 7.29 17.52H7.28Z" fill="#2A3A7D"/>
<path d="M8.36 33.91V24.3H0V41.19H27.97V33.91H8.36Z" fill="#2A3A7D"/>
<path d="M89.7 12V3.12H95.34V4.152H90.876V6.96H94.788V7.992H90.876V10.968H95.4V12H89.7ZM100.405 12.12C100.005 12.12 99.6694 12.056 99.3974 11.928C99.1254 11.8 98.9054 11.648 98.7374 11.472C98.5774 11.296 98.4494 11.136 98.3534 10.992H98.2814V12H97.1414V2.88H98.2814V6.648H98.3534C98.4494 6.496 98.5774 6.332 98.7374 6.156C98.9054 5.98 99.1254 5.832 99.3974 5.712C99.6694 5.584 100.005 5.52 100.405 5.52C100.885 5.52 101.305 5.616 101.665 5.808C102.025 5.992 102.325 6.244 102.565 6.564C102.805 6.876 102.985 7.228 103.105 7.62C103.225 8.012 103.285 8.412 103.285 8.82C103.285 9.228 103.225 9.628 103.105 10.02C102.985 10.412 102.805 10.768 102.565 11.088C102.325 11.4 102.025 11.652 101.665 11.844C101.305 12.028 100.885 12.12 100.405 12.12ZM100.213 11.148C100.645 11.148 101.001 11.036 101.281 10.812C101.569 10.58 101.781 10.288 101.917 9.936C102.061 9.576 102.133 9.204 102.133 8.82C102.133 8.428 102.061 8.056 101.917 7.704C101.781 7.352 101.569 7.064 101.281 6.84C101.001 6.608 100.645 6.492 100.213 6.492C99.7894 6.492 99.4334 6.608 99.1454 6.84C98.8654 7.064 98.6534 7.352 98.5094 7.704C98.3734 8.056 98.3054 8.428 98.3054 8.82C98.3054 9.204 98.3734 9.576 98.5094 9.936C98.6534 10.288 98.8654 10.58 99.1454 10.812C99.4334 11.036 99.7894 11.148 100.213 11.148ZM106.926 12.12C106.294 12.12 105.79 11.924 105.414 11.532C105.038 11.14 104.85 10.596 104.85 9.9V5.64H105.99V9.84C105.99 10.256 106.102 10.576 106.326 10.8C106.558 11.024 106.862 11.136 107.238 11.136C107.622 11.136 107.93 11.036 108.162 10.836C108.394 10.636 108.562 10.38 108.666 10.068C108.77 9.756 108.822 9.436 108.822 9.108V5.64H109.962V12H108.822V11.088H108.75C108.702 11.184 108.61 11.316 108.474 11.484C108.338 11.644 108.146 11.792 107.898 11.928C107.65 12.056 107.326 12.12 106.926 12.12ZM113.974 12.12C113.486 12.12 113.082 12.052 112.762 11.916C112.45 11.78 112.202 11.612 112.018 11.412C111.834 11.204 111.698 11 111.61 10.8C111.522 10.592 111.466 10.42 111.442 10.284C111.418 10.148 111.406 10.08 111.406 10.08H112.558C112.558 10.08 112.57 10.136 112.594 10.248C112.626 10.352 112.686 10.476 112.774 10.62C112.87 10.756 113.014 10.88 113.206 10.992C113.406 11.096 113.67 11.148 113.998 11.148C114.374 11.148 114.666 11.06 114.874 10.884C115.082 10.7 115.186 10.476 115.186 10.212C115.186 9.98 115.102 9.796 114.934 9.66C114.774 9.524 114.542 9.42 114.238 9.348L113.374 9.144C113.054 9.064 112.754 8.956 112.474 8.82C112.194 8.684 111.966 8.5 111.79 8.268C111.622 8.028 111.538 7.732 111.538 7.38C111.538 6.836 111.742 6.392 112.15 6.048C112.558 5.696 113.09 5.52 113.746 5.52C114.186 5.52 114.55 5.584 114.838 5.712C115.126 5.832 115.354 5.984 115.522 6.168C115.698 6.352 115.826 6.536 115.906 6.72C115.994 6.904 116.05 7.06 116.074 7.188C116.098 7.308 116.11 7.368 116.11 7.368H115.006C115.006 7.368 114.994 7.324 114.97 7.236C114.946 7.14 114.89 7.036 114.802 6.924C114.722 6.804 114.598 6.7 114.43 6.612C114.262 6.516 114.038 6.468 113.758 6.468C113.374 6.468 113.094 6.556 112.918 6.732C112.742 6.908 112.654 7.1 112.654 7.308C112.654 7.508 112.734 7.672 112.894 7.8C113.062 7.92 113.278 8.012 113.542 8.076L114.418 8.28C114.962 8.408 115.41 8.62 115.762 8.916C116.122 9.204 116.302 9.62 116.302 10.164C116.302 10.516 116.21 10.844 116.026 11.148C115.842 11.444 115.578 11.68 115.234 11.856C114.89 12.032 114.47 12.12 113.974 12.12ZM120.383 5.52C120.783 5.52 121.119 5.584 121.391 5.712C121.663 5.84 121.883 5.992 122.051 6.168C122.219 6.336 122.347 6.496 122.435 6.648H122.507V5.64H123.647V12H122.507V10.992H122.435C122.347 11.144 122.219 11.308 122.051 11.484C121.883 11.66 121.663 11.812 121.391 11.94C121.119 12.06 120.783 12.12 120.383 12.12C119.903 12.12 119.483 12.028 119.123 11.844C118.763 11.652 118.463 11.4 118.223 11.088C117.983 10.768 117.803 10.412 117.683 10.02C117.563 9.628 117.503 9.228 117.503 8.82C117.503 8.412 117.563 8.012 117.683 7.62C117.803 7.228 117.983 6.876 118.223 6.564C118.463 6.244 118.763 5.992 119.123 5.808C119.483 5.616 119.903 5.52 120.383 5.52ZM120.575 6.492C120.151 6.492 119.795 6.608 119.507 6.84C119.219 7.064 119.003 7.352 118.859 7.704C118.723 8.056 118.655 8.428 118.655 8.82C118.655 9.204 118.723 9.576 118.859 9.936C119.003 10.288 119.219 10.58 119.507 10.812C119.795 11.036 120.151 11.148 120.575 11.148C120.999 11.148 121.351 11.036 121.631 10.812C121.919 10.58 122.131 10.288 122.267 9.936C122.411 9.576 122.483 9.204 122.483 8.82C122.483 8.428 122.411 8.056 122.267 7.704C122.131 7.352 121.919 7.064 121.631 6.84C121.351 6.608 120.999 6.492 120.575 6.492Z" fill="#2A3A7D"/>
<path d="M93.6 26.7201C92.904 26.7201 92.292 26.5921 91.764 26.3361C91.236 26.0721 90.796 25.7241 90.444 25.2921C90.1 24.8521 89.84 24.3641 89.664 23.8281C89.488 23.2841 89.4 22.7281 89.4 22.1601C89.4 21.5921 89.488 21.0361 89.664 20.4921C89.84 19.9481 90.1 19.4601 90.444 19.0281C90.796 18.5881 91.236 18.2401 91.764 17.9841C92.292 17.7281 92.904 17.6001 93.6 17.6001C94.176 17.6001 94.668 17.6761 95.076 17.8281C95.492 17.9721 95.836 18.1601 96.108 18.3921C96.388 18.6241 96.612 18.8721 96.78 19.1361C96.956 19.4001 97.084 19.6481 97.164 19.8801C97.252 20.1121 97.308 20.3041 97.332 20.4561C97.364 20.6001 97.38 20.6721 97.38 20.6721H96.204C96.204 20.6721 96.188 20.6081 96.156 20.4801C96.124 20.3441 96.06 20.1801 95.964 19.9881C95.868 19.7881 95.724 19.5881 95.532 19.3881C95.34 19.1881 95.088 19.0241 94.776 18.8961C94.464 18.7601 94.076 18.6921 93.612 18.6921C93.108 18.6921 92.668 18.7921 92.292 18.9921C91.916 19.1841 91.6 19.4481 91.344 19.7841C91.096 20.1121 90.908 20.4841 90.78 20.9001C90.66 21.3081 90.6 21.7281 90.6 22.1601C90.6 22.5921 90.66 23.0161 90.78 23.4321C90.908 23.8401 91.096 24.2121 91.344 24.5481C91.6 24.8761 91.916 25.1401 92.292 25.3401C92.668 25.5321 93.108 25.6281 93.612 25.6281C94.076 25.6281 94.464 25.5601 94.776 25.4241C95.088 25.2881 95.34 25.1241 95.532 24.9321C95.724 24.7321 95.868 24.5361 95.964 24.3441C96.06 24.1441 96.124 23.9761 96.156 23.8401C96.188 23.7041 96.204 23.6361 96.204 23.6361H97.38C97.38 23.6361 97.364 23.7121 97.332 23.8641C97.308 24.0081 97.252 24.2001 97.164 24.4401C97.084 24.6721 96.956 24.9201 96.78 25.1841C96.612 25.4401 96.388 25.6881 96.108 25.9281C95.836 26.1601 95.492 26.3521 95.076 26.5041C94.668 26.6481 94.176 26.7201 93.6 26.7201ZM101.897 26.7201C101.217 26.7201 100.645 26.5641 100.181 26.2521C99.7167 25.9321 99.3647 25.5201 99.1247 25.0161C98.8847 24.5121 98.7647 23.9801 98.7647 23.4201C98.7647 22.8521 98.8847 22.3201 99.1247 21.8241C99.3647 21.3201 99.7167 20.9121 100.181 20.6001C100.645 20.2801 101.217 20.1201 101.897 20.1201C102.577 20.1201 103.149 20.2801 103.613 20.6001C104.077 20.9121 104.429 21.3201 104.669 21.8241C104.909 22.3201 105.029 22.8521 105.029 23.4201C105.029 23.9801 104.909 24.5121 104.669 25.0161C104.429 25.5201 104.077 25.9321 103.613 26.2521C103.149 26.5641 102.577 26.7201 101.897 26.7201ZM101.897 25.7241C102.329 25.7241 102.689 25.6161 102.977 25.4001C103.273 25.1761 103.493 24.8881 103.637 24.5361C103.789 24.1841 103.865 23.8121 103.865 23.4201C103.865 23.0201 103.789 22.6481 103.637 22.3041C103.493 21.9521 103.273 21.6681 102.977 21.4521C102.689 21.2281 102.329 21.1161 101.897 21.1161C101.473 21.1161 101.113 21.2281 100.817 21.4521C100.521 21.6681 100.297 21.9521 100.145 22.3041C100.001 22.6481 99.9287 23.0201 99.9287 23.4201C99.9287 23.8121 100.001 24.1841 100.145 24.5361C100.297 24.8881 100.521 25.1761 100.817 25.4001C101.113 25.6161 101.473 25.7241 101.897 25.7241ZM106.584 26.6001V20.2401H107.724V21.1641H107.796C107.852 21.0681 107.944 20.9361 108.072 20.7681C108.208 20.6001 108.4 20.4521 108.648 20.3241C108.896 20.1881 109.208 20.1201 109.584 20.1201C110.048 20.1201 110.444 20.2281 110.772 20.4441C111.1 20.6521 111.348 20.9361 111.516 21.2961C111.692 21.6561 111.78 22.0601 111.78 22.5081V26.6001H110.64V22.5801C110.64 22.1561 110.52 21.8041 110.28 21.5241C110.048 21.2441 109.708 21.1041 109.26 21.1041C108.9 21.1041 108.608 21.1961 108.384 21.3801C108.16 21.5561 107.992 21.7921 107.88 22.0881C107.776 22.3761 107.724 22.6841 107.724 23.0121V26.6001H106.584ZM115.791 26.7201C115.303 26.7201 114.899 26.6521 114.579 26.5161C114.267 26.3801 114.019 26.2121 113.835 26.0121C113.651 25.8041 113.515 25.6001 113.427 25.4001C113.339 25.1921 113.283 25.0201 113.259 24.8841C113.235 24.7481 113.223 24.6801 113.223 24.6801H114.375C114.375 24.6801 114.387 24.7361 114.411 24.8481C114.443 24.9521 114.503 25.0761 114.591 25.2201C114.687 25.3561 114.831 25.4801 115.023 25.5921C115.223 25.6961 115.487 25.7481 115.815 25.7481C116.191 25.7481 116.483 25.6601 116.691 25.4841C116.899 25.3001 117.003 25.0761 117.003 24.8121C117.003 24.5801 116.919 24.3961 116.751 24.2601C116.591 24.1241 116.359 24.0201 116.055 23.9481L115.191 23.7441C114.871 23.6641 114.571 23.5561 114.291 23.4201C114.011 23.2841 113.783 23.1001 113.607 22.8681C113.439 22.6281 113.355 22.3321 113.355 21.9801C113.355 21.4361 113.559 20.9921 113.967 20.6481C114.375 20.2961 114.907 20.1201 115.563 20.1201C116.003 20.1201 116.367 20.1841 116.655 20.3121C116.943 20.4321 117.171 20.5841 117.339 20.7681C117.515 20.9521 117.643 21.1361 117.723 21.3201C117.811 21.5041 117.867 21.6601 117.891 21.7881C117.915 21.9081 117.927 21.9681 117.927 21.9681H116.823C116.823 21.9681 116.811 21.9241 116.787 21.8361C116.763 21.7401 116.707 21.6361 116.619 21.5241C116.539 21.4041 116.415 21.3001 116.247 21.2121C116.079 21.1161 115.855 21.0681 115.575 21.0681C115.191 21.0681 114.911 21.1561 114.735 21.3321C114.559 21.5081 114.471 21.7001 114.471 21.9081C114.471 22.1081 114.551 22.2721 114.711 22.4001C114.879 22.5201 115.095 22.6121 115.359 22.6761L116.235 22.8801C116.779 23.0081 117.227 23.2201 117.579 23.5161C117.939 23.8041 118.119 24.2201 118.119 24.7641C118.119 25.1161 118.027 25.4441 117.843 25.7481C117.659 26.0441 117.395 26.2801 117.051 26.4561C116.707 26.6321 116.287 26.7201 115.791 26.7201ZM121.633 26.7201C121.001 26.7201 120.497 26.5241 120.121 26.1321C119.745 25.7401 119.557 25.1961 119.557 24.5001V20.2401H120.697V24.4401C120.697 24.8561 120.809 25.1761 121.033 25.4001C121.265 25.6241 121.569 25.7361 121.945 25.7361C122.329 25.7361 122.637 25.6361 122.869 25.4361C123.101 25.2361 123.269 24.9801 123.373 24.6681C123.477 24.3561 123.529 24.0361 123.529 23.7081V20.2401H124.669V26.6001H123.529V25.6881H123.457C123.409 25.7841 123.317 25.9161 123.181 26.0841C123.045 26.2441 122.853 26.3921 122.605 26.5281C122.357 26.6561 122.033 26.7201 121.633 26.7201ZM126.473 26.6001L126.485 17.4801H127.613V26.6001H126.473ZM132.112 26.7201C131.456 26.7201 130.96 26.5521 130.624 26.2161C130.296 25.8801 130.132 25.4081 130.132 24.8001V21.1761H128.992V20.2401H130.132V18.6441H131.272V20.2401H132.82V21.1761H131.272V24.8001C131.272 25.1201 131.36 25.3561 131.536 25.5081C131.712 25.6521 131.968 25.7241 132.304 25.7241C132.48 25.7241 132.648 25.7121 132.808 25.6881C132.968 25.6641 133.048 25.6521 133.048 25.6521V26.6241C133.048 26.6241 132.956 26.6401 132.772 26.6721C132.588 26.7041 132.368 26.7201 132.112 26.7201ZM137.322 26.7201C136.642 26.7201 136.07 26.5641 135.606 26.2521C135.142 25.9321 134.79 25.5201 134.55 25.0161C134.31 24.5121 134.19 23.9801 134.19 23.4201C134.19 22.8521 134.31 22.3201 134.55 21.8241C134.79 21.3201 135.142 20.9121 135.606 20.6001C136.07 20.2801 136.642 20.1201 137.322 20.1201C138.002 20.1201 138.574 20.2801 139.038 20.6001C139.502 20.9121 139.854 21.3201 140.094 21.8241C140.334 22.3201 140.454 22.8521 140.454 23.4201C140.454 23.9801 140.334 24.5121 140.094 25.0161C139.854 25.5201 139.502 25.9321 139.038 26.2521C138.574 26.5641 138.002 26.7201 137.322 26.7201ZM137.322 25.7241C137.754 25.7241 138.114 25.6161 138.402 25.4001C138.698 25.1761 138.918 24.8881 139.062 24.5361C139.214 24.1841 139.29 23.8121 139.29 23.4201C139.29 23.0201 139.214 22.6481 139.062 22.3041C138.918 21.9521 138.698 21.6681 138.402 21.4521C138.114 21.2281 137.754 21.1161 137.322 21.1161C136.898 21.1161 136.538 21.2281 136.242 21.4521C135.946 21.6681 135.722 21.9521 135.57 22.3041C135.426 22.6481 135.354 23.0201 135.354 23.4201C135.354 23.8121 135.426 24.1841 135.57 24.5361C135.722 24.8881 135.946 25.1761 136.242 25.4001C136.538 25.6161 136.898 25.7241 137.322 25.7241ZM142.01 26.6001V20.2401H143.15V21.0321H143.198C143.334 20.7921 143.534 20.5801 143.798 20.3961C144.062 20.2121 144.434 20.1201 144.914 20.1201C145.05 20.1201 145.174 20.1281 145.286 20.1441C145.398 20.1521 145.454 20.1561 145.454 20.1561V21.2481C145.454 21.2481 145.39 21.2441 145.262 21.2361C145.142 21.2201 145.014 21.2121 144.878 21.2121C144.326 21.2121 143.898 21.3721 143.594 21.6921C143.298 22.0041 143.15 22.5161 143.15 23.2281V26.6001H142.01ZM148.988 20.1201C149.388 20.1201 149.724 20.1841 149.996 20.3121C150.268 20.4401 150.488 20.5921 150.656 20.7681C150.824 20.9361 150.952 21.0961 151.04 21.2481H151.112V20.2401H152.252V26.6001H151.112V25.5921H151.04C150.952 25.7441 150.824 25.9081 150.656 26.0841C150.488 26.2601 150.268 26.4121 149.996 26.5401C149.724 26.6601 149.388 26.7201 148.988 26.7201C148.508 26.7201 148.088 26.6281 147.728 26.4441C147.368 26.2521 147.068 26.0001 146.828 25.6881C146.588 25.3681 146.408 25.0121 146.288 24.6201C146.168 24.2281 146.108 23.8281 146.108 23.4201C146.108 23.0121 146.168 22.6121 146.288 22.2201C146.408 21.8281 146.588 21.4761 146.828 21.1641C147.068 20.8441 147.368 20.5921 147.728 20.4081C148.088 20.2161 148.508 20.1201 148.988 20.1201ZM149.18 21.0921C148.756 21.0921 148.4 21.2081 148.112 21.4401C147.824 21.6641 147.608 21.9521 147.464 22.3041C147.328 22.6561 147.26 23.0281 147.26 23.4201C147.26 23.8041 147.328 24.1761 147.464 24.5361C147.608 24.8881 147.824 25.1801 148.112 25.4121C148.4 25.6361 148.756 25.7481 149.18 25.7481C149.604 25.7481 149.956 25.6361 150.236 25.4121C150.524 25.1801 150.736 24.8881 150.872 24.5361C151.016 24.1761 151.088 23.8041 151.088 23.4201C151.088 23.0281 151.016 22.6561 150.872 22.3041C150.736 21.9521 150.524 21.6641 150.236 21.4401C149.956 21.2081 149.604 21.0921 149.18 21.0921Z" fill="#2A3A7D"/>
<path d="M89.7 41.21V32.33H90.876V41.21H89.7ZM92.6737 41.21V34.85H93.8137V35.774H93.8857C93.9417 35.678 94.0337 35.546 94.1617 35.378C94.2977 35.21 94.4897 35.062 94.7377 34.934C94.9857 34.798 95.2977 34.73 95.6737 34.73C96.1377 34.73 96.5337 34.838 96.8617 35.054C97.1897 35.262 97.4377 35.546 97.6057 35.906C97.7817 36.266 97.8697 36.67 97.8697 37.118V41.21H96.7297V37.19C96.7297 36.766 96.6097 36.414 96.3697 36.134C96.1377 35.854 95.7977 35.714 95.3497 35.714C94.9897 35.714 94.6977 35.806 94.4737 35.99C94.2497 36.166 94.0817 36.402 93.9697 36.698C93.8657 36.986 93.8137 37.294 93.8137 37.622V41.21H92.6737ZM99.5526 41.21V34.85H100.693V35.774H100.741C100.805 35.654 100.905 35.514 101.041 35.354C101.177 35.186 101.361 35.042 101.593 34.922C101.833 34.794 102.133 34.73 102.493 34.73C102.965 34.73 103.361 34.846 103.681 35.078C104.009 35.302 104.253 35.606 104.413 35.99H104.425C104.601 35.638 104.849 35.342 105.169 35.102C105.497 34.854 105.921 34.73 106.441 34.73C107.129 34.73 107.657 34.966 108.025 35.438C108.401 35.902 108.589 36.502 108.589 37.238V41.21H107.449V37.298C107.449 36.826 107.337 36.446 107.113 36.158C106.889 35.862 106.565 35.714 106.141 35.714C105.773 35.714 105.477 35.814 105.253 36.014C105.037 36.214 104.881 36.462 104.785 36.758C104.689 37.054 104.641 37.35 104.641 37.646V41.21H103.501V37.298C103.501 36.826 103.389 36.446 103.165 36.158C102.949 35.862 102.625 35.714 102.193 35.714C101.825 35.714 101.529 35.814 101.305 36.014C101.089 36.214 100.933 36.466 100.837 36.77C100.741 37.066 100.693 37.358 100.693 37.646V41.21H99.5526ZM113.276 41.33C112.596 41.33 112.024 41.174 111.56 40.862C111.096 40.542 110.744 40.13 110.504 39.626C110.264 39.122 110.144 38.59 110.144 38.03C110.144 37.462 110.264 36.93 110.504 36.434C110.744 35.93 111.096 35.522 111.56 35.21C112.024 34.89 112.596 34.73 113.276 34.73C113.956 34.73 114.528 34.89 114.992 35.21C115.456 35.522 115.808 35.93 116.048 36.434C116.288 36.93 116.408 37.462 116.408 38.03C116.408 38.59 116.288 39.122 116.048 39.626C115.808 40.13 115.456 40.542 114.992 40.862C114.528 41.174 113.956 41.33 113.276 41.33ZM113.276 40.334C113.708 40.334 114.068 40.226 114.356 40.01C114.652 39.786 114.872 39.498 115.016 39.146C115.168 38.794 115.244 38.422 115.244 38.03C115.244 37.63 115.168 37.258 115.016 36.914C114.872 36.562 114.652 36.278 114.356 36.062C114.068 35.838 113.708 35.726 113.276 35.726C112.852 35.726 112.492 35.838 112.196 36.062C111.9 36.278 111.676 36.562 111.524 36.914C111.38 37.258 111.308 37.63 111.308 38.03C111.308 38.422 111.38 38.794 111.524 39.146C111.676 39.498 111.9 39.786 112.196 40.01C112.492 40.226 112.852 40.334 113.276 40.334ZM121.347 41.33C120.947 41.33 120.611 41.266 120.339 41.138C120.067 41.01 119.847 40.858 119.679 40.682C119.519 40.506 119.391 40.346 119.295 40.202H119.223V41.21H118.083V32.09H119.223V35.858H119.295C119.391 35.706 119.519 35.542 119.679 35.366C119.847 35.19 120.067 35.042 120.339 34.922C120.611 34.794 120.947 34.73 121.347 34.73C121.827 34.73 122.247 34.826 122.607 35.018C122.967 35.202 123.267 35.454 123.507 35.774C123.747 36.086 123.927 36.438 124.047 36.83C124.167 37.222 124.227 37.622 124.227 38.03C124.227 38.438 124.167 38.838 124.047 39.23C123.927 39.622 123.747 39.978 123.507 40.298C123.267 40.61 122.967 40.862 122.607 41.054C122.247 41.238 121.827 41.33 121.347 41.33ZM121.155 40.358C121.587 40.358 121.943 40.246 122.223 40.022C122.511 39.79 122.723 39.498 122.859 39.146C123.003 38.786 123.075 38.414 123.075 38.03C123.075 37.638 123.003 37.266 122.859 36.914C122.723 36.562 122.511 36.274 122.223 36.05C121.943 35.818 121.587 35.702 121.155 35.702C120.731 35.702 120.375 35.818 120.087 36.05C119.807 36.274 119.595 36.562 119.451 36.914C119.315 37.266 119.247 37.638 119.247 38.03C119.247 38.414 119.315 38.786 119.451 39.146C119.595 39.498 119.807 39.79 120.087 40.022C120.375 40.246 120.731 40.358 121.155 40.358ZM126.535 33.638C126.319 33.638 126.139 33.566 125.995 33.422C125.859 33.278 125.791 33.106 125.791 32.906C125.791 32.698 125.859 32.522 125.995 32.378C126.139 32.234 126.319 32.162 126.535 32.162C126.743 32.162 126.919 32.234 127.063 32.378C127.207 32.522 127.279 32.698 127.279 32.906C127.279 33.106 127.207 33.278 127.063 33.422C126.919 33.566 126.743 33.638 126.535 33.638ZM125.971 41.21V34.85H127.111V41.21H125.971ZM129.075 41.21L129.087 32.09H130.215V41.21H129.075ZM132.758 33.638C132.542 33.638 132.362 33.566 132.218 33.422C132.082 33.278 132.014 33.106 132.014 32.906C132.014 32.698 132.082 32.522 132.218 32.378C132.362 32.234 132.542 32.162 132.758 32.162C132.966 32.162 133.142 32.234 133.286 32.378C133.43 32.522 133.502 32.698 133.502 32.906C133.502 33.106 133.43 33.278 133.286 33.422C133.142 33.566 132.966 33.638 132.758 33.638ZM132.194 41.21V34.85H133.334V41.21H132.194ZM137.938 34.73C138.338 34.73 138.674 34.794 138.946 34.922C139.218 35.05 139.438 35.202 139.606 35.378C139.774 35.546 139.902 35.706 139.99 35.858H140.062V34.85H141.202V41.21H140.062V40.202H139.99C139.902 40.354 139.774 40.518 139.606 40.694C139.438 40.87 139.218 41.022 138.946 41.15C138.674 41.27 138.338 41.33 137.938 41.33C137.458 41.33 137.038 41.238 136.678 41.054C136.318 40.862 136.018 40.61 135.778 40.298C135.538 39.978 135.358 39.622 135.238 39.23C135.118 38.838 135.058 38.438 135.058 38.03C135.058 37.622 135.118 37.222 135.238 36.83C135.358 36.438 135.538 36.086 135.778 35.774C136.018 35.454 136.318 35.202 136.678 35.018C137.038 34.826 137.458 34.73 137.938 34.73ZM138.13 35.702C137.706 35.702 137.35 35.818 137.062 36.05C136.774 36.274 136.558 36.562 136.414 36.914C136.278 37.266 136.21 37.638 136.21 38.03C136.21 38.414 136.278 38.786 136.414 39.146C136.558 39.498 136.774 39.79 137.062 40.022C137.35 40.246 137.706 40.358 138.13 40.358C138.554 40.358 138.906 40.246 139.186 40.022C139.474 39.79 139.686 39.498 139.822 39.146C139.966 38.786 140.038 38.414 140.038 38.03C140.038 37.638 139.966 37.266 139.822 36.914C139.686 36.562 139.474 36.274 139.186 36.05C138.906 35.818 138.554 35.702 138.13 35.702ZM142.877 41.21V34.85H144.017V35.642H144.065C144.201 35.402 144.401 35.19 144.665 35.006C144.929 34.822 145.301 34.73 145.781 34.73C145.917 34.73 146.041 34.738 146.153 34.754C146.265 34.762 146.321 34.766 146.321 34.766V35.858C146.321 35.858 146.257 35.854 146.129 35.846C146.009 35.83 145.881 35.822 145.745 35.822C145.193 35.822 144.765 35.982 144.461 36.302C144.165 36.614 144.017 37.126 144.017 37.838V41.21H142.877ZM148.554 33.638C148.338 33.638 148.158 33.566 148.014 33.422C147.878 33.278 147.81 33.106 147.81 32.906C147.81 32.698 147.878 32.522 148.014 32.378C148.158 32.234 148.338 32.162 148.554 32.162C148.762 32.162 148.938 32.234 149.082 32.378C149.226 32.522 149.298 32.698 149.298 32.906C149.298 33.106 149.226 33.278 149.082 33.422C148.938 33.566 148.762 33.638 148.554 33.638ZM147.99 41.21V34.85H149.13V41.21H147.99ZM153.735 34.73C154.135 34.73 154.471 34.794 154.743 34.922C155.015 35.05 155.235 35.202 155.403 35.378C155.571 35.546 155.699 35.706 155.787 35.858H155.859V34.85H156.999V41.21H155.859V40.202H155.787C155.699 40.354 155.571 40.518 155.403 40.694C155.235 40.87 155.015 41.022 154.743 41.15C154.471 41.27 154.135 41.33 153.735 41.33C153.255 41.33 152.835 41.238 152.475 41.054C152.115 40.862 151.815 40.61 151.575 40.298C151.335 39.978 151.155 39.622 151.035 39.23C150.915 38.838 150.855 38.438 150.855 38.03C150.855 37.622 150.915 37.222 151.035 36.83C151.155 36.438 151.335 36.086 151.575 35.774C151.815 35.454 152.115 35.202 152.475 35.018C152.835 34.826 153.255 34.73 153.735 34.73ZM153.927 35.702C153.503 35.702 153.147 35.818 152.859 36.05C152.571 36.274 152.355 36.562 152.211 36.914C152.075 37.266 152.007 37.638 152.007 38.03C152.007 38.414 152.075 38.786 152.211 39.146C152.355 39.498 152.571 39.79 152.859 40.022C153.147 40.246 153.503 40.358 153.927 40.358C154.351 40.358 154.703 40.246 154.983 40.022C155.271 39.79 155.483 39.498 155.619 39.146C155.763 38.786 155.835 38.414 155.835 38.03C155.835 37.638 155.763 37.266 155.619 36.914C155.483 36.562 155.271 36.274 154.983 36.05C154.703 35.818 154.351 35.702 153.927 35.702Z" fill="#2A3A7D"/>
</svg>
