<svg width="241" height="242" viewBox="0 0 241 242" fill="none" xmlns="http://www.w3.org/2000/svg">
<path d="M62.4488 10.0392H2.27344V121.891H62.4488V10.0392Z" fill="white"/>
<path d="M76.879 142.79H124.701C124.701 142.79 129.004 156.152 119.74 167.4C110.476 178.648 110.145 194.096 110.145 194.096H166.391V97.7667H196.469V115.128H184.974C184.974 115.128 198.868 140.937 203.502 147.224C208.132 153.511 222.249 186.792 175.132 206.879H47.4727C47.4727 206.879 46.6746 167.036 76.879 142.8V142.79Z" fill="url(#paint0_linear_612_3271)"/>
<path d="M211.778 234.791C227.798 231.01 237.719 214.957 233.938 198.937C230.157 182.917 214.106 172.995 198.086 176.776C182.067 180.557 172.145 196.61 175.926 212.63C179.707 228.65 195.759 238.572 211.778 234.791Z" fill="url(#paint1_linear_612_3271)"/>
<path d="M204.933 227.956C217.194 227.956 227.134 218.016 227.134 205.754C227.134 193.493 217.194 183.553 204.933 183.553C192.672 183.553 182.732 193.493 182.732 205.754C182.732 218.016 192.672 227.956 204.933 227.956Z" fill="white"/>
<path d="M204.935 218.528C211.99 218.528 217.709 212.809 217.709 205.754C217.709 198.699 211.99 192.98 204.935 192.98C197.881 192.98 192.162 198.699 192.162 205.754C192.162 212.809 197.881 218.528 204.935 218.528Z" fill="url(#paint2_linear_612_3271)"/>
<path d="M170.031 206.87H239.835C239.835 187.595 224.21 171.969 204.935 171.969C185.661 171.969 170.036 187.595 170.036 206.87H170.031Z" fill="url(#paint3_linear_612_3271)"/>
<path d="M239.836 207.616C239.425 207.616 239.089 207.285 239.089 206.87C239.089 188.033 223.768 172.711 204.932 172.711C186.096 172.711 170.775 188.033 170.775 206.87C170.775 207.28 170.443 207.616 170.028 207.616C169.613 207.616 169.281 207.285 169.281 206.87C169.281 187.212 185.27 171.222 204.927 171.222C224.584 171.222 240.573 187.212 240.573 206.87C240.573 207.28 240.242 207.616 239.827 207.616H239.836Z" fill="url(#paint4_linear_612_3271)"/>
<path d="M64.3818 234.781C80.4014 231 90.3227 214.948 86.5418 198.928C82.7608 182.907 66.7093 172.986 50.6897 176.767C34.6701 180.548 24.7487 196.6 28.5296 212.62C32.3106 228.64 48.3622 238.562 64.3818 234.781Z" fill="url(#paint5_linear_612_3271)"/>
<path d="M57.5385 227.956C69.7995 227.956 79.739 218.016 79.739 205.754C79.739 193.493 69.7995 183.553 57.5385 183.553C45.2774 183.553 35.3379 193.493 35.3379 205.754C35.3379 218.016 45.2774 227.956 57.5385 227.956Z" fill="white"/>
<path d="M57.539 218.528C64.5936 218.528 70.3124 212.809 70.3124 205.754C70.3124 198.699 64.5936 192.98 57.539 192.98C50.4845 192.98 44.7656 198.699 44.7656 205.754C44.7656 212.809 50.4845 218.528 57.539 218.528Z" fill="url(#paint6_linear_612_3271)"/>
<path d="M22.2617 206.87H92.065C92.065 187.595 76.4401 171.969 57.1657 171.969C37.8913 171.969 22.2664 187.595 22.2664 206.87H22.2617Z" fill="url(#paint7_linear_612_3271)"/>
<path d="M92.0644 207.616C91.6537 207.616 91.3177 207.285 91.3177 206.87C91.3177 188.033 75.9962 172.711 57.1604 172.711C38.3247 172.711 23.0032 188.033 23.0032 206.87C23.0032 207.28 22.6718 207.616 22.2565 207.616C21.8411 207.616 21.5098 207.285 21.5098 206.87C21.5098 187.212 37.4987 171.222 57.1558 171.222C76.8129 171.222 92.8018 187.212 92.8018 206.87C92.8018 207.28 92.4704 207.616 92.0551 207.616H92.0644Z" fill="url(#paint8_linear_612_3271)"/>
<path d="M4.6871 150.435H78.4199V144.886H4.6871V150.435Z" fill="url(#paint9_linear_612_3271)"/>
<path d="M110.624 30.7964C118.421 29.4341 123.638 22.0085 122.275 14.2109C120.913 6.41327 113.488 1.19642 105.691 2.55872C97.8932 3.92103 92.6766 11.3466 94.0388 19.1442C95.4011 26.9418 102.826 32.1587 110.624 30.7964Z" fill="#0A0929"/>
<path d="M97.6387 37.8552L99.7388 27.2189C107.038 27.1815 106.328 20.9416 106.328 20.9416C107.733 20.1762 108.097 17.7353 108.172 15.2991C108.284 11.6307 112.405 9.44185 115.396 11.5701C115.532 11.6634 115.662 11.7661 115.798 11.8781C118.416 14.025 121.566 13.9129 121.566 13.9129C121.683 15.005 121.706 15.1731 121.818 16.5312C122.649 26.7708 124.665 35.0083 114.636 33.9162L113.707 39.246L97.6387 37.8645V37.8552Z" fill="white"/>
<path d="M113.705 39.9834C113.663 39.9834 113.621 39.9834 113.575 39.974C113.169 39.904 112.898 39.5167 112.968 39.1106L113.897 33.7808C113.962 33.3934 114.317 33.1274 114.709 33.1694C117.369 33.4587 119.189 33.0807 120.272 32.0073C122.335 29.9724 121.887 25.3006 121.364 19.8961C121.261 18.8227 121.154 17.7213 121.065 16.5872C120.976 15.5137 120.944 15.1964 120.874 14.557L120.813 13.9876C120.687 12.9468 120.3 11.6354 119.922 11.3553C119.59 11.1126 119.52 10.6459 119.768 10.3146C120.01 9.98319 120.482 9.91319 120.808 10.1605C121.901 10.9726 122.237 13.3528 122.293 13.8196L122.353 14.3983C122.423 15.047 122.456 15.3737 122.545 16.4658C122.638 17.5859 122.741 18.6874 122.843 19.7515C123.399 25.5387 123.879 30.5325 121.313 33.0667C119.996 34.3688 118.004 34.9102 115.236 34.7142L114.424 39.3673C114.363 39.7267 114.046 39.9834 113.691 39.9834H113.705Z" fill="#0A0929"/>
<path d="M97.6395 38.3545C97.5928 38.3545 97.5415 38.3499 97.4901 38.3405C97.0888 38.2612 96.8274 37.8645 96.9068 37.4631L99.0069 27.0741C99.0862 26.6728 99.4783 26.4114 99.8843 26.4908C100.286 26.5701 100.547 26.9668 100.468 27.3682L98.3675 37.7572C98.2975 38.1119 97.9848 38.3545 97.6395 38.3545Z" fill="#0A0929"/>
<path d="M103.12 22.7151C103.834 24.5819 105.92 25.5154 107.787 24.806C109.654 24.0919 110.587 22.0057 109.878 20.1389C109.164 18.272 107.078 17.3386 105.211 18.048C103.344 18.7621 102.411 20.8483 103.12 22.7151Z" fill="white"/>
<path d="M107.347 22.5378C107.207 22.5378 107.062 22.4958 106.936 22.4118L105.037 21.1517C104.696 20.923 104.603 20.4609 104.827 20.1202C105.056 19.7795 105.518 19.6862 105.858 19.9102L107.758 21.1703C108.098 21.399 108.192 21.8611 107.968 22.2018C107.823 22.4164 107.59 22.5331 107.347 22.5331V22.5378Z" fill="#0A0929"/>
<path d="M114.641 20.4981C114.627 20.9602 114.986 21.3476 115.453 21.3616C115.92 21.3756 116.302 21.0162 116.316 20.5495C116.33 20.0828 115.971 19.7001 115.504 19.6861C115.042 19.6721 114.655 20.0314 114.641 20.4981Z" fill="#0A0929"/>
<path d="M114.635 34.6534C114.635 34.6534 114.602 34.6534 114.588 34.6534C113.058 34.5554 109.683 33.6966 109.539 33.6593C109.142 33.5566 108.899 33.1506 109.002 32.7539C109.105 32.3572 109.506 32.1145 109.907 32.2172C109.94 32.2265 113.291 33.0759 114.686 33.1646C115.097 33.1926 115.41 33.5473 115.382 33.9533C115.358 34.3454 115.027 34.6487 114.64 34.6487L114.635 34.6534Z" fill="#0A0929"/>
<path d="M113.566 38.0278C113.566 38.0278 110.505 39.4186 109.361 36.4036C108.582 34.3594 109.198 32.8473 109.198 32.8473L114.635 33.9114L113.566 38.0324V38.0278Z" fill="#0A0929"/>
<path d="M120.613 25.4873C120.23 25.4873 119.903 25.1933 119.871 24.8059L119.385 19.0747C119.353 18.664 119.656 18.3046 120.062 18.272C120.477 18.244 120.832 18.5427 120.865 18.9534L121.35 24.6846C121.383 25.0953 121.079 25.4546 120.669 25.4873C120.645 25.4873 120.627 25.4873 120.603 25.4873H120.613Z" fill="#0A0929"/>
<path d="M119.591 27.3494C119.563 27.3494 119.53 27.3494 119.502 27.3448C118.079 27.1721 117.379 25.7486 117.351 25.6879C117.173 25.3192 117.328 24.8712 117.701 24.6938C118.07 24.5165 118.513 24.6705 118.695 25.0392C118.704 25.0625 119.096 25.7953 119.684 25.8699C120.095 25.9166 120.384 26.29 120.333 26.696C120.286 27.0741 119.964 27.3541 119.596 27.3541L119.591 27.3494Z" fill="#0A0929"/>
<path d="M77.674 152.713H123.909C128.912 152.713 133.005 148.62 133.005 143.616C133.005 138.613 128.912 134.52 123.909 134.52H77.674C72.671 134.52 68.5781 138.613 68.5781 143.616C68.5781 148.62 72.671 152.713 77.674 152.713Z" fill="url(#paint10_linear_612_3271)"/>
<path d="M196.47 115.124C198.481 115.124 200.11 111.237 200.11 106.443C200.11 101.649 198.481 97.7621 196.47 97.7621C194.46 97.7621 192.83 101.649 192.83 106.443C192.83 111.237 194.46 115.124 196.47 115.124Z" fill="white"/>
<path d="M196.468 115.871C193.971 115.871 192.086 111.819 192.086 106.448C192.086 101.076 193.971 97.0247 196.468 97.0247C198.965 97.0247 200.85 101.076 200.85 106.448C200.85 111.819 198.965 115.871 196.468 115.871ZM196.468 98.5089C195.101 98.5089 193.575 101.902 193.575 106.443C193.575 110.984 195.101 114.377 196.468 114.377C197.836 114.377 199.362 110.984 199.362 106.443C199.362 101.902 197.836 98.5089 196.468 98.5089Z" fill="#0A0929"/>
<path d="M37.9203 178.494C37.6263 178.494 37.3463 178.316 37.2296 178.027L23.3828 143.892C23.2288 143.509 23.4108 143.075 23.7935 142.921C24.1762 142.767 24.6102 142.949 24.7642 143.332L38.611 177.467C38.765 177.85 38.583 178.284 38.2003 178.438C38.107 178.475 38.0136 178.494 37.9203 178.494Z" fill="url(#paint11_linear_612_3271)"/>
<path d="M121.643 174.924L123.995 194.203H167.132C168.07 194.203 168.667 193.662 168.672 192.864C168.733 180.967 151.708 181.364 151.708 181.364L150.448 173.071L121.639 174.919L121.643 174.924Z" fill="white"/>
<path d="M167.145 194.95H123.995C123.617 194.95 123.299 194.67 123.257 194.297L120.905 175.017C120.882 174.816 120.943 174.611 121.073 174.452C121.204 174.293 121.395 174.195 121.601 174.186L150.41 172.338C150.797 172.31 151.133 172.585 151.194 172.968L152.36 180.631C154.628 180.673 162.124 181.149 166.408 185.354C168.424 187.338 169.441 189.868 169.427 192.878C169.423 194.105 168.485 194.955 167.155 194.955L167.145 194.95ZM124.657 193.461H167.136C167.439 193.443 167.929 193.387 167.929 192.864C167.943 190.274 167.08 188.103 165.358 186.414C160.826 181.961 151.814 182.101 151.726 182.111C151.348 182.106 151.03 181.849 150.974 181.476L149.817 173.859L122.478 175.614L124.657 193.457V193.461Z" fill="#0A0929"/>
<path d="M123.995 194.203H167.131C168.069 194.203 168.667 193.662 168.671 192.864C168.732 180.967 151.707 181.364 151.707 181.364L151.628 180.841H122.361L123.99 194.203H123.995Z" fill="#0A0929"/>
<path d="M151.898 116.636C151.791 113.924 150.326 101.85 134.775 101.85C130.309 101.85 112.71 101.808 112.71 101.808H80.4197C80.4197 101.808 76.3828 109.803 76.3828 119.478C76.3828 119.795 76.3828 120.113 76.3968 120.421C76.7375 132.621 86.9487 142.235 99.1528 142.235H117.396L119.925 176.599H157.401L151.903 116.636H151.898Z" fill="white"/>
<path d="M157.399 177.346H119.923C119.531 177.346 119.209 177.042 119.181 176.655L116.703 142.982H99.1506C86.5406 142.982 76.0027 132.873 75.6527 120.444C75.6434 120.127 75.6387 119.805 75.6387 119.478C75.6387 109.738 79.5869 101.804 79.7549 101.472C79.8809 101.22 80.1376 101.062 80.4176 101.062H112.708C112.708 101.062 130.312 101.104 134.773 101.104C151.15 101.104 152.531 113.952 152.638 116.585L158.136 176.529C158.155 176.739 158.085 176.944 157.945 177.098C157.805 177.252 157.604 177.341 157.394 177.341L157.399 177.346ZM120.614 175.857H156.582L151.154 116.706C151.154 116.706 151.154 116.683 151.154 116.669C151.061 114.321 149.829 102.597 134.773 102.597C130.307 102.597 112.708 102.555 112.708 102.555H80.8936C80.1002 104.291 77.1274 111.32 77.1274 119.483C77.1274 119.795 77.1274 120.104 77.1414 120.407C77.4681 132.037 87.3433 141.498 99.1506 141.498H117.394C117.786 141.498 118.108 141.801 118.136 142.188L120.614 175.861V175.857Z" fill="#0A0929"/>
<path d="M117.394 142.982C117.226 142.982 117.058 142.926 116.918 142.809C116.6 142.548 116.558 142.076 116.82 141.759L125.607 131.188C125.869 130.871 126.34 130.829 126.657 131.09C126.975 131.351 127.017 131.823 126.755 132.14L117.968 142.716C117.818 142.893 117.608 142.986 117.394 142.986V142.982Z" fill="#0A0929"/>
<path d="M81.1497 49.1588C87.632 38.4291 98.954 35.7082 108.969 37.8457C108.969 37.8457 127.292 35.5962 133.662 52.8271C138.996 67.2625 146.328 64.3829 144.909 57.7929L166.162 47.8287C166.162 47.8287 194.057 83.6534 171.226 93.8277C166.802 95.7972 162.056 96.5813 157.239 96.4879L159.885 115.964C159.885 115.964 123.754 124.925 107.098 117.649C92.2896 111.18 91.8276 101.808 91.8276 101.808H79.4369C79.4369 101.808 74.504 60.1685 81.159 49.1588H81.1497Z" fill="url(#paint12_linear_612_3271)"/>
<path d="M125.15 121.261C118.317 121.261 111.746 120.496 106.795 118.33C93.914 112.702 91.5852 104.931 91.1699 102.551H79.4326C79.0545 102.551 78.7372 102.271 78.6952 101.893C78.4945 100.18 73.8136 59.8699 80.52 48.7715C86.4516 38.9519 97.0969 34.5928 109.007 37.0897C110.645 36.9357 128.146 35.7316 134.367 52.5659C137.176 60.1686 140.667 62.9875 142.716 62.3901C144.06 61.9981 144.667 60.1733 144.186 57.9424C144.112 57.6017 144.284 57.261 144.597 57.1116L165.85 47.1474C166.163 46.998 166.541 47.0913 166.756 47.362C167.465 48.2721 184.088 69.8435 180.439 84.4422C179.305 88.988 176.309 92.3716 171.534 94.4952C167.493 96.2967 162.975 97.2161 158.098 97.2301L160.628 115.857C160.679 116.235 160.436 116.589 160.068 116.678C159.022 116.935 141.358 121.252 125.159 121.252L125.15 121.261ZM80.0953 101.062H91.8186C92.2153 101.062 92.5419 101.374 92.5606 101.771C92.5653 101.855 93.2373 110.783 107.387 116.967C122.406 123.529 154.113 116.547 159.05 115.399L156.498 96.5907C156.47 96.376 156.535 96.1567 156.68 95.9933C156.824 95.83 157.03 95.7366 157.249 95.7459C162.247 95.844 166.844 94.9665 170.918 93.1464C175.249 91.2142 177.965 88.1712 178.983 84.0922C182.175 71.3323 168.352 52.0151 165.925 48.7575L145.736 58.2224C146.142 60.9853 145.11 63.2442 143.122 63.8229C140.541 64.5743 136.332 62.2128 132.962 53.0839C126.984 36.9077 110.37 38.4339 109.11 38.5739C109.012 38.5925 108.909 38.5925 108.811 38.5739C97.4983 36.161 87.3943 40.2587 81.7847 49.5416C75.7923 59.4592 79.5072 95.7179 80.0906 101.062H80.0953Z" fill="#0A0929"/>
<path d="M91.8192 102.55C91.5252 102.55 91.2452 102.373 91.1285 102.084C86.6716 91.0601 84.8655 66.147 84.7908 65.0923C84.7628 64.6816 85.0708 64.3269 85.4815 64.2989C85.8922 64.2662 86.2469 64.5789 86.2749 64.9896C86.2935 65.2463 88.137 90.7194 92.5099 101.528C92.6639 101.911 92.4819 102.345 92.0992 102.499C92.0059 102.536 91.9125 102.555 91.8192 102.555V102.55Z" fill="white"/>
<path d="M1.52725 144.891H63.1914L63.1914 97.9207H1.52725L1.52725 144.891Z" fill="white"/>
<path d="M63.196 145.633H1.53188C1.12119 145.633 0.785156 144.69 0.785156 143.532V10.9632C0.785156 9.80113 1.11653 8.86304 1.53188 8.86304H63.196C63.6067 8.86304 63.9427 9.80579 63.9427 10.9632V143.532C63.9427 144.695 63.6114 145.633 63.196 145.633ZM2.27391 143.761H62.4493V10.7345H2.27391V143.761Z" fill="#0A0929"/>
<path d="M161.251 63.7717C155.427 66.8193 148.235 64.4858 145.309 58.6052C142.467 52.8927 137.282 39.4001 137.282 39.4001C137.282 39.4001 134.365 29.3938 133.805 27.2236C132.316 21.427 131.448 17.5533 135.065 16.6432C138.892 15.6818 141.622 21.427 145.468 30.7472C145.468 30.7472 147.25 27.4243 150.877 27.5549C154.503 27.6856 155.194 29.3051 155.194 29.3051C155.194 29.3051 161.373 29.0017 162.651 33.2255C162.651 33.2255 167.575 35.9744 166.156 40.1141C165.195 42.9191 164.196 44.5899 164.196 44.5899L165.825 47.2548C169.367 53.0467 167.267 60.6307 161.251 63.7764V63.7717Z" fill="white"/>
<path d="M155.829 65.8578C154.536 65.8578 153.234 65.6524 151.965 65.2417C148.749 64.201 146.15 61.9608 144.642 58.9318C141.819 53.2566 136.639 39.7967 136.587 39.6613C136.578 39.6426 136.573 39.624 136.569 39.6006C136.447 39.1899 133.642 29.557 133.087 27.3962C131.869 22.6497 131.211 19.6208 132.392 17.6372C132.9 16.7785 133.74 16.1998 134.888 15.9104C139.14 14.8416 141.978 20.4188 145.646 29.221C146.584 28.1382 148.315 26.7054 150.905 26.8034C153.822 26.9061 155.087 27.9235 155.591 28.5443C157.075 28.5583 161.896 28.9036 163.273 32.712C165.182 33.8788 168.089 36.763 166.862 40.3427C166.148 42.4242 165.415 43.8944 165.06 44.5571L166.465 46.8533C168.285 49.8309 168.775 53.3266 167.842 56.6916C166.908 60.0566 164.692 62.8008 161.597 64.4203C159.782 65.3678 157.812 65.8485 155.829 65.8485V65.8578ZM137.987 39.1573C138.258 39.8573 143.242 52.7806 145.977 58.2691C147.303 60.934 149.594 62.9082 152.422 63.8229C155.255 64.7424 158.27 64.4857 160.907 63.1089C163.632 61.6854 165.583 59.2678 166.404 56.3042C167.226 53.3406 166.796 50.265 165.191 47.6374L163.562 44.9725C163.417 44.7391 163.417 44.4404 163.562 44.2024C163.571 44.1837 164.538 42.5503 165.457 39.8667C166.656 36.371 162.47 33.9721 162.293 33.8694C162.125 33.7761 161.999 33.6221 161.943 33.4354C160.846 29.809 155.288 30.0424 155.232 30.0424C154.919 30.0517 154.634 29.8791 154.513 29.5897C154.513 29.5897 153.85 28.3996 150.854 28.2922C147.732 28.1989 146.145 31.0645 146.126 31.0925C145.991 31.3445 145.72 31.4939 145.431 31.4845C145.142 31.4705 144.89 31.2932 144.782 31.0272C141.264 22.505 138.524 16.5358 135.253 17.3619C134.482 17.5532 133.978 17.8893 133.67 18.4073C132.723 20.0035 133.642 23.5785 134.529 27.0321C135.061 29.109 137.815 38.5505 137.987 39.1573Z" fill="#0A0929"/>
<path d="M145.036 45.8404C144.863 45.8404 144.69 45.7798 144.55 45.6584C144.238 45.3877 144.205 44.921 144.471 44.6083C144.527 44.543 150.211 37.897 149.847 33.9253C149.777 33.1646 149.483 32.5858 148.942 32.1518C148.228 31.5777 147.458 31.3817 146.585 31.5497C142.707 32.2871 138.539 39.5352 138.497 39.6098C138.292 39.9692 137.839 40.0905 137.48 39.8899C137.121 39.6845 136.999 39.2318 137.2 38.8771C137.382 38.5551 141.75 30.9617 146.301 30.0889C147.607 29.8369 148.811 30.1449 149.871 30.9944C150.729 31.6851 151.219 32.6232 151.322 33.7946C151.742 38.3917 145.839 45.2944 145.591 45.5884C145.442 45.7611 145.236 45.8451 145.026 45.8451L145.036 45.8404Z" fill="#0A0929"/>
<path d="M149.156 39.7733C149.021 39.7733 148.885 39.736 148.764 39.6613C148.414 39.4466 148.307 38.9846 148.526 38.6345L154.565 28.9083C154.78 28.5583 155.242 28.4509 155.592 28.6703C155.942 28.8849 156.049 29.347 155.83 29.697L149.791 39.4233C149.651 39.652 149.408 39.7733 149.156 39.7733Z" fill="#0A0929"/>
<path d="M153.155 46.3165C152.361 46.3165 151.582 46.1299 150.835 45.7658C147.629 44.1837 147.592 40.646 147.592 40.4967C147.592 40.0859 147.923 39.7499 148.338 39.7499C148.754 39.7499 149.085 40.0813 149.085 40.4967C149.085 40.604 149.137 43.2642 151.498 44.431C152.45 44.9024 153.449 44.9584 154.457 44.599C156.006 44.0483 157.234 42.6622 157.719 41.6028C158.624 39.6286 161.854 33.1646 161.994 32.8939C162.181 32.5252 162.624 32.3806 162.993 32.5626C163.361 32.7446 163.511 33.1926 163.324 33.5613C163.291 33.6267 159.968 40.2773 159.072 42.2281C158.442 43.6049 156.926 45.3084 154.956 46.0038C154.359 46.2139 153.757 46.3212 153.159 46.3212L153.155 46.3165Z" fill="#0A0929"/>
<path d="M160.047 48.0807C159.744 48.0807 159.431 48.0387 159.123 47.9407C156.005 46.9746 156.285 44.445 156.379 43.6143C156.425 43.2036 156.794 42.9142 157.2 42.9562C157.611 43.0029 157.905 43.3716 157.858 43.7776C157.737 44.8604 157.769 45.9618 159.562 46.5172C161.396 47.0866 163.57 44.1743 163.594 44.1416C163.836 43.8103 164.298 43.7356 164.635 43.9736C164.966 44.2163 165.041 44.6784 164.803 45.0144C164.7 45.1544 162.553 48.076 160.052 48.076L160.047 48.0807Z" fill="#0A0929"/>
<path d="M156.409 91.1348C156.385 91.1348 156.357 91.1348 156.334 91.1348C156.087 91.1115 131.8 88.4185 130.708 69.9275C130.647 68.91 130.605 67.9113 130.559 66.9265C130.199 58.9644 129.891 52.0898 121.995 45.0704C120.03 43.3249 117.734 41.8455 115.167 40.6694C114.794 40.4967 114.63 40.058 114.798 39.6846C114.971 39.3112 115.41 39.1479 115.783 39.3159C118.485 40.5527 120.907 42.1162 122.98 43.9597C131.343 51.399 131.683 58.9084 132.038 66.8612C132.08 67.8413 132.127 68.8307 132.187 69.8388C133.2 87.0604 156.245 89.6273 156.479 89.6507C156.89 89.6927 157.183 90.0567 157.141 90.4674C157.104 90.8501 156.777 91.1348 156.404 91.1348H156.409Z" fill="white"/>
<path d="M141.029 103.176C140.917 110.891 147.492 117.014 155.179 116.347C161.479 115.801 167.971 114.956 170.3 113.71C170.682 118.806 176.143 117.042 176.143 117.042C179.046 118.526 180.59 118.666 183.792 117.359C184.044 117.257 184.272 117.14 184.511 117.028C187.343 117.947 193.597 117.569 193.597 104.413C193.597 95.3119 187.157 91.1909 183.88 90.3368C176.749 88.4886 169.222 90.2948 166.701 90.8735C166.076 91.0182 165.432 91.0602 164.793 90.9995C162.282 90.7662 155.604 90.1828 153.083 90.3741C146.358 90.8782 141.131 96.432 141.033 103.171L141.029 103.176Z" fill="white"/>
<path d="M180.147 119.002C178.868 119.002 177.636 118.619 176.063 117.84C175.256 118.041 173.03 118.451 171.378 117.341C170.533 116.771 169.973 115.913 169.712 114.783C167.229 115.698 162.375 116.473 155.249 117.093C151.371 117.429 147.52 116.104 144.674 113.453C141.827 110.807 140.231 107.059 140.287 103.171C140.394 95.9933 145.868 90.1734 153.027 89.6414C155.571 89.4547 162.151 90.0194 164.858 90.2714C165.418 90.3228 165.983 90.2854 166.533 90.1594L166.701 90.1221C169.492 89.478 176.913 87.7745 184.067 89.6274C188.197 90.7008 194.344 95.5219 194.344 104.422C194.344 110.695 192.953 114.886 190.213 116.874C188.006 118.479 185.602 118.101 184.58 117.826C184.417 117.905 184.254 117.98 184.076 118.055C182.536 118.685 181.323 119.007 180.152 119.007L180.147 119.002ZM176.138 116.3C176.255 116.3 176.371 116.328 176.479 116.379C179.274 117.807 180.586 117.863 183.507 116.669C183.694 116.594 183.862 116.51 184.034 116.426L184.179 116.356C184.352 116.272 184.548 116.258 184.73 116.319C185.5 116.566 187.483 117.005 189.327 115.665C191.628 113.994 192.841 110.102 192.841 104.417C192.841 95.4099 186.228 91.7229 183.68 91.0648C176.875 89.3007 169.716 90.9482 167.023 91.5689L166.855 91.6062C166.151 91.7696 165.427 91.8162 164.709 91.7462C162.039 91.4989 155.557 90.9388 153.125 91.1208C146.741 91.5969 141.859 96.7867 141.766 103.19C141.715 106.658 143.143 109.999 145.682 112.361C148.22 114.722 151.655 115.908 155.113 115.604C165.045 114.741 168.662 113.742 169.945 113.052C170.169 112.935 170.435 112.935 170.654 113.052C170.874 113.173 171.018 113.397 171.037 113.649C171.126 114.811 171.513 115.632 172.199 116.095C173.608 117.047 175.886 116.337 175.909 116.328C175.984 116.305 176.059 116.295 176.138 116.295V116.3Z" fill="#0A0929"/>
<path d="M171.118 114.196C175.046 113.265 177.475 109.326 176.545 105.399C175.614 101.471 171.676 99.0413 167.748 99.972C163.821 100.903 161.391 104.841 162.322 108.769C163.252 112.697 167.191 115.126 171.118 114.196Z" fill="#0A0929"/>
<path d="M184.505 117.77C184.36 117.77 184.215 117.728 184.089 117.644C183.749 117.415 183.66 116.949 183.889 116.608C189.858 107.787 187.337 101.921 187.314 101.865C187.146 101.491 187.314 101.052 187.683 100.88C188.056 100.712 188.495 100.87 188.667 101.244C188.789 101.51 191.598 107.876 185.125 117.443C184.981 117.658 184.747 117.77 184.509 117.77H184.505Z" fill="#0A0929"/>
<path d="M176.143 117.789C175.919 117.789 175.699 117.686 175.55 117.499C175.298 117.173 175.359 116.706 175.685 116.454C183.516 110.438 180.362 102.163 180.329 102.084C180.18 101.701 180.366 101.267 180.749 101.118C181.132 100.964 181.566 101.155 181.715 101.538C181.752 101.631 185.304 110.947 176.595 117.639C176.46 117.742 176.301 117.793 176.143 117.793V117.789Z" fill="#0A0929"/>
<path d="M23.6432 19.7888H14.9813C13.7673 19.7888 12.7832 20.773 12.7832 21.987V30.6492C12.7832 31.8632 13.7673 32.8474 14.9813 32.8474H23.6432C24.8572 32.8474 25.8413 31.8632 25.8413 30.6492V21.987C25.8413 20.773 24.8572 19.7888 23.6432 19.7888Z" fill="url(#paint13_linear_612_3271)"/>
<path d="M48.3932 19.7888H39.7313C38.5173 19.7888 37.5332 20.773 37.5332 21.987V30.6492C37.5332 31.8632 38.5173 32.8474 39.7313 32.8474H48.3932C49.6071 32.8474 50.5913 31.8632 50.5913 30.6492V21.987C50.5913 20.773 49.6071 19.7888 48.3932 19.7888Z" fill="url(#paint14_linear_612_3271)"/>
<path d="M23.6432 39.2366H14.9813C13.7673 39.2366 12.7832 40.2207 12.7832 41.4348V50.0969C12.7832 51.311 13.7673 52.2951 14.9813 52.2951H23.6432C24.8572 52.2951 25.8413 51.311 25.8413 50.0969V41.4348C25.8413 40.2207 24.8572 39.2366 23.6432 39.2366Z" fill="url(#paint15_linear_612_3271)"/>
<path d="M48.3932 39.2366H39.7313C38.5173 39.2366 37.5332 40.2207 37.5332 41.4348V50.0969C37.5332 51.311 38.5173 52.2951 39.7313 52.2951H48.3932C49.6071 52.2951 50.5913 51.311 50.5913 50.0969V41.4348C50.5913 40.2207 49.6071 39.2366 48.3932 39.2366Z" fill="url(#paint16_linear_612_3271)"/>
<path d="M23.6432 61.5081H14.9813C13.7673 61.5081 12.7832 62.4922 12.7832 63.7063V72.3684C12.7832 73.5825 13.7673 74.5666 14.9813 74.5666H23.6432C24.8572 74.5666 25.8413 73.5825 25.8413 72.3684V63.7063C25.8413 62.4922 24.8572 61.5081 23.6432 61.5081Z" fill="url(#paint17_linear_612_3271)"/>
<path d="M48.3932 61.5081H39.7313C38.5173 61.5081 37.5332 62.4922 37.5332 63.7063V72.3684C37.5332 73.5825 38.5173 74.5666 39.7313 74.5666H48.3932C49.6071 74.5666 50.5913 73.5825 50.5913 72.3684V63.7063C50.5913 62.4922 49.6071 61.5081 48.3932 61.5081Z" fill="url(#paint18_linear_612_3271)"/>
<path d="M23.6432 82.3373H14.9813C13.7673 82.3373 12.7832 83.3215 12.7832 84.5355V93.1977C12.7832 94.4117 13.7673 95.3959 14.9813 95.3959H23.6432C24.8572 95.3959 25.8413 94.4117 25.8413 93.1977V84.5355C25.8413 83.3215 24.8572 82.3373 23.6432 82.3373Z" fill="url(#paint19_linear_612_3271)"/>
<path d="M48.3932 82.3373H39.7313C38.5173 82.3373 37.5332 83.3215 37.5332 84.5355V93.1977C37.5332 94.4117 38.5173 95.3959 39.7313 95.3959H48.3932C49.6071 95.3959 50.5913 94.4117 50.5913 93.1977V84.5355C50.5913 83.3215 49.6071 82.3373 48.3932 82.3373Z" fill="url(#paint20_linear_612_3271)"/>
<path d="M23.6432 103.199H14.9813C13.7673 103.199 12.7832 104.184 12.7832 105.398V114.06C12.7832 115.274 13.7673 116.258 14.9813 116.258H23.6432C24.8572 116.258 25.8413 115.274 25.8413 114.06V105.398C25.8413 104.184 24.8572 103.199 23.6432 103.199Z" fill="url(#paint21_linear_612_3271)"/>
<path d="M48.3932 103.199H39.7313C38.5173 103.199 37.5332 104.183 37.5332 105.397V114.06C37.5332 115.274 38.5173 116.258 39.7313 116.258H48.3932C49.6071 116.258 50.5913 115.274 50.5913 114.06V105.397C50.5913 104.183 49.6071 103.199 48.3932 103.199Z" fill="url(#paint22_linear_612_3271)"/>
<path d="M94.0441 12.1003C95.4395 4.19425 102.981 -1.07958 110.882 0.315886C117.565 1.49666 122.372 7.07386 122.848 13.5471L93.8574 13.5751C93.8948 13.0851 93.9554 12.5904 94.0441 12.1003Z" fill="url(#paint23_linear_612_3271)"/>
<path d="M140.948 14.2938H94.2975C93.8868 14.2938 93.5508 13.9624 93.5508 13.547C93.5508 13.1317 93.8822 12.8003 94.2975 12.8003H140.948C141.359 12.8003 141.695 13.1317 141.695 13.547C141.695 13.9624 141.364 14.2938 140.948 14.2938Z" fill="#0A0929"/>
<defs>
<linearGradient id="paint0_linear_612_3271" x1="47.468" y1="152.316" x2="209.117" y2="152.316" gradientUnits="userSpaceOnUse">
<stop stop-color="#293A7C"/>
<stop offset="0.41" stop-color="#252D6C"/>
<stop offset="1" stop-color="#221F5A"/>
</linearGradient>
<linearGradient id="paint1_linear_612_3271" x1="175.138" y1="205.759" x2="234.744" y2="205.759" gradientUnits="userSpaceOnUse">
<stop stop-color="#293A7C"/>
<stop offset="0.41" stop-color="#252D6C"/>
<stop offset="1" stop-color="#221F5A"/>
</linearGradient>
<linearGradient id="paint2_linear_612_3271" x1="192.162" y1="205.754" x2="217.704" y2="205.754" gradientUnits="userSpaceOnUse">
<stop stop-color="#293A7C"/>
<stop offset="0.41" stop-color="#252D6C"/>
<stop offset="1" stop-color="#221F5A"/>
</linearGradient>
<linearGradient id="paint3_linear_612_3271" x1="170.031" y1="189.419" x2="239.835" y2="189.419" gradientUnits="userSpaceOnUse">
<stop stop-color="#293A7C"/>
<stop offset="0.41" stop-color="#252D6C"/>
<stop offset="1" stop-color="#221F5A"/>
</linearGradient>
<linearGradient id="paint4_linear_612_3271" x1="169.291" y1="189.419" x2="240.583" y2="189.419" gradientUnits="userSpaceOnUse">
<stop stop-color="#293A7C"/>
<stop offset="0.41" stop-color="#252D6C"/>
<stop offset="1" stop-color="#221F5A"/>
</linearGradient>
<linearGradient id="paint5_linear_612_3271" x1="27.7406" y1="205.755" x2="87.3467" y2="205.755" gradientUnits="userSpaceOnUse">
<stop stop-color="#293A7C"/>
<stop offset="0.41" stop-color="#252D6C"/>
<stop offset="1" stop-color="#221F5A"/>
</linearGradient>
<linearGradient id="paint6_linear_612_3271" x1="44.7703" y1="205.754" x2="70.3124" y2="205.754" gradientUnits="userSpaceOnUse">
<stop stop-color="#293A7C"/>
<stop offset="0.41" stop-color="#252D6C"/>
<stop offset="1" stop-color="#221F5A"/>
</linearGradient>
<linearGradient id="paint7_linear_612_3271" x1="22.2617" y1="189.419" x2="92.065" y2="189.419" gradientUnits="userSpaceOnUse">
<stop stop-color="#293A7C"/>
<stop offset="0.41" stop-color="#252D6C"/>
<stop offset="1" stop-color="#221F5A"/>
</linearGradient>
<linearGradient id="paint8_linear_612_3271" x1="21.5191" y1="189.419" x2="92.8064" y2="189.419" gradientUnits="userSpaceOnUse">
<stop stop-color="#293A7C"/>
<stop offset="0.41" stop-color="#252D6C"/>
<stop offset="1" stop-color="#221F5A"/>
</linearGradient>
<linearGradient id="paint9_linear_612_3271" x1="4.6871" y1="147.663" x2="78.4199" y2="147.663" gradientUnits="userSpaceOnUse">
<stop stop-color="#293A7C"/>
<stop offset="0.41" stop-color="#252D6C"/>
<stop offset="1" stop-color="#221F5A"/>
</linearGradient>
<linearGradient id="paint10_linear_612_3271" x1="68.5781" y1="143.616" x2="133" y2="143.616" gradientUnits="userSpaceOnUse">
<stop stop-color="#293A7C"/>
<stop offset="0.41" stop-color="#252D6C"/>
<stop offset="1" stop-color="#221F5A"/>
</linearGradient>
<linearGradient id="paint11_linear_612_3271" x1="23.3315" y1="160.684" x2="38.667" y2="160.684" gradientUnits="userSpaceOnUse">
<stop stop-color="#293A7C"/>
<stop offset="0.41" stop-color="#252D6C"/>
<stop offset="1" stop-color="#221F5A"/>
</linearGradient>
<linearGradient id="paint12_linear_612_3271" x1="77.6681" y1="78.8369" x2="180.205" y2="78.8369" gradientUnits="userSpaceOnUse">
<stop stop-color="#293A7C"/>
<stop offset="0.41" stop-color="#252D6C"/>
<stop offset="1" stop-color="#221F5A"/>
</linearGradient>
<linearGradient id="paint13_linear_612_3271" x1="12.7832" y1="26.3181" x2="25.8413" y2="26.3181" gradientUnits="userSpaceOnUse">
<stop stop-color="#293A7C"/>
<stop offset="0.41" stop-color="#252D6C"/>
<stop offset="1" stop-color="#221F5A"/>
</linearGradient>
<linearGradient id="paint14_linear_612_3271" x1="37.5332" y1="26.3181" x2="50.5913" y2="26.3181" gradientUnits="userSpaceOnUse">
<stop stop-color="#293A7C"/>
<stop offset="0.41" stop-color="#252D6C"/>
<stop offset="1" stop-color="#221F5A"/>
</linearGradient>
<linearGradient id="paint15_linear_612_3271" x1="12.7832" y1="45.7659" x2="25.8413" y2="45.7659" gradientUnits="userSpaceOnUse">
<stop stop-color="#293A7C"/>
<stop offset="0.41" stop-color="#252D6C"/>
<stop offset="1" stop-color="#221F5A"/>
</linearGradient>
<linearGradient id="paint16_linear_612_3271" x1="37.5332" y1="45.7659" x2="50.5913" y2="45.7659" gradientUnits="userSpaceOnUse">
<stop stop-color="#293A7C"/>
<stop offset="0.41" stop-color="#252D6C"/>
<stop offset="1" stop-color="#221F5A"/>
</linearGradient>
<linearGradient id="paint17_linear_612_3271" x1="12.7832" y1="68.0373" x2="25.8413" y2="68.0373" gradientUnits="userSpaceOnUse">
<stop stop-color="#293A7C"/>
<stop offset="0.41" stop-color="#252D6C"/>
<stop offset="1" stop-color="#221F5A"/>
</linearGradient>
<linearGradient id="paint18_linear_612_3271" x1="37.5332" y1="68.0373" x2="50.5913" y2="68.0373" gradientUnits="userSpaceOnUse">
<stop stop-color="#293A7C"/>
<stop offset="0.41" stop-color="#252D6C"/>
<stop offset="1" stop-color="#221F5A"/>
</linearGradient>
<linearGradient id="paint19_linear_612_3271" x1="12.7832" y1="88.8666" x2="25.8413" y2="88.8666" gradientUnits="userSpaceOnUse">
<stop stop-color="#293A7C"/>
<stop offset="0.41" stop-color="#252D6C"/>
<stop offset="1" stop-color="#221F5A"/>
</linearGradient>
<linearGradient id="paint20_linear_612_3271" x1="37.5332" y1="88.8666" x2="50.5913" y2="88.8666" gradientUnits="userSpaceOnUse">
<stop stop-color="#293A7C"/>
<stop offset="0.41" stop-color="#252D6C"/>
<stop offset="1" stop-color="#221F5A"/>
</linearGradient>
<linearGradient id="paint21_linear_612_3271" x1="12.7832" y1="109.729" x2="25.8413" y2="109.729" gradientUnits="userSpaceOnUse">
<stop stop-color="#293A7C"/>
<stop offset="0.41" stop-color="#252D6C"/>
<stop offset="1" stop-color="#221F5A"/>
</linearGradient>
<linearGradient id="paint22_linear_612_3271" x1="37.5332" y1="109.729" x2="50.5913" y2="109.729" gradientUnits="userSpaceOnUse">
<stop stop-color="#293A7C"/>
<stop offset="0.41" stop-color="#252D6C"/>
<stop offset="1" stop-color="#221F5A"/>
</linearGradient>
<linearGradient id="paint23_linear_612_3271" x1="93.8574" y1="6.83584" x2="122.848" y2="6.83584" gradientUnits="userSpaceOnUse">
<stop stop-color="#293A7C"/>
<stop offset="0.41" stop-color="#252D6C"/>
<stop offset="1" stop-color="#221F5A"/>
</linearGradient>
</defs>
</svg>
