<svg width="241" height="223" viewBox="0 0 241 223" fill="none" xmlns="http://www.w3.org/2000/svg">
<path d="M94.6469 202.88L13.0974 202.875L11.3867 222.19H99.5804L94.6469 202.88Z" fill="white"/>
<path d="M233.222 9.19336H94.4745C91.0767 9.19336 88.3223 11.9479 88.3223 15.3458V109.415C88.3223 112.813 91.0767 115.568 94.4745 115.568H233.222C236.62 115.568 239.374 112.813 239.374 109.415V15.3458C239.374 11.9479 236.62 9.19336 233.222 9.19336Z" fill="white"/>
<path d="M239.374 69.5621H88.3223V93.9282H239.374V69.5621Z" fill="url(#paint0_linear_612_3269)"/>
<path d="M233.127 116.263H94.5691C90.7414 116.263 87.627 113.148 87.627 109.321V15.436C87.627 11.6082 90.7414 8.49365 94.5691 8.49365H233.127C236.954 8.49365 240.069 11.6082 240.069 15.436V109.321C240.069 113.148 236.954 116.263 233.127 116.263ZM94.5691 9.88845C91.5088 9.88845 89.0217 12.3801 89.0217 15.436V109.321C89.0217 112.381 91.5133 114.868 94.5691 114.868H233.127C236.187 114.868 238.674 112.376 238.674 109.321V15.436C238.674 12.3756 236.183 9.88845 233.127 9.88845H94.5691Z" fill="url(#paint1_linear_612_3269)"/>
<path d="M193.943 19.9092H167.303C166.668 19.9092 166.152 20.4245 166.152 21.0602V38.6328C166.152 39.2685 166.668 39.7839 167.303 39.7839H193.943C194.579 39.7839 195.094 39.2685 195.094 38.6328V21.0602C195.094 20.4245 194.579 19.9092 193.943 19.9092Z" fill="url(#paint2_linear_612_3269)"/>
<path d="M229.625 19.9092H202.985C202.349 19.9092 201.834 20.4245 201.834 21.0602V38.6328C201.834 39.2685 202.349 39.7839 202.985 39.7839H229.625C230.261 39.7839 230.776 39.2685 230.776 38.6328V21.0602C230.776 20.4245 230.261 19.9092 229.625 19.9092Z" fill="url(#paint3_linear_612_3269)"/>
<path d="M34.3885 88.5841C45.3849 84.6054 51.0741 72.4654 47.0956 61.4686C43.1171 50.4717 30.9775 44.7823 19.9811 48.7609C8.98468 52.7396 3.29551 64.8796 7.27399 75.8765C11.2525 86.8733 23.392 92.5627 34.3885 88.5841Z" fill="url(#paint4_linear_612_3269)"/>
<path d="M48.0568 51.7096C48.3637 56.5891 44.6534 60.7961 39.7696 61.0985C34.8902 61.4055 30.6835 57.6951 30.381 52.811C30.0741 47.9315 33.7844 43.7245 38.6682 43.4221C43.5476 43.1152 47.7544 46.8256 48.0568 51.7096Z" fill="url(#paint5_linear_612_3269)"/>
<path d="M39.5173 60.7825C37.0844 60.7825 34.7644 59.9068 32.9228 58.2818C30.9232 56.5169 29.7316 54.0794 29.5646 51.4162C29.2215 45.9228 33.4148 41.1696 38.908 40.8266C44.4057 40.479 49.1541 44.6769 49.4972 50.1703C49.8402 55.6638 45.647 60.4169 40.1538 60.7599C39.9416 60.7735 39.7295 60.778 39.5173 60.778V60.7825ZM39.5354 42.271C39.3593 42.271 39.1788 42.2755 38.9982 42.2891C36.7233 42.429 34.6425 43.4492 33.1349 45.1599C31.6273 46.8662 30.8781 49.0599 31.018 51.3349C31.1579 53.6099 32.178 55.6908 33.8842 57.1985C35.5904 58.7061 37.784 59.4599 40.059 59.3155C44.7532 59.0221 48.3326 54.9641 48.0392 50.2742C47.7594 45.7603 43.9949 42.2801 39.5354 42.2801V42.271Z" fill="url(#paint6_linear_612_3269)"/>
<path d="M145.857 109.704C165.896 89.665 165.896 57.1748 145.857 37.1354C125.818 17.0961 93.3295 17.0961 73.2909 37.1354C53.2523 57.1748 53.2523 89.665 73.2909 109.704C93.3295 129.744 125.818 129.744 145.857 109.704Z" fill="white"/>
<path d="M109.608 125.44C107.035 125.44 104.435 125.25 101.813 124.853C73.4578 120.574 53.8682 94.0184 58.1473 65.6621C60.2191 51.9263 67.5177 39.82 78.6982 31.5731C89.8787 23.3262 103.6 19.9273 117.336 21.9992C145.691 26.2783 165.28 52.8336 161.001 81.1899C157.115 106.928 134.881 125.444 109.608 125.444V125.44ZM109.468 22.7981C98.7392 22.7981 88.326 26.2016 79.5288 32.6926C68.6507 40.7183 61.5461 52.4995 59.5285 65.8697C55.3623 93.4677 74.4237 119.305 102.021 123.472C129.618 127.638 155.454 108.576 159.62 80.9777C163.786 53.3798 144.725 27.5422 117.128 23.3759C114.569 22.9877 112.01 22.7981 109.468 22.7981Z" fill="url(#paint7_linear_612_3269)"/>
<path d="M95.3144 69.6026C94.5561 69.6026 93.7933 69.544 93.0259 69.4311C84.7929 68.1898 79.1011 60.4755 80.3469 52.2422C80.9472 48.2519 83.0687 44.7356 86.314 42.3387C89.5594 39.9418 93.545 38.9578 97.5351 39.5581C105.773 40.7995 111.46 48.5137 110.219 56.7471C109.618 60.7374 107.497 64.2537 104.252 66.6506C101.625 68.587 98.5191 69.6026 95.3144 69.6026ZM95.2738 40.7814C88.6115 40.7814 82.7482 45.6609 81.7281 52.4453C80.5997 59.9203 85.7634 66.9214 93.2381 68.0499C96.8626 68.596 100.478 67.7023 103.426 65.5266C106.373 63.3509 108.296 60.1596 108.842 56.5394C109.388 52.9193 108.494 49.2991 106.319 46.3561C104.143 43.4085 100.952 41.4856 97.332 40.9394C96.6414 40.8356 95.9553 40.7859 95.2783 40.7859L95.2738 40.7814Z" fill="url(#paint8_linear_612_3269)"/>
<path d="M123.903 107.461C123.145 107.461 122.382 107.402 121.619 107.289C117.629 106.689 114.113 104.567 111.716 101.322C109.319 98.0763 108.335 94.0905 108.935 90.1002C109.536 86.1099 111.657 82.5936 114.903 80.2013C118.148 77.8044 122.134 76.8203 126.124 77.4207C130.114 78.021 133.63 80.1426 136.022 83.3881C138.419 86.6336 139.403 90.6193 138.803 94.6096C138.202 98.5999 136.081 102.116 132.836 104.509C130.209 106.445 127.103 107.461 123.898 107.461H123.903ZM123.84 78.6394C120.933 78.6394 118.112 79.5603 115.729 81.3207C112.781 83.4964 110.858 86.6877 110.312 90.3079C109.766 93.928 110.66 97.5482 112.835 100.491C115.011 103.439 118.202 105.362 121.822 105.908C125.442 106.454 129.062 105.556 132.005 103.385C134.953 101.209 136.875 98.0176 137.422 94.3975C137.968 90.7773 137.074 87.1572 134.898 84.2141C132.723 81.2665 129.532 79.3436 125.912 78.7974C125.216 78.6936 124.526 78.6394 123.835 78.6394H123.84Z" fill="url(#paint9_linear_612_3269)"/>
<path d="M92.8078 86.1596C92.5911 86.1596 92.379 86.0603 92.239 85.8707C92.0133 85.5592 92.0856 85.1214 92.397 84.8957L125.934 60.8141C126.245 60.5884 126.683 60.6606 126.909 60.972C127.135 61.2835 127.062 61.7213 126.751 61.947L93.214 86.0287C93.0921 86.119 92.9477 86.1596 92.8078 86.1596Z" fill="url(#paint10_linear_612_3269)"/>
<path d="M71.1976 81.2124C68.5345 80.7565 65.9301 82.1332 63.9756 83.7898C59.999 87.1527 61.9038 85.3742 59.999 87.1527C59.0286 83.835 58.2793 72.3516 58.2793 72.3516C58.2793 72.3516 52.5153 73.0874 42.7566 88.8183C41.1813 91.3596 40.757 107.524 40.432 110.268C40.238 111.88 35.7739 122.799 32.0094 131.8C29.229 138.444 32.6955 146.05 39.5338 148.316C46.3089 150.564 53.576 146.623 55.395 139.722C57.5345 131.601 59.8817 122.569 59.7779 122.447C61.3261 121.567 65.0318 117.96 66.0113 112.178C66.7019 108.097 64.084 106.441 65.1582 103.376C66.7922 98.7218 71.2021 95.6433 73.4815 91.3416C75.1967 88.1096 76.1175 82.0475 71.2021 81.2079L71.1976 81.2124Z" fill="white"/>
<path d="M43.4468 149.657C42.0611 149.657 40.6709 149.431 39.3122 148.984C35.8683 147.842 33.0336 145.292 31.5306 141.992C30.0275 138.692 29.9688 134.883 31.3681 131.538C38.4591 114.584 39.6598 110.887 39.741 110.192C39.8223 109.505 39.9126 107.921 40.0254 105.917C40.4858 97.7919 40.9959 90.3395 42.1649 88.4572C51.9823 72.627 57.9404 71.6971 58.1931 71.6655C58.3872 71.6384 58.5768 71.6971 58.7258 71.819C58.8747 71.9408 58.965 72.1214 58.9785 72.311C58.983 72.4148 59.5969 81.6864 60.4049 85.8301C60.5674 85.6857 60.6441 85.627 60.7885 85.5141C61.0368 85.3246 61.5513 84.9318 63.5284 83.2572C65.3519 81.7134 68.182 79.9891 71.3191 80.5218C73.0027 80.8107 74.253 81.6954 74.9391 83.0857C76.1668 85.5773 75.3633 89.2787 74.0995 91.6666C73.0704 93.603 71.6305 95.3003 70.2358 96.9433C68.4167 99.0829 66.7015 101.101 65.8213 103.606C65.3609 104.919 65.695 105.926 66.1147 107.194C66.5661 108.553 67.0762 110.092 66.706 112.291C65.7897 117.712 62.4586 121.562 60.3958 122.889C60.1747 124.284 59.1681 128.157 56.0762 139.893C55.1464 143.423 52.8669 146.321 49.6622 148.059C47.7168 149.115 45.5953 149.648 43.4603 149.648L43.4468 149.657ZM57.6425 73.2995C55.846 74.085 50.7726 77.2176 43.3475 89.193C42.2687 90.9308 41.7135 100.73 41.4156 105.994C41.2983 108.025 41.208 109.627 41.1222 110.354C40.9597 111.717 38.1116 119.025 32.65 132.075C31.3816 135.104 31.4358 138.422 32.7944 141.414C34.1576 144.407 36.6266 146.623 39.7501 147.661C42.842 148.686 46.1234 148.397 48.9851 146.844C51.8514 145.292 53.8825 142.701 54.7131 139.55C58.3195 125.855 59.0056 122.939 59.0733 122.469C59.0733 122.424 59.0733 122.379 59.0823 122.334C59.1185 122.131 59.2448 121.95 59.4254 121.846C60.9555 120.975 64.404 117.441 65.3158 112.065C65.6318 110.21 65.1984 108.905 64.7787 107.641C64.3318 106.301 63.8714 104.915 64.4943 103.15C65.4602 100.396 67.3425 98.1846 69.1615 96.0451C70.5066 94.4607 71.9013 92.8221 72.8582 91.0211C73.9957 88.8725 74.6457 85.6721 73.6797 83.7086C73.1877 82.7065 72.3346 82.1152 71.0753 81.903C68.4664 81.4607 66.0154 82.9773 64.4176 84.327C62.4135 86.0197 61.8809 86.4305 61.6236 86.6246C61.4701 86.7419 61.0834 87.0895 60.4635 87.6673C60.2875 87.8343 60.0347 87.893 59.8045 87.8298C59.5698 87.7666 59.3893 87.586 59.3216 87.3513C58.491 84.5121 57.8366 76.0936 57.638 73.2995H57.6425Z" fill="url(#paint11_linear_612_3269)"/>
<path d="M50.6958 97.494C50.5243 97.494 50.3527 97.4308 50.2173 97.3044C49.9375 97.0426 49.9239 96.6003 50.1857 96.3204L59.2718 86.6607C59.5336 86.3808 59.976 86.3673 60.2558 86.6291C60.5357 86.8909 60.5492 87.3333 60.2874 87.6131L51.2013 97.2728C51.0659 97.4173 50.8808 97.494 50.6913 97.494H50.6958Z" fill="url(#paint12_linear_612_3269)"/>
<path d="M27.5783 64.5697C27.2804 63.4277 28.0657 62.2902 29.2393 62.1683C38.5737 61.1933 42.3381 53.9801 44.3377 56.1739C46.0123 58.011 47.3845 60.435 48.4587 63.2065C56.7459 84.5663 54.972 90.493 41.2594 92.5423L42.7624 103.439L19.8192 103.737L18.2168 87.8614C26.6484 90.1861 32.7104 84.7378 30.3361 75.0691L27.5783 64.5652V64.5697Z" fill="white"/>
<path d="M19.819 104.432C19.4624 104.432 19.16 104.161 19.1239 103.804L17.5215 87.929C17.4809 87.5454 17.7607 87.2023 18.1444 87.1662C18.5281 87.1256 18.8711 87.4054 18.9072 87.7891L20.4464 103.028L41.9588 102.748L40.5641 92.6325C40.5099 92.2533 40.7762 91.9058 41.1508 91.8471C46.9149 90.9849 50.1512 89.4502 51.6543 86.8638C53.8841 83.0269 52.7647 76.2426 47.8041 63.4547C46.7614 60.7689 43.9855 56.088 43.9584 56.0429C43.7598 55.7134 43.8726 55.2845 44.2021 55.0859C44.5316 54.8918 44.9604 55.0002 45.159 55.3297C45.2764 55.5238 48.0207 60.1595 49.1085 62.9536C54.3129 76.3644 55.3646 83.2662 52.8685 87.5679C51.1984 90.4433 47.8492 92.1676 42.0491 93.12L43.4574 103.339C43.4844 103.538 43.4258 103.737 43.2949 103.89C43.164 104.044 42.9744 104.129 42.7758 104.134L19.8325 104.432H19.8235H19.819Z" fill="url(#paint13_linear_612_3269)"/>
<path d="M35.9357 93.8739C35.5882 93.8739 35.2858 93.6121 35.2451 93.26C35.2 92.8764 35.4708 92.5288 35.8545 92.4837L41.1762 91.8472C41.5598 91.8021 41.9074 92.0729 41.9525 92.4566C41.9977 92.8403 41.7269 93.1878 41.3432 93.233L36.0215 93.8694C35.9944 93.8694 35.9673 93.8739 35.9357 93.8739Z" fill="url(#paint14_linear_612_3269)"/>
<path d="M99.5793 222.89C99.2679 222.89 98.9835 222.682 98.9023 222.366L94.1042 203.58H13.7328L12.0808 222.254C12.0447 222.637 11.7107 222.922 11.3225 222.886C10.9388 222.849 10.6545 222.511 10.6906 222.127L12.4013 202.812C12.4329 202.451 12.7353 202.176 13.0964 202.176H94.6458C94.9663 202.176 95.2417 202.397 95.3229 202.704L100.256 222.014C100.351 222.389 100.126 222.768 99.7554 222.863C99.6967 222.877 99.638 222.886 99.5839 222.886L99.5793 222.89Z" fill="url(#paint15_linear_612_3269)"/>
<path d="M53.5268 102.189C64.6712 111.112 72.5702 139.166 88.3231 139.166C106.053 139.166 118.19 108.612 118.19 108.612L151.786 122.636C151.786 122.636 134.462 184.847 118.651 199.264C99.5758 216.661 80.8664 211.452 62.6896 202.875H13.0974C13.7338 184.734 4.11053 132.477 4.11053 132.477L4.02929 130.96C3.36577 118.831 9.50895 107.118 19.8318 100.726C27.3291 96.0857 43.1091 93.8423 53.5268 102.189Z" fill="url(#paint16_linear_612_3269)"/>
<path d="M91.1894 211.52C90.9005 211.52 90.6116 211.52 90.3227 211.511C80.2571 211.294 70.6384 207.389 62.5363 203.575H13.0974C12.9079 203.575 12.7273 203.494 12.5964 203.358C12.4655 203.223 12.3933 203.038 12.4023 202.848C13.0252 184.996 3.51931 133.131 3.42453 132.608C3.42001 132.581 3.4155 132.549 3.4155 132.517L3.33425 131.001C2.65268 118.542 8.83648 106.716 19.4663 100.135C26.8869 95.5441 42.9783 92.8448 53.9647 101.642C58.2302 105.059 61.9314 111.054 65.8493 117.4C72.2453 127.755 78.8579 138.467 88.3232 138.467C105.376 138.467 117.423 108.652 117.54 108.354C117.608 108.183 117.744 108.043 117.92 107.971C118.091 107.899 118.285 107.899 118.457 107.971L152.052 121.995C152.377 122.131 152.549 122.488 152.454 122.826C151.745 125.376 134.896 185.398 119.12 199.783C110.468 207.674 101.323 211.52 91.1849 211.52H91.1894ZM13.8106 202.176H62.6897C62.7935 202.176 62.8928 202.203 62.9876 202.248C83.3084 211.831 100.47 214.905 118.181 198.754C132.847 185.38 149.119 129.443 150.947 123.043L118.57 109.524C116.638 114.119 105.069 139.861 88.3232 139.861C78.077 139.861 71.2568 128.816 64.6622 118.136C60.8075 111.893 57.1649 105.998 53.089 102.735C43.0821 94.7225 27.5549 96.7673 20.1975 101.322C10.001 107.637 4.06999 118.98 4.72448 130.928L4.80573 132.4C5.1262 134.16 14.1762 183.782 13.8151 202.18L13.8106 202.176Z" fill="url(#paint17_linear_612_3269)"/>
<path d="M48.8959 77.3485C48.6251 77.3485 48.3678 77.1905 48.255 76.9242L44.4048 67.8287C44.2558 67.4721 44.4183 67.0659 44.7749 66.9124C45.127 66.7634 45.5377 66.9259 45.6912 67.2825L49.5414 76.378C49.6903 76.7346 49.5278 77.1409 49.1713 77.2944C49.081 77.3305 48.9907 77.3485 48.9004 77.3485H48.8959Z" fill="url(#paint18_linear_612_3269)"/>
<path d="M22.563 79.4882C23.6688 82.7788 27.2347 84.5527 30.5252 83.4514C33.8157 82.3455 35.5896 78.7795 34.4882 75.4888C33.3824 72.1982 29.8165 70.4243 26.526 71.5256C23.2355 72.6315 21.4616 76.1975 22.563 79.4882Z" fill="white"/>
<path d="M29.9793 78.8833C29.8394 78.8833 29.6949 78.8382 29.5731 78.7524L26.3638 76.4278C26.0524 76.2021 25.9801 75.7642 26.2058 75.4527C26.4315 75.1413 26.8693 75.0691 27.1808 75.2948L30.3901 77.6194C30.7015 77.8451 30.7737 78.283 30.548 78.5944C30.4126 78.784 30.2005 78.8833 29.9838 78.8833H29.9793Z" fill="url(#paint19_linear_612_3269)"/>
<path d="M63.1586 204.681C63.0457 204.681 62.9374 204.654 62.8291 204.6C34.7943 189.618 17.9175 146.38 17.7505 145.946C17.6106 145.585 17.7911 145.183 18.1522 145.043C18.5133 144.904 18.9151 145.084 19.055 145.445C19.222 145.874 35.9137 188.634 63.4881 203.368C63.8266 203.548 63.9575 203.972 63.7724 204.311C63.6461 204.546 63.4068 204.681 63.1586 204.681Z" fill="white"/>
<path d="M36.5557 71.6159C36.6324 72.3923 37.323 72.9566 38.0994 72.8843C38.8757 72.8076 39.4399 72.117 39.3632 71.3406C39.2865 70.5642 38.5959 70 37.8195 70.0767C37.0431 70.1534 36.4789 70.8441 36.5511 71.6204L36.5557 71.6159Z" fill="url(#paint20_linear_612_3269)"/>
<path d="M47.2621 68.1537C47.3388 68.9301 48.0294 69.4943 48.8058 69.4221C49.5821 69.3453 50.1464 68.6547 50.0741 67.8783C49.9974 67.1019 49.3068 66.5377 48.5304 66.6099C47.7541 66.6867 47.1899 67.3773 47.2621 68.1537Z" fill="url(#paint21_linear_612_3269)"/>
<path d="M46.2147 82.5395C45.664 82.5395 45.1179 82.4086 44.6169 82.1468C42.9062 81.2621 42.2336 79.1541 43.1183 77.4433C43.2041 77.2808 43.3485 77.1544 43.5245 77.1003C43.7006 77.0461 43.8901 77.0596 44.0572 77.1454L49.0177 79.7093C49.3608 79.8853 49.4962 80.3051 49.3156 80.6482C48.8868 81.4742 48.1646 82.0881 47.2754 82.3725C46.9279 82.4853 46.5668 82.5395 46.2102 82.5395H46.2147ZM44.1429 78.7614C44.0256 79.6145 44.4453 80.4902 45.2578 80.91C45.7543 81.1673 46.323 81.2124 46.8557 81.0454C47.1581 80.9506 47.4289 80.7881 47.6546 80.576L44.1429 78.7614Z" fill="url(#paint22_linear_612_3269)"/>
<path d="M168.853 86.575C168.397 86.11 167.869 85.8031 167.305 85.609C168.46 81.6142 168.889 76.6263 167.052 74.1437C165.892 72.5774 164.276 72.2794 162.732 72.4961C162.985 69.9367 162.57 67.2916 160.575 65.8291C156.58 62.9041 153.249 67.8829 151.646 70.036C150.049 72.1937 137.072 86.5704 137.072 86.5704C137.072 86.5704 136.205 70.6138 129.547 71.6836C122.894 72.7534 125.801 85.293 125.277 89.9559C124.691 95.1378 117.875 109.46 117.875 109.46C114.756 117.676 117.952 126.943 125.471 131.488C135.095 137.311 147.643 133.091 151.795 122.636L156.553 110.652C164.696 100.469 171.543 89.3329 168.857 86.575H168.853Z" fill="white"/>
<path d="M134.872 134.819C131.468 134.819 128.088 133.894 125.104 132.089C117.295 127.367 113.978 117.748 117.219 109.217C117.228 109.199 117.232 109.181 117.241 109.163C117.309 109.023 124.016 94.8896 124.581 89.8791C124.707 88.7597 124.621 87.0625 124.526 85.2659C124.237 79.6236 123.84 71.8958 129.433 70.9975C130.724 70.7899 131.911 71.1149 132.958 71.959C136.19 74.5635 137.287 81.6774 137.625 84.9093C140.767 81.4156 149.785 71.3631 151.081 69.6208L151.333 69.2822C153.049 66.944 156.623 62.078 160.979 65.2649C162.744 66.5603 163.602 68.7857 163.48 71.7378C165.218 71.7062 166.617 72.3923 167.61 73.7284C169.551 76.351 169.181 81.2621 168.138 85.1982C168.594 85.4239 169 85.7218 169.352 86.083C173.27 90.1048 161.101 106.066 157.156 111.004L152.435 122.894C150.381 128.067 146.174 132.052 140.898 133.826C138.93 134.49 136.894 134.815 134.867 134.815L134.872 134.819ZM118.51 109.74C115.526 117.635 118.6 126.527 125.822 130.897C130.232 133.565 135.567 134.151 140.455 132.508C145.344 130.865 149.234 127.173 151.139 122.384L155.897 110.399C155.924 110.336 155.955 110.273 156.001 110.223C165.118 98.8212 170.314 89.0802 168.35 87.067C167.998 86.7059 167.583 86.4486 167.077 86.2771C166.725 86.1597 166.527 85.7805 166.63 85.4239C167.65 81.885 168.228 76.9197 166.486 74.568C165.637 73.417 164.437 72.9701 162.821 73.1958C162.609 73.2274 162.396 73.1552 162.243 73.0062C162.09 72.8572 162.013 72.6496 162.031 72.4329C162.225 70.4468 162.058 67.7926 160.153 66.3978C157.17 64.2131 154.615 67.1697 152.453 70.1128L152.2 70.4604C150.598 72.618 138.117 86.4576 137.585 87.0489C137.395 87.2566 137.102 87.3333 136.835 87.2385C136.569 87.1437 136.388 86.9 136.37 86.6201C136.366 86.5163 135.747 76.0079 132.082 73.0513C131.342 72.4555 130.552 72.2388 129.654 72.3833C125.298 73.0829 125.641 79.8041 125.917 85.2027C126.016 87.1392 126.102 88.8093 125.962 90.0462C125.375 95.2236 118.929 108.86 118.505 109.745L118.51 109.74Z" fill="url(#paint23_linear_612_3269)"/>
<path d="M150.755 90.1952C150.615 90.1952 150.475 90.1545 150.353 90.0688C150.037 89.8476 149.961 89.4097 150.186 89.0983L162.157 72.0989C162.378 71.783 162.816 71.7107 163.127 71.9319C163.443 72.1531 163.52 72.591 163.294 72.9024L151.324 89.9018C151.188 90.0958 150.972 90.1997 150.755 90.1997V90.1952Z" fill="url(#paint24_linear_612_3269)"/>
<path d="M158.865 99.6743C158.739 99.6743 158.608 99.6382 158.495 99.566C158.17 99.3584 158.071 98.9296 158.279 98.6046L166.715 85.2389C166.922 84.9139 167.351 84.8146 167.676 85.0222C168.001 85.2299 168.101 85.6587 167.893 85.9837L159.457 99.3493C159.326 99.5615 159.096 99.6743 158.865 99.6743Z" fill="url(#paint25_linear_612_3269)"/>
<path d="M132.887 93.5761C132.757 93.5761 132.621 93.54 132.504 93.4587C132.183 93.2465 132.093 92.8132 132.31 92.4927L136.489 86.1913C136.702 85.8708 137.135 85.7806 137.455 85.9972C137.776 86.2094 137.866 86.6427 137.649 86.9632L133.47 93.2646C133.334 93.4677 133.113 93.5761 132.887 93.5761Z" fill="url(#paint26_linear_612_3269)"/>
<defs>
<linearGradient id="paint0_linear_612_3269" x1="88.3223" y1="81.7451" x2="239.374" y2="81.7451" gradientUnits="userSpaceOnUse">
<stop stop-color="#293A7C"/>
<stop offset="0.41" stop-color="#252D6C"/>
<stop offset="1" stop-color="#221F5A"/>
</linearGradient>
<linearGradient id="paint1_linear_612_3269" x1="87.627" y1="62.3805" x2="240.069" y2="62.3805" gradientUnits="userSpaceOnUse">
<stop stop-color="#293A7C"/>
<stop offset="0.41" stop-color="#252D6C"/>
<stop offset="1" stop-color="#221F5A"/>
</linearGradient>
<linearGradient id="paint2_linear_612_3269" x1="166.152" y1="29.8488" x2="195.094" y2="29.8488" gradientUnits="userSpaceOnUse">
<stop stop-color="#293A7C"/>
<stop offset="0.41" stop-color="#252D6C"/>
<stop offset="1" stop-color="#221F5A"/>
</linearGradient>
<linearGradient id="paint3_linear_612_3269" x1="201.834" y1="29.8488" x2="230.776" y2="29.8488" gradientUnits="userSpaceOnUse">
<stop stop-color="#293A7C"/>
<stop offset="0.41" stop-color="#252D6C"/>
<stop offset="1" stop-color="#221F5A"/>
</linearGradient>
<linearGradient id="paint4_linear_612_3269" x1="6.00883" y1="68.6756" x2="48.3566" y2="68.6756" gradientUnits="userSpaceOnUse">
<stop stop-color="#293A7C"/>
<stop offset="0.41" stop-color="#252D6C"/>
<stop offset="1" stop-color="#221F5A"/>
</linearGradient>
<linearGradient id="paint5_linear_612_3269" x1="30.363" y1="52.2603" x2="48.0748" y2="52.2603" gradientUnits="userSpaceOnUse">
<stop stop-color="#293A7C"/>
<stop offset="0.41" stop-color="#252D6C"/>
<stop offset="1" stop-color="#221F5A"/>
</linearGradient>
<linearGradient id="paint6_linear_612_3269" x1="29.542" y1="50.7978" x2="49.5152" y2="50.7978" gradientUnits="userSpaceOnUse">
<stop stop-color="#293A7C"/>
<stop offset="0.41" stop-color="#252D6C"/>
<stop offset="1" stop-color="#221F5A"/>
</linearGradient>
<linearGradient id="paint7_linear_612_3269" x1="57.5605" y1="73.4215" x2="161.588" y2="73.4215" gradientUnits="userSpaceOnUse">
<stop stop-color="#293A7C"/>
<stop offset="0.41" stop-color="#252D6C"/>
<stop offset="1" stop-color="#221F5A"/>
</linearGradient>
<linearGradient id="paint8_linear_612_3269" x1="80.1754" y1="54.4946" x2="110.39" y2="54.4946" gradientUnits="userSpaceOnUse">
<stop stop-color="#293A7C"/>
<stop offset="0.41" stop-color="#252D6C"/>
<stop offset="1" stop-color="#221F5A"/>
</linearGradient>
<linearGradient id="paint9_linear_612_3269" x1="108.759" y1="92.3527" x2="138.979" y2="92.3527" gradientUnits="userSpaceOnUse">
<stop stop-color="#293A7C"/>
<stop offset="0.41" stop-color="#252D6C"/>
<stop offset="1" stop-color="#221F5A"/>
</linearGradient>
<linearGradient id="paint10_linear_612_3269" x1="92.1081" y1="73.4214" x2="127.04" y2="73.4214" gradientUnits="userSpaceOnUse">
<stop stop-color="#293A7C"/>
<stop offset="0.41" stop-color="#252D6C"/>
<stop offset="1" stop-color="#221F5A"/>
</linearGradient>
<linearGradient id="paint11_linear_612_3269" x1="30.357" y1="110.657" x2="75.5439" y2="110.657" gradientUnits="userSpaceOnUse">
<stop stop-color="#293A7C"/>
<stop offset="0.41" stop-color="#252D6C"/>
<stop offset="1" stop-color="#221F5A"/>
</linearGradient>
<linearGradient id="paint12_linear_612_3269" x1="49.9961" y1="91.9645" x2="60.477" y2="91.9645" gradientUnits="userSpaceOnUse">
<stop stop-color="#293A7C"/>
<stop offset="0.41" stop-color="#252D6C"/>
<stop offset="1" stop-color="#221F5A"/>
</linearGradient>
<linearGradient id="paint13_linear_612_3269" x1="17.5215" y1="79.7092" x2="54.1639" y2="79.7092" gradientUnits="userSpaceOnUse">
<stop stop-color="#293A7C"/>
<stop offset="0.41" stop-color="#252D6C"/>
<stop offset="1" stop-color="#221F5A"/>
</linearGradient>
<linearGradient id="paint14_linear_612_3269" x1="35.2406" y1="92.8583" x2="41.9571" y2="92.8583" gradientUnits="userSpaceOnUse">
<stop stop-color="#293A7C"/>
<stop offset="0.41" stop-color="#252D6C"/>
<stop offset="1" stop-color="#221F5A"/>
</linearGradient>
<linearGradient id="paint15_linear_612_3269" x1="10.6861" y1="212.535" x2="100.279" y2="212.535" gradientUnits="userSpaceOnUse">
<stop stop-color="#293A7C"/>
<stop offset="0.41" stop-color="#252D6C"/>
<stop offset="1" stop-color="#221F5A"/>
</linearGradient>
<linearGradient id="paint16_linear_612_3269" x1="3.97964" y1="153.706" x2="151.791" y2="153.706" gradientUnits="userSpaceOnUse">
<stop stop-color="#293A7C"/>
<stop offset="0.41" stop-color="#252D6C"/>
<stop offset="1" stop-color="#221F5A"/>
</linearGradient>
<linearGradient id="paint17_linear_612_3269" x1="3.28009" y1="153.688" x2="152.486" y2="153.688" gradientUnits="userSpaceOnUse">
<stop stop-color="#293A7C"/>
<stop offset="0.41" stop-color="#252D6C"/>
<stop offset="1" stop-color="#221F5A"/>
</linearGradient>
<linearGradient id="paint18_linear_612_3269" x1="44.3506" y1="72.1034" x2="49.5955" y2="72.1034" gradientUnits="userSpaceOnUse">
<stop stop-color="#293A7C"/>
<stop offset="0.41" stop-color="#252D6C"/>
<stop offset="1" stop-color="#221F5A"/>
</linearGradient>
<linearGradient id="paint19_linear_612_3269" x1="26.0749" y1="77.0281" x2="30.6789" y2="77.0281" gradientUnits="userSpaceOnUse">
<stop stop-color="#293A7C"/>
<stop offset="0.41" stop-color="#252D6C"/>
<stop offset="1" stop-color="#221F5A"/>
</linearGradient>
<linearGradient id="paint20_linear_612_3269" x1="36.5466" y1="71.476" x2="39.3677" y2="71.476" gradientUnits="userSpaceOnUse">
<stop stop-color="#293A7C"/>
<stop offset="0.41" stop-color="#252D6C"/>
<stop offset="1" stop-color="#221F5A"/>
</linearGradient>
<linearGradient id="paint21_linear_612_3269" x1="47.2576" y1="68.0137" x2="50.0786" y2="68.0137" gradientUnits="userSpaceOnUse">
<stop stop-color="#293A7C"/>
<stop offset="0.41" stop-color="#252D6C"/>
<stop offset="1" stop-color="#221F5A"/>
</linearGradient>
<linearGradient id="paint22_linear_612_3269" x1="42.7301" y1="79.8041" x2="49.3969" y2="79.8041" gradientUnits="userSpaceOnUse">
<stop stop-color="#293A7C"/>
<stop offset="0.41" stop-color="#252D6C"/>
<stop offset="1" stop-color="#221F5A"/>
</linearGradient>
<linearGradient id="paint23_linear_612_3269" x1="115.982" y1="99.5163" x2="170.119" y2="99.5163" gradientUnits="userSpaceOnUse">
<stop stop-color="#293A7C"/>
<stop offset="0.41" stop-color="#252D6C"/>
<stop offset="1" stop-color="#221F5A"/>
</linearGradient>
<linearGradient id="paint24_linear_612_3269" x1="150.06" y1="80.9958" x2="163.425" y2="80.9958" gradientUnits="userSpaceOnUse">
<stop stop-color="#293A7C"/>
<stop offset="0.41" stop-color="#252D6C"/>
<stop offset="1" stop-color="#221F5A"/>
</linearGradient>
<linearGradient id="paint25_linear_612_3269" x1="158.17" y1="92.2941" x2="167.997" y2="92.2941" gradientUnits="userSpaceOnUse">
<stop stop-color="#293A7C"/>
<stop offset="0.41" stop-color="#252D6C"/>
<stop offset="1" stop-color="#221F5A"/>
</linearGradient>
<linearGradient id="paint26_linear_612_3269" x1="132.192" y1="89.7257" x2="137.767" y2="89.7257" gradientUnits="userSpaceOnUse">
<stop stop-color="#293A7C"/>
<stop offset="0.41" stop-color="#252D6C"/>
<stop offset="1" stop-color="#221F5A"/>
</linearGradient>
</defs>
</svg>
