<svg width="241" height="184" viewBox="0 0 241 184" fill="none" xmlns="http://www.w3.org/2000/svg">
<path d="M88.8106 63.4744C98.8855 63.4744 107.053 55.3068 107.053 45.2315C107.053 35.1562 98.8855 26.9886 88.8106 26.9886C78.7357 26.9886 70.5684 35.1562 70.5684 45.2315C70.5684 55.3068 78.7357 63.4744 88.8106 63.4744Z" fill="url(#paint0_linear_86_2551)"/>
<path d="M127.057 156.64L63.264 154.384C52.0015 158.064 47.9523 170.83 46.4531 183.152H131.739L127.057 156.64Z" fill="url(#paint1_linear_86_2551)"/>
<path d="M131.738 183.754H46.4524C46.2792 183.754 46.1172 183.679 46.0042 183.551C45.8912 183.423 45.8384 183.249 45.8573 183.08C47.8725 166.517 53.5075 156.942 63.0787 153.811C63.1465 153.789 63.2143 153.781 63.2859 153.781L127.079 156.038C127.362 156.049 127.599 156.256 127.648 156.535L132.33 183.046C132.36 183.219 132.311 183.4 132.198 183.536C132.085 183.671 131.916 183.75 131.738 183.75V183.754ZM47.1342 182.553H131.023L126.552 157.224L63.3537 154.99C54.4605 157.951 49.1494 166.973 47.138 182.553H47.1342Z" fill="#232C6E"/>
<path d="M196.806 126.343C197.545 94.3703 196.701 54.0837 196.904 60.8603L161.147 59.9826C161.147 59.9826 162.62 93.8241 155.534 97.139C149.553 99.9377 142.445 91.1421 136.776 85.3562C126.836 75.2083 119.95 71.0007 97.9752 71.6448C97.9752 71.6448 85.5337 69.3621 60.4247 74.0895C23.7557 80.9904 15.7213 114.64 5.295 136.642C-9.92632 168.77 18.648 191.258 50.2207 164.875V168.766L129.371 168.423L123.917 134.589C149.142 172.359 195.65 176.571 196.814 126.336L196.806 126.343Z" fill="white"/>
<path d="M23.149 177.087C17.7551 177.087 12.8207 175.52 8.95979 172.533C-0.524814 165.191 -2.17838 151.001 4.74862 136.386C6.35701 132.992 7.8938 129.353 9.52103 125.5C13.8716 115.205 18.7984 103.535 26.46 93.8994C35.2854 82.7985 46.3595 76.1236 60.3115 73.4981C84.3093 68.9816 96.9918 70.8764 98.0164 71.0421C120.432 70.3942 127.476 75.0049 137.205 84.9343C137.917 85.6613 138.656 86.4373 139.409 87.2321C144.581 92.679 150.442 98.8566 155.278 96.5928C160.793 94.0125 160.951 69.3056 160.548 60.0052C160.54 59.8395 160.604 59.6775 160.717 59.5569C160.834 59.4364 160.996 59.3724 161.162 59.3761L196.283 60.2387V60.2237C196.283 60.1973 196.283 60.1785 196.283 60.1672H196.29C196.324 59.6662 196.452 59.508 196.866 59.5004C197.281 59.4929 197.42 59.6963 197.473 60.1446H197.477C197.477 60.1446 197.477 60.1672 197.477 60.186C197.495 60.3668 197.503 60.5853 197.511 60.8414C197.511 60.9092 197.503 60.9771 197.484 61.0411C197.492 61.689 197.503 62.6458 197.514 63.7758C197.627 73.3286 197.966 102.405 197.413 126.359C196.953 146.161 189.457 159.172 176.3 162.999C168.311 165.319 158.702 163.888 149.24 158.968C140.132 154.23 131.77 146.711 124.933 137.128L129.966 168.336C129.992 168.51 129.943 168.687 129.83 168.822C129.717 168.958 129.551 169.033 129.374 169.033L50.2242 169.376C50.0585 169.384 49.9116 169.312 49.7986 169.203C49.6856 169.09 49.6215 168.935 49.6215 168.777V166.155C42.1973 172.13 34.453 175.81 27.1568 176.816C25.8008 177.004 24.4674 177.094 23.1566 177.094L23.149 177.087ZM88.9423 71.7088C82.7122 71.7088 73.2314 72.2927 60.5337 74.6809C29.8538 80.4555 19.6422 104.635 10.6285 125.971C8.99748 129.835 7.45308 133.485 5.83339 136.902C-0.841236 150.99 0.672985 164.604 9.69428 171.584C19.646 179.287 35.4022 176.473 49.8287 164.415C50.0095 164.264 50.2581 164.234 50.469 164.332C50.68 164.43 50.8156 164.645 50.8156 164.878V168.167L128.662 167.832L123.321 134.691C123.276 134.412 123.43 134.141 123.694 134.035C123.958 133.93 124.255 134.024 124.414 134.261C131.401 144.726 140.177 152.9 149.79 157.898C158.977 162.675 168.27 164.076 175.961 161.842C188.572 158.177 195.763 145.566 196.207 126.328C196.761 102.394 196.418 73.3361 196.309 63.7871C196.298 62.8303 196.29 62.0393 196.283 61.4441L161.776 60.5966C161.987 66.2055 162.702 94.4494 155.79 97.6814C150.167 100.311 143.989 93.8015 138.539 88.0608C137.789 87.2698 137.058 86.5013 136.347 85.7743C126.643 75.8712 120.082 71.5958 97.99 72.2437C97.9486 72.2437 97.9071 72.2437 97.8657 72.2324C97.8054 72.2211 94.8222 71.7013 88.9423 71.7013V71.7088Z" fill="#2A3B7B"/>
<path d="M91.4962 88.9348C75.175 88.9348 60.1646 74.6772 60.0064 74.5265C59.7654 74.2967 59.7616 73.9163 59.9914 73.6752C60.2211 73.4379 60.6016 73.4304 60.8426 73.6601C61.0084 73.8183 77.5443 89.5186 94.4381 87.5674C111.151 85.6425 113.871 72.8992 113.976 72.3606C114.04 72.0366 114.356 71.8257 114.68 71.8859C115.004 71.95 115.219 72.2664 115.155 72.5904C115.129 72.7297 112.187 86.7312 94.5736 88.7615C93.5453 88.8783 92.5208 88.9348 91.5 88.9348H91.4962Z" fill="#2A3B7B"/>
<path d="M122.771 128.103C122.583 128.103 122.394 128.012 122.278 127.846C122.089 127.575 122.153 127.199 122.425 127.01C126.421 124.215 128.805 119.642 128.805 114.772C128.805 108.707 125.182 103.29 119.577 100.974C119.272 100.846 119.125 100.495 119.249 100.19C119.374 99.885 119.728 99.7381 120.033 99.8624C126.09 102.364 130.003 108.217 130.003 114.768C130.003 120.03 127.427 124.972 123.11 127.99C123.005 128.061 122.884 128.099 122.767 128.099L122.771 128.103Z" fill="#0A0929"/>
<path d="M119.81 101.023C119.478 101.023 119.207 100.755 119.207 100.424V93.2629C119.207 92.9314 119.474 92.6602 119.806 92.6602C120.137 92.6602 120.409 92.9276 120.409 93.2591V100.42C120.409 100.751 120.141 101.023 119.81 101.023Z" fill="#2A3B7B"/>
<path d="M125.287 143.739C124.997 143.739 124.741 143.528 124.696 143.234L122.176 127.594C122.123 127.266 122.345 126.957 122.673 126.905C123.001 126.852 123.309 127.074 123.362 127.402L125.882 143.042C125.935 143.37 125.713 143.679 125.385 143.731C125.351 143.735 125.321 143.739 125.287 143.739Z" fill="#0A0929"/>
<path d="M94.063 21.3121C95.5565 12.8848 89.9358 4.84226 81.5087 3.34871C73.0817 1.85515 65.0395 7.47612 63.546 15.9035C62.0525 24.3308 67.6733 32.3733 76.1003 33.8669C84.5274 35.3604 92.5695 29.7395 94.063 21.3121Z" fill="url(#paint2_linear_86_2551)"/>
<path d="M78.7671 34.8954C69.8927 34.8954 62.6719 27.6743 62.6719 18.7995C62.6719 9.92481 69.8927 2.70374 78.7671 2.70374C87.6415 2.70374 94.8623 9.92481 94.8623 18.7995C94.8623 27.6743 87.6415 34.8954 78.7671 34.8954ZM78.7671 3.9016C70.5556 3.9016 63.8735 10.584 63.8735 18.7958C63.8735 27.0075 70.5556 33.69 78.7671 33.69C86.9785 33.69 93.6607 27.0075 93.6607 18.7958C93.6607 10.584 86.9785 3.9016 78.7671 3.9016Z" fill="#2A3B7B"/>
<path d="M77.1797 75.6189L79.4209 60.8753C87.4892 58.2348 83.1763 48.4937 83.1763 48.4937C91.7833 48.569 94.774 40.0069 96.0547 35.3059C96.4088 34.0063 97.8477 33.3396 99.0681 33.9159C101.603 35.1213 105.272 37.1629 105.701 39.9994C107.713 53.2776 111.762 66.3599 97.4861 67.5276V75.6151H77.1835L77.1797 75.6189Z" fill="white"/>
<path d="M77.6565 73.0762C77.6263 73.0762 77.5962 73.0762 77.5661 73.0687C77.2384 73.0197 77.0124 72.7108 77.0614 72.3831L78.8242 60.7849C78.8731 60.4572 79.182 60.2312 79.5097 60.2802C79.8374 60.3291 80.0634 60.638 80.0145 60.9657L78.2516 72.5639C78.2064 72.8615 77.9503 73.0762 77.6565 73.0762Z" fill="#2A3B7B"/>
<path d="M97.4816 74.2929C97.1501 74.2929 96.8789 74.0255 96.8789 73.6902V67.5314C96.8789 67.2188 97.12 66.9588 97.4288 66.9325C101.128 66.6311 103.678 65.5086 105.233 63.5084C108.356 59.4929 107.128 52.2417 105.829 44.5611C105.584 43.1146 105.331 41.6191 105.105 40.1312C105.026 39.8713 104.469 38.1235 103.267 36.3719C103.079 36.0969 103.15 35.724 103.422 35.5357C103.697 35.3473 104.07 35.4189 104.258 35.6901C105.67 37.7506 106.247 39.747 106.269 39.8337C106.277 39.8563 106.281 39.8826 106.284 39.909C106.51 41.4007 106.767 42.9036 107.011 44.3614C108.356 52.3057 109.625 59.8131 106.179 64.2467C104.488 66.424 101.832 67.6783 98.0767 68.0776V73.6902C98.0767 74.0217 97.8093 74.2929 97.474 74.2929H97.4816Z" fill="#2A3B7B"/>
<path d="M97.4816 68.1304C93.3458 68.1304 90.2081 66.9739 90.0763 66.9212C89.7674 66.8044 89.6092 66.4579 89.726 66.149C89.8427 65.8401 90.1893 65.6819 90.4981 65.7949C90.5283 65.8062 93.5756 66.925 97.4816 66.925C97.8131 66.925 98.0843 67.1924 98.0843 67.5277C98.0843 67.8629 97.8169 68.1304 97.4816 68.1304Z" fill="#0A0929"/>
<path d="M97.4799 72.6431C97.4799 72.6431 95.0955 74.7186 92.6848 73.0348C90.2741 71.351 89.7129 66.0812 89.7129 66.0812L97.4799 67.5314V72.6431Z" fill="#2A3B7B"/>
<path d="M102.582 53.6392C102.325 53.6392 102.088 53.4735 102.009 53.2173L99.5719 45.4124C99.474 45.096 99.651 44.7569 99.9674 44.659C100.284 44.5573 100.623 44.7381 100.721 45.0545L103.158 52.8595C103.256 53.1759 103.079 53.5149 102.762 53.6128C102.702 53.6317 102.642 53.6392 102.582 53.6392Z" fill="#2A3B7B"/>
<path d="M151.379 94.9203H77.7397C75.8674 94.9203 74.3496 96.4381 74.3496 98.3105V144.409C74.3496 146.282 75.8674 147.8 77.7397 147.8H151.379C153.251 147.8 154.769 146.282 154.769 144.409V98.3105C154.769 96.4381 153.251 94.9203 151.379 94.9203Z" fill="url(#paint3_linear_86_2551)"/>
<path d="M114.561 127.779C118.106 127.779 120.98 124.905 120.98 121.36C120.98 117.815 118.106 114.941 114.561 114.941C111.016 114.941 108.143 117.815 108.143 121.36C108.143 124.905 111.016 127.779 114.561 127.779Z" fill="white"/>
<path d="M13.0353 134.442C12.8131 134.442 12.5984 134.318 12.4929 134.099C12.3498 133.802 12.4741 133.44 12.7754 133.297C30.1588 124.95 49.9529 122.727 50.1488 122.708C50.4765 122.671 50.7741 122.912 50.8118 123.24C50.8494 123.571 50.6083 123.865 50.2806 123.903C50.0848 123.925 30.4903 126.125 13.2952 134.382C13.2124 134.423 13.122 134.442 13.0353 134.442Z" fill="#2A3B7B"/>
<path d="M50.2172 165.477C50.0289 165.477 49.8481 165.391 49.7275 165.229C49.5354 164.958 49.5957 164.585 49.8631 164.389L63.4685 154.591C63.736 154.395 64.1127 154.459 64.3085 154.727C64.5006 154.994 64.4403 155.371 64.1729 155.567L50.5675 165.364C50.462 165.44 50.3378 165.477 50.2172 165.477Z" fill="#232C6E"/>
<path d="M50.212 123.906C49.8806 123.906 49.6094 123.639 49.6094 123.304V93.2591C49.6094 92.9276 49.8768 92.6564 50.212 92.6564C50.5473 92.6564 50.8147 92.9238 50.8147 93.2591V123.304C50.8147 123.635 50.5473 123.906 50.212 123.906Z" fill="#2A3B7B"/>
<path d="M164.002 26.838L199.42 28.1564L196.384 66.2959C195.714 74.7073 189.205 81.4801 180.828 82.4821C171.076 83.6498 162.254 76.6547 161.124 66.8986C160.454 61.1089 159.346 54.9877 157.512 50.3545C152.721 38.2515 163.998 26.838 163.998 26.838H164.002Z" fill="white"/>
<path d="M178.693 83.2091C174.598 83.2091 170.655 81.8455 167.389 79.2689C163.532 76.2253 161.095 71.8557 160.53 66.9663C159.731 60.0617 158.53 54.547 156.955 50.5767C152.077 38.2515 163.456 26.5328 163.569 26.416C163.686 26.2955 163.852 26.2352 164.018 26.239L199.436 27.5574C199.598 27.5649 199.753 27.6365 199.862 27.757C199.971 27.8776 200.024 28.0396 200.012 28.2053L196.976 66.3448C196.287 75.0086 189.522 82.0451 180.893 83.0772C180.154 83.1639 179.416 83.2091 178.682 83.2091H178.693ZM164.251 27.4482C162.854 28.9662 153.814 39.3665 158.074 50.1322C159.686 54.2042 160.914 59.8206 161.724 66.827C162.251 71.3962 164.526 75.4794 168.131 78.3234C171.724 81.1599 176.211 82.4255 180.757 81.8793C188.822 80.915 195.142 74.3381 195.786 66.2431L198.769 28.7289L164.247 27.4444L164.251 27.4482Z" fill="#2A3B7B"/>
<path d="M150.227 59.2217L151.836 33.7313C151.836 33.7313 117.962 38.6546 106.767 40.8545C104.198 41.3592 102.322 43.7361 102.322 46.4671C102.322 49.1981 104.24 51.5976 106.839 52.0986C117.63 54.1816 150.227 59.2217 150.227 59.2217Z" fill="#2A3B7B"/>
<path d="M215.958 21.9637V21.9486H215.385C213.457 21.9486 152.677 29.1659 151.859 29.3241H151.837C143.772 30.8685 137.674 37.9578 137.674 46.4709C137.674 56.1141 145.49 63.9303 155.133 63.9303C155.479 63.9303 212.888 70.8839 213.886 70.9442L213.939 70.9517C214.417 70.9781 214.899 70.9969 215.385 70.9969C228.926 70.9969 239.906 60.0203 239.906 46.4747C239.906 32.929 229.235 22.2726 215.958 21.9674V21.9637Z" fill="url(#paint4_linear_86_2551)"/>
<path d="M215.384 71.5921C201.534 71.5921 190.264 60.3216 190.264 46.4708C190.264 32.6201 201.534 21.3496 215.384 21.3496C229.234 21.3496 240.504 32.6201 240.504 46.4708C240.504 60.3216 229.234 71.5921 215.384 71.5921ZM215.384 22.5512C202.193 22.5512 191.465 33.283 191.465 46.4708C191.465 59.6586 202.197 70.3904 215.384 70.3904C228.571 70.3904 239.303 59.6586 239.303 46.4708C239.303 33.283 228.571 22.5512 215.384 22.5512Z" fill="white"/>
<path d="M235.38 51.1876C237.991 40.1244 231.139 29.0391 220.076 26.428C209.013 23.8168 197.929 30.6685 195.318 41.7318C192.707 52.795 199.558 63.8803 210.621 66.4914C221.684 69.1026 232.769 62.2509 235.38 51.1876Z" fill="white"/>
<path d="M155.132 64.5292C145.173 64.5292 137.074 56.4266 137.074 46.4708C137.074 36.515 145.176 28.4125 155.132 28.4125C155.463 28.4125 155.735 28.6799 155.735 29.0152C155.735 29.3504 155.467 29.6179 155.132 29.6179C145.836 29.6179 138.276 37.178 138.276 46.4746C138.276 55.7712 145.839 63.3313 155.132 63.3313C155.463 63.3313 155.735 63.5988 155.735 63.934C155.735 64.2693 155.467 64.5367 155.132 64.5367V64.5292Z" fill="white"/>
<path d="M198.717 23.6851C194.009 18.9765 188.291 17.8201 182.468 20.9654C177.56 17.7598 173.254 21.6171 173.254 21.6171C173.254 21.6171 171.1 20.4644 168.734 21.2555C166.79 21.9034 166.38 22.3667 164.741 23.5194C159.788 21.8356 154.654 28.3824 155.166 32.7331C155.411 34.7861 157.065 35.4528 159.005 35.2042C160.523 35.0083 161.815 34.2399 162.737 33.1173C162.937 34.4508 163.89 35.6072 165.333 36.0178C167.355 36.5904 169.152 35.6148 170.29 34.0666C170.753 35.724 172.734 36.6318 174.591 36.3305C177.495 35.8634 179.187 33.4111 180.426 30.9325C181.138 32.3301 183.549 32.7444 185.127 32.1116C188.103 30.9175 190.724 27.7872 192.122 24.8528C194.205 24.6871 198.717 23.6889 198.717 23.6889V23.6851Z" fill="white"/>
<path d="M173.867 36.9859C172.312 36.9859 170.891 36.2815 170.146 35.159C168.763 36.564 166.959 37.0989 165.174 36.5904C163.923 36.2363 162.951 35.385 162.454 34.27C161.501 35.1025 160.333 35.6374 159.083 35.7993C157.731 35.9726 156.585 35.7315 155.779 35.1025C155.094 34.5676 154.691 33.7954 154.57 32.8047C154.25 30.085 155.926 26.563 158.555 24.4347C160.507 22.8564 162.65 22.3027 164.635 22.8602C164.823 22.7245 164.993 22.6002 165.155 22.4872C166.251 21.6924 166.857 21.2555 168.545 20.6904C170.556 20.0162 172.406 20.6038 173.17 20.9202C174.282 20.0953 178.165 17.6732 182.493 20.2761C188.313 17.2777 194.215 18.3324 199.142 23.2632C199.296 23.4177 199.357 23.6474 199.293 23.8584C199.232 24.0693 199.059 24.2275 198.844 24.2765C198.667 24.3142 194.708 25.1881 192.509 25.4216C191.198 28.0208 188.603 31.362 185.348 32.6691C183.868 33.2642 181.74 33.0495 180.538 32.0174C179.352 34.1871 177.615 36.451 174.688 36.9256C174.413 36.9708 174.135 36.9934 173.867 36.9934V36.9859ZM170.293 33.4601C170.33 33.4601 170.364 33.4601 170.402 33.4714C170.628 33.5129 170.812 33.6786 170.873 33.9008C171.231 35.1778 172.858 35.999 174.5 35.7353C177.257 35.2908 178.828 32.7896 179.89 30.6613C179.992 30.4579 180.199 30.3298 180.425 30.3298C180.651 30.3298 180.858 30.4579 180.96 30.6576C181.525 31.765 183.597 32.0739 184.9 31.5503C187.966 30.3186 190.411 27.0338 191.575 24.5929C191.669 24.4008 191.857 24.269 192.068 24.2539C193.458 24.1447 196.004 23.6437 197.466 23.3385C193.032 19.4059 187.842 18.743 182.745 21.4966C182.553 21.602 182.316 21.5907 182.131 21.4702C177.683 18.5622 173.811 21.9222 173.645 22.0653C173.457 22.2311 173.185 22.265 172.963 22.1482C172.944 22.1407 170.997 21.1312 168.918 21.828C167.403 22.3328 166.887 22.7095 165.852 23.4591C165.622 23.6248 165.369 23.8094 165.079 24.0128C164.921 24.1221 164.722 24.1522 164.541 24.0919C162.303 23.331 160.299 24.5665 159.305 25.3727C157.011 27.2297 155.486 30.3638 155.757 32.6653C155.836 33.3283 156.088 33.8293 156.51 34.157C157.203 34.6956 158.201 34.6994 158.921 34.609C160.22 34.4433 161.411 33.7765 162.266 32.7369C162.416 32.5523 162.661 32.477 162.891 32.541C163.121 32.605 163.29 32.7971 163.324 33.0307C163.497 34.1871 164.326 35.1138 165.49 35.4415C167.065 35.886 168.677 35.2381 169.799 33.7125C169.912 33.5581 170.093 33.4676 170.285 33.4676L170.293 33.4601Z" fill="url(#paint5_linear_86_2551)"/>
<path d="M162.741 33.7163C162.699 33.7163 162.658 33.7125 162.616 33.705C162.293 33.6372 162.082 33.317 162.149 32.993L164.15 23.3988C164.217 23.0749 164.534 22.8639 164.861 22.9318C165.185 22.9996 165.396 23.316 165.329 23.6437L163.328 33.2379C163.268 33.5204 163.02 33.7163 162.741 33.7163Z" fill="url(#paint6_linear_86_2551)"/>
<path d="M170.293 34.6618C170.247 34.6618 170.198 34.658 170.153 34.6467C169.829 34.5714 169.63 34.2474 169.709 33.9235L172.669 21.4777C172.745 21.1538 173.072 20.9579 173.393 21.0333C173.717 21.1086 173.916 21.4325 173.837 21.7565L170.876 34.2022C170.812 34.4772 170.564 34.6655 170.293 34.6655V34.6618Z" fill="url(#paint7_linear_86_2551)"/>
<path d="M180.426 31.5277C180.385 31.5277 180.347 31.524 180.306 31.5164C179.982 31.4486 179.771 31.1322 179.839 30.8082L181.88 20.8449C181.948 20.5209 182.265 20.31 182.589 20.3778C182.913 20.4456 183.123 20.762 183.056 21.086L181.014 31.0493C180.958 31.3356 180.705 31.5315 180.426 31.5315V31.5277Z" fill="url(#paint8_linear_86_2551)"/>
<path d="M187.16 67.7574C186.912 55.6394 177.322 51.1041 174.271 49.8422C172.922 49.2885 171.464 49.0022 170.007 49.0097C169.306 49.0097 167.6 49.4052 167.6 49.4052C167.6 49.4052 166.33 47.8307 166.089 47.4126C164.063 43.9131 156.533 33.1136 151.832 40.3911C149.565 43.9019 153.456 49.0964 154.962 52.4752C156.823 56.6489 160.447 67.893 161.272 67.9269C163.897 68.0324 167.562 68.4279 171.766 68.5334C182.049 68.7933 187.156 67.7536 187.156 67.7536L187.16 67.7574Z" fill="white"/>
<path d="M161.278 68.5334C161.018 68.5334 160.781 68.3639 160.702 68.1077C160.499 67.5239 156.208 56.7431 154.419 52.7276C154.106 52.0308 153.688 51.2435 153.24 50.4072C151.507 47.1677 149.353 43.1372 151.33 40.071C152.532 38.2101 154.016 37.2797 155.749 37.3287C160.871 37.453 166.039 46.1281 166.612 47.115C166.748 47.3485 167.362 48.1433 167.836 48.7423C168.401 48.6217 169.445 48.4146 170.002 48.4108C171.512 48.4108 173.083 48.7084 174.496 49.2885C179.347 51.2887 187.521 56.3476 187.758 67.7461C187.766 68.0776 187.502 68.3526 187.171 68.3601C186.828 68.3789 186.564 68.104 186.557 67.7725C186.334 57.0595 178.62 52.2907 174.04 50.4035C172.774 49.8799 171.377 49.6237 170.01 49.6162C169.49 49.6162 168.194 49.8912 167.734 49.9966C167.508 50.0456 167.275 49.9665 167.132 49.7895C167 49.6237 165.828 48.166 165.569 47.7215C163.749 44.5837 159.354 38.6207 155.715 38.5341C154.408 38.5039 153.308 39.2196 152.336 40.7264C150.739 43.1975 152.713 46.8815 154.295 49.8422C154.751 50.6973 155.184 51.5034 155.511 52.2379C157.271 56.1818 161.798 67.5314 161.858 67.8026C161.93 68.1266 161.726 68.4467 161.403 68.5221C161.357 68.5334 161.312 68.5372 161.271 68.5372L161.278 68.5334Z" fill="#2A3B7B"/>
<path d="M78.7578 50.0494C78.7578 53.0403 81.1836 55.4661 84.1744 55.4661C87.1651 55.4661 89.5909 53.0403 89.5909 50.0494C89.5909 47.0585 87.1651 44.6326 84.1744 44.6326C81.1836 44.6326 78.7578 47.0585 78.7578 50.0494Z" fill="white"/>
<path d="M85.1689 51.624C84.9805 51.624 84.7959 51.5373 84.6792 51.3716L82.6941 48.5954C82.502 48.3242 82.5623 47.9513 82.8335 47.7554C83.1047 47.5633 83.4776 47.6235 83.6734 47.8948L85.6585 50.6709C85.8506 50.9422 85.7903 51.3151 85.5191 51.5109C85.4137 51.5863 85.2932 51.624 85.1689 51.624Z" fill="#2A3B7B"/>
<path d="M94.4041 48.4899C95.0761 48.4899 95.6208 47.9452 95.6208 47.2732C95.6208 46.6013 95.0761 46.0565 94.4041 46.0565C93.7322 46.0565 93.1875 46.6013 93.1875 47.2732C93.1875 47.9452 93.7322 48.4899 94.4041 48.4899Z" fill="#2A3B7B"/>
<path d="M103.768 56.0689H100.898C100.566 56.0689 100.295 55.8014 100.295 55.4662C100.295 55.1309 100.562 54.8635 100.898 54.8635H103.768C104.099 54.8635 104.371 55.1309 104.371 55.4662C104.371 55.8014 104.103 56.0689 103.768 56.0689Z" fill="#2A3B7B"/>
<path d="M92.1099 113.092C97.2779 111.871 101.493 109.524 101.086 106.835C100.63 103.806 96.8334 102.752 93.8125 103.03C90.7916 103.309 80.3351 104.503 80.3351 104.503C80.3351 104.503 92.8294 96.0428 90.0796 92.792C87.3299 89.5449 80.0225 92.6338 77.1937 94.2121C72.0747 97.0711 61.4827 104.65 58.8761 108.858C56.2696 113.061 59.0833 120.546 59.0833 120.546L51.5988 122.821C42.5511 125.571 37.4021 135.09 40.0576 144.168C42.9053 153.902 53.4897 159.089 62.9254 155.371C63.9198 154.979 64.9707 154.565 66.0781 154.124C83.4917 147.204 77.6382 136.45 77.6382 136.45C82.275 134.295 96.6337 134.6 96.1554 128.163C95.8766 124.434 93.5488 123.763 91.6428 123.857C95.5941 122.863 101.075 120.693 100.385 116.331C99.7789 112.481 94.9161 112.658 92.1099 113.092Z" fill="white"/>
<path d="M56.6113 157.164C53.9144 157.164 51.2249 156.557 48.7615 155.348C44.2716 153.148 40.8891 149.133 39.4841 144.33C36.7494 134.981 42.1057 125.07 51.4246 122.241L58.3139 120.151C57.6924 118.233 56.0539 112.278 58.3704 108.541C61.1314 104.081 72.0624 96.3893 76.9064 93.6885C77.3132 93.4587 86.9485 88.155 90.5419 92.404C90.9827 92.9238 91.1522 93.5567 91.0505 94.2912C90.6399 97.2708 85.5021 101.475 82.5791 103.644C85.8448 103.275 91.6494 102.624 93.7625 102.431C97.3258 102.104 101.194 103.479 101.684 106.744C102.042 109.125 99.5972 111.039 96.3954 112.365C99.0434 112.722 100.633 114.041 100.98 116.241C101.484 119.458 99.164 122.015 94.2409 123.722C95.4726 124.306 96.5649 125.56 96.757 128.121C97.1299 133.105 89.9167 134.42 84.1197 135.474C81.9275 135.874 79.8445 136.254 78.4432 136.77C78.9329 137.991 79.7917 140.917 78.5449 144.357C77.0157 148.587 72.8949 152.06 66.2993 154.682C65.1919 155.122 64.141 155.537 63.1466 155.928C61.0485 156.757 58.8262 157.168 56.6113 157.168V157.164ZM86.3647 91.967C83.2684 91.967 79.2606 93.7488 77.4865 94.7357C72.5521 97.4893 61.9337 105.061 59.3874 109.17C56.9654 113.08 59.6172 120.256 59.6436 120.328C59.7001 120.482 59.6925 120.655 59.621 120.806C59.5456 120.957 59.4138 121.066 59.2556 121.115L51.7711 123.39C43.0775 126.031 38.0828 135.271 40.6329 143.991C41.9437 148.47 45.0965 152.214 49.2851 154.267C53.4737 156.32 58.3629 156.516 62.7021 154.806C63.6966 154.414 64.7475 154 65.8511 153.559C72.1001 151.077 75.9836 147.848 77.3998 143.965C78.835 140.025 77.1211 136.763 77.1023 136.732C77.0232 136.586 77.0081 136.416 77.0609 136.258C77.1136 136.1 77.2266 135.972 77.3773 135.9C78.884 135.199 81.3173 134.755 83.8937 134.288C89.4911 133.267 95.838 132.111 95.5479 128.204C95.3521 125.56 94.0789 124.336 91.6645 124.456C91.3518 124.471 91.0844 124.249 91.0392 123.944C90.994 123.639 91.1861 123.349 91.4874 123.273C95.6007 122.241 100.381 120.211 99.7817 116.422C99.2581 113.095 94.8021 113.276 92.1918 113.679C91.8754 113.724 91.5703 113.517 91.51 113.201C91.4497 112.884 91.6494 112.576 91.962 112.5C97.371 111.223 100.795 108.978 100.482 106.918C100.106 104.417 96.791 103.354 93.8604 103.622C90.881 103.897 80.4999 105.083 80.3944 105.095C80.1232 105.128 79.8595 104.966 79.7616 104.707C79.6674 104.447 79.7616 104.157 79.9876 104.002C82.5942 102.236 89.4496 97.0184 89.8451 94.1255C89.8978 93.7337 89.8225 93.4324 89.6078 93.18C88.8658 92.3023 87.6943 91.967 86.3496 91.967H86.3647Z" fill="#2A3B7B"/>
<path d="M63.2403 134.442C62.9841 134.442 62.7468 134.276 62.6677 134.02L57.9254 118.855C57.8275 118.539 58.0045 118.2 58.3209 118.102C58.6373 118.004 58.9764 118.181 59.0743 118.497L63.8166 133.662C63.9145 133.979 63.7375 134.318 63.4211 134.416C63.3608 134.435 63.3005 134.442 63.2403 134.442Z" fill="#2A3B7B"/>
<path d="M72.3112 127.903C72.025 127.903 71.7688 127.696 71.7198 127.406C71.6633 127.078 71.8818 126.769 72.2095 126.713L93.7137 122.991C94.0414 122.934 94.3503 123.153 94.4068 123.481C94.4633 123.808 94.2448 124.117 93.9171 124.174L72.4129 127.895C72.379 127.903 72.3451 127.903 72.3112 127.903Z" fill="#2A3B7B"/>
<path d="M71.526 117.314C71.2398 117.314 70.9836 117.107 70.9347 116.817C70.8782 116.489 71.0966 116.18 71.4243 116.124L93.7384 112.263C94.0661 112.206 94.375 112.425 94.4315 112.753C94.488 113.08 94.2695 113.389 93.9418 113.446L71.6277 117.307C71.5938 117.314 71.5599 117.314 71.526 117.314Z" fill="#2A3B7B"/>
<path d="M70.5668 107.272C70.2918 107.272 70.0432 107.08 69.9792 106.801C69.9076 106.477 70.111 106.157 70.4349 106.085L80.2058 103.916C80.5298 103.844 80.8499 104.047 80.9215 104.371C80.9931 104.695 80.7897 105.015 80.4657 105.087L70.6949 107.257C70.6497 107.268 70.6082 107.272 70.563 107.272H70.5668Z" fill="#2A3B7B"/>
<defs>
<linearGradient id="paint0_linear_86_2551" x1="70.5684" y1="45.2315" x2="107.053" y2="45.2315" gradientUnits="userSpaceOnUse">
<stop stop-color="#293A7C"/>
<stop offset="0.41" stop-color="#252D6C"/>
<stop offset="1" stop-color="#221F5A"/>
</linearGradient>
<linearGradient id="paint1_linear_86_2551" x1="46.4531" y1="168.77" x2="131.739" y2="168.77" gradientUnits="userSpaceOnUse">
<stop stop-color="#293A7C"/>
<stop offset="0.41" stop-color="#252D6C"/>
<stop offset="1" stop-color="#221F5A"/>
</linearGradient>
<linearGradient id="paint2_linear_86_2551" x1="63.3065" y1="18.5706" x2="94.2991" y2="18.5706" gradientUnits="userSpaceOnUse">
<stop stop-color="#293A7C"/>
<stop offset="0.41" stop-color="#252D6C"/>
<stop offset="1" stop-color="#221F5A"/>
</linearGradient>
<linearGradient id="paint3_linear_86_2551" x1="74.3496" y1="121.36" x2="154.769" y2="121.36" gradientUnits="userSpaceOnUse">
<stop stop-color="#293A7C"/>
<stop offset="0.41" stop-color="#252D6C"/>
<stop offset="1" stop-color="#221F5A"/>
</linearGradient>
<linearGradient id="paint4_linear_86_2551" x1="137.674" y1="46.4671" x2="239.906" y2="46.4671" gradientUnits="userSpaceOnUse">
<stop stop-color="#293A7C"/>
<stop offset="0.41" stop-color="#252D6C"/>
<stop offset="1" stop-color="#221F5A"/>
</linearGradient>
<linearGradient id="paint5_linear_86_2551" x1="154.533" y1="27.791" x2="199.319" y2="27.791" gradientUnits="userSpaceOnUse">
<stop stop-color="#293A7C"/>
<stop offset="0.41" stop-color="#252D6C"/>
<stop offset="1" stop-color="#221F5A"/>
</linearGradient>
<linearGradient id="paint6_linear_86_2551" x1="162.138" y1="28.3184" x2="165.344" y2="28.3184" gradientUnits="userSpaceOnUse">
<stop stop-color="#293A7C"/>
<stop offset="0.41" stop-color="#252D6C"/>
<stop offset="1" stop-color="#221F5A"/>
</linearGradient>
<linearGradient id="paint7_linear_86_2551" x1="169.69" y1="27.84" x2="173.856" y2="27.84" gradientUnits="userSpaceOnUse">
<stop stop-color="#293A7C"/>
<stop offset="0.41" stop-color="#252D6C"/>
<stop offset="1" stop-color="#221F5A"/>
</linearGradient>
<linearGradient id="paint8_linear_86_2551" x1="179.828" y1="25.9452" x2="183.071" y2="25.9452" gradientUnits="userSpaceOnUse">
<stop stop-color="#293A7C"/>
<stop offset="0.41" stop-color="#252D6C"/>
<stop offset="1" stop-color="#221F5A"/>
</linearGradient>
</defs>
</svg>
