<svg width="246" height="270" viewBox="0 0 246 270" fill="none" xmlns="http://www.w3.org/2000/svg">
<g clip-path="url(#clip0_329_2254)">
<path d="M68.9787 269.147H154.36C174.419 269.147 190.679 252.836 190.679 232.715L190.679 38.0622C190.679 17.9413 174.419 1.63 154.36 1.63H68.9787C48.9204 1.63 32.66 17.9413 32.66 38.0622L32.66 232.715C32.66 252.836 48.9204 269.147 68.9787 269.147Z" fill="white"/>
<path d="M173.792 269.877H49.5234C39.8077 269.877 31.9092 261.954 31.9092 252.208V18.5459C31.9092 8.79991 39.8077 0.876709 49.5234 0.876709H173.792C183.508 0.876709 191.406 8.79991 191.406 18.5459V252.208C191.406 261.954 183.508 269.877 173.792 269.877ZM49.5234 2.35927C40.6315 2.35927 33.3871 9.62626 33.3871 18.5459V252.208C33.3871 261.127 40.6315 268.394 49.5234 268.394H173.792C182.684 268.394 189.928 261.127 189.928 252.208V18.5459C189.928 9.62626 182.684 2.35927 173.792 2.35927H49.5234Z" fill="#221F5A"/>
<path d="M180.212 214.828V36.7499C180.212 23.1391 169.213 12.1053 155.645 12.1053L67.6461 12.1053C54.0777 12.1053 43.0783 23.1391 43.0783 36.7499V214.828C43.0783 228.438 54.0777 239.472 67.6461 239.472H155.645C169.213 239.472 180.212 228.438 180.212 214.828Z" fill="#0085FF"/>
<path d="M141.519 23.5769C141.519 21.9971 140.235 20.709 138.66 20.709H84.6305C83.0556 20.709 81.7715 21.9971 81.7715 23.5769C81.7715 25.1567 83.0556 26.4448 84.6305 26.4448H138.66C140.235 26.4448 141.519 25.1567 141.519 23.5769Z" fill="white"/>
<path d="M43.1028 86.5008V36.0936C47.6821 34.684 52.6489 34.3437 57.2766 35.1458C62.728 36.0936 67.598 38.9372 71.2808 43.069C73.7278 45.8154 76.3445 48.7319 80.0031 49.7527C84.8246 51.1137 89.0404 47.5167 93.6438 46.7389C97.1812 46.1556 100.67 46.1799 104.135 46.9334C110.24 48.2944 115.28 53.5198 115.28 59.9119C115.28 63.9464 113.221 67.7865 109.877 70.0224C109.223 70.4599 107.866 70.8245 107.406 71.4321C106.921 72.0883 106.824 73.425 106.34 74.2271C102.851 79.7685 96.1878 76.8276 96.1878 76.8276C90.5183 82.2475 77.8225 74.5187 70.8204 77.3866C67.9372 78.5532 65.3205 80.2546 62.5584 81.6885C56.7436 84.7022 49.4992 87.7403 43.0786 86.5008H43.1028Z" fill="#221F5A"/>
<path d="M43.1025 151.904V113.163C43.4417 112.676 43.7809 112.239 44.0959 111.801C50.2742 103.344 71.1351 82.9037 97.4716 82.9037L105.297 82.9523L110.579 82.9037C137.425 82.9037 160.321 103.344 166.475 111.801C172.75 120.405 188.014 139.338 168.219 151.466C150.896 162.063 126.328 140.699 126.328 140.699H84.267C84.267 140.699 60.3776 161.431 43.1025 151.879V151.904Z" fill="#221F5A"/>
<path d="M83.9038 84.7022C86.9324 83.7058 91.5116 82.685 97.4718 82.928L109.901 83.0009C114.795 83.0009 119.399 83.487 123.711 84.362C120.174 87.0354 102.196 99.2605 83.9038 84.7022Z" fill="white"/>
<path d="M53.3756 155.185C49.7413 155.185 46.1312 154.431 42.7392 152.56C42.4969 152.438 42.3516 152.171 42.3516 151.904V113.163C42.3516 113.017 42.4 112.847 42.4969 112.725L42.715 112.433C42.9815 112.069 43.248 111.704 43.4903 111.364C49.4263 103.246 70.6748 82.1746 97.4475 82.1746L105.273 82.2232L110.555 82.1746C125.359 82.1746 138.37 88.3722 146.656 93.5733C156.711 99.8681 163.931 107.111 167.056 111.388C167.323 111.753 167.614 112.166 167.929 112.579C172.58 118.898 180.406 129.495 178.444 139.484C177.475 144.466 174.155 148.72 168.583 152.122C161.266 156.594 151.55 156.108 140.429 150.761C132.991 147.164 127.2 142.449 126.037 141.477H84.5336C82.4742 143.203 67.7916 155.209 53.3756 155.209V155.185ZM43.8295 151.466C60.4261 160.143 83.5402 140.359 83.7583 140.165C83.9037 140.043 84.0733 139.994 84.2429 139.994H126.304C126.473 139.994 126.643 140.067 126.788 140.165C127.031 140.383 151.162 161.042 167.832 150.859C173.041 147.675 176.118 143.762 177.014 139.192C178.831 129.86 171.272 119.579 166.766 113.454C166.451 113.041 166.16 112.652 165.893 112.263C159.352 103.295 136.359 83.6814 110.579 83.6814L105.298 83.73L97.4717 83.6814C71.3048 83.6814 50.4924 104.316 44.7017 112.263C44.4595 112.604 44.1929 112.968 43.9264 113.333L43.8537 113.43V151.466H43.8295Z" fill="#221F5A"/>
<path d="M154.845 114.013L164.149 113.77C166.305 113.721 167.759 111.51 166.959 109.493L155.863 81.5426C155.378 80.3273 154.191 79.5496 152.883 79.5739L143.579 79.817C141.422 79.8656 139.969 82.0773 140.768 84.0945L151.865 112.044C152.35 113.26 153.537 114.037 154.845 114.013Z" fill="#221F5A"/>
<path d="M129.744 56.8738L204.199 44.5272L205.459 90.9971L130.423 82.685L129.744 56.8738Z" fill="white"/>
<path d="M205.459 91.7504C205.459 91.7504 205.41 91.7504 205.386 91.7504L130.35 83.4383C129.987 83.3897 129.696 83.0981 129.696 82.7335L128.993 56.9223C128.993 56.5578 129.235 56.2418 129.599 56.1689L204.078 43.8223C204.296 43.798 204.514 43.8223 204.659 43.9924C204.829 44.1383 204.926 44.3327 204.926 44.5514L206.161 91.0213C206.161 91.24 206.089 91.4344 205.919 91.5803C205.774 91.7018 205.604 91.7747 205.41 91.7747L205.459 91.7504ZM131.15 82.0287L204.708 90.1706L203.52 45.4021L130.52 57.5056L131.174 82.0287H131.15Z" fill="#221F5A"/>
<path d="M193.926 90.4137L206.84 91.8233L205.531 43.6279L192.739 45.548L193.926 90.4137Z" fill="white"/>
<path d="M206.84 92.5768C206.84 92.5768 206.791 92.5768 206.767 92.5768L193.853 91.1428C193.49 91.0942 193.199 90.8026 193.199 90.438L191.988 45.5723C191.988 45.2077 192.254 44.8674 192.618 44.8188L205.435 42.8988C205.653 42.8745 205.847 42.9231 206.016 43.0689C206.186 43.2147 206.283 43.4092 206.283 43.6036L207.567 91.799C207.567 92.0178 207.494 92.2122 207.325 92.358C207.179 92.4796 207.01 92.5525 206.816 92.5525L206.84 92.5768ZM194.653 89.7332L206.065 90.997L204.829 44.4786L193.49 46.1799L194.653 89.7332Z" fill="#221F5A"/>
<path d="M130.423 82.7092L129.72 56.8738C125.553 56.9953 122.258 60.4708 122.379 64.6512L122.669 75.345C122.791 79.5254 126.255 82.8308 130.423 82.7092Z" fill="white"/>
<path d="M130.229 83.4627C128.097 83.4627 126.086 82.6607 124.535 81.1781C122.936 79.6469 122.015 77.581 121.943 75.3694L121.652 64.6755C121.604 62.4638 122.403 60.3493 123.929 58.7452C125.456 57.1411 127.515 56.2176 129.72 56.1447C130.132 56.1447 130.471 56.4606 130.471 56.8738L131.174 82.7093C131.174 82.9037 131.101 83.0981 130.98 83.2439C130.835 83.3898 130.665 83.4627 130.471 83.4627C130.399 83.4627 130.326 83.4627 130.253 83.4627H130.229ZM129.042 57.7001C127.515 57.8946 126.086 58.6237 125.02 59.766C123.76 61.1027 123.106 62.8283 123.154 64.6512L123.445 75.3451C123.542 78.8692 126.28 81.6885 129.696 81.9801L129.042 57.7001Z" fill="#221F5A"/>
<path d="M213.866 54.1274C213.6 54.1274 213.358 53.9816 213.212 53.7385C213.018 53.374 213.164 52.9365 213.503 52.7421L229.954 43.9196C230.318 43.7252 230.754 43.871 230.948 44.2113C231.141 44.5758 230.996 45.0133 230.657 45.2077L214.206 54.0302C214.206 54.0302 213.988 54.1274 213.866 54.1274Z" fill="#221F5A"/>
<path d="M230.317 96.0524C230.317 96.0524 230.075 96.028 229.978 95.9551L213.527 87.1327C213.164 86.9382 213.042 86.5008 213.236 86.1362C213.43 85.7716 213.866 85.6501 214.23 85.8445L230.681 94.667C231.044 94.8614 231.165 95.2989 230.972 95.6635C230.85 95.9065 230.584 96.0524 230.317 96.0524Z" fill="#221F5A"/>
<path d="M240.13 70.2655H219.996C219.584 70.2655 219.269 69.9252 219.269 69.5364C219.269 69.1475 219.608 68.8073 219.996 68.8073H240.13C240.542 68.8073 240.857 69.1475 240.857 69.5364C240.857 69.9252 240.518 70.2655 240.13 70.2655Z" fill="#221F5A"/>
<path d="M158.334 87.8132L159.885 91.7262C159.885 91.7262 154.651 95.5177 153.077 97.1461C151.502 98.7502 150.096 99.7466 150.096 99.7466C150.096 99.7466 145.299 98.2641 144.572 103.271C143.845 108.277 146.099 111.559 150.096 111.388C150.096 111.388 150.896 116.444 155.16 115.715C155.16 115.715 154.046 122.058 159.885 121.815C159.885 121.815 160.975 124.172 164.827 123.516C168.68 122.884 172.435 118.048 173.332 116.565C174.882 114.013 174.737 110.562 172.629 109.76C172.629 109.76 174.81 103.684 170.909 102.955C170.909 102.955 171.611 96.2225 167.153 95.4934C167.153 95.4934 168.534 90.1221 158.31 87.8375L158.334 87.8132Z" fill="white"/>
<path d="M163.543 124.391C161.169 124.391 159.982 123.225 159.497 122.568C157.85 122.568 156.565 122.034 155.669 121.013C154.458 119.628 154.312 117.683 154.361 116.541C153.416 116.541 152.543 116.274 151.792 115.739C150.387 114.742 149.781 113.041 149.515 112.142C147.867 112.069 146.462 111.437 145.444 110.319C143.991 108.691 143.433 106.163 143.845 103.174C144.088 101.472 144.79 100.233 145.953 99.5036C147.431 98.58 149.176 98.7988 149.927 98.9446C150.387 98.58 151.429 97.7537 152.543 96.6357C153.876 95.2746 157.656 92.4553 158.964 91.4832L157.607 88.1049C157.51 87.8618 157.559 87.5702 157.728 87.3514C157.898 87.1327 158.189 87.0598 158.455 87.1084C162.792 88.0806 165.7 89.709 167.081 91.9936C167.808 93.1602 167.929 94.2296 167.929 94.9344C171.539 96.0524 171.733 100.694 171.66 102.42C172.411 102.687 172.992 103.174 173.38 103.878C174.373 105.628 173.816 108.253 173.477 109.444C174.083 109.857 174.519 110.465 174.785 111.267C175.343 112.944 175.003 115.204 173.913 117.003C172.896 118.68 169.043 123.613 164.9 124.318C164.391 124.391 163.931 124.44 163.495 124.44L163.543 124.391ZM159.885 121.086C160.175 121.086 160.442 121.256 160.563 121.523C160.587 121.596 161.508 123.346 164.706 122.811C168.026 122.252 171.587 118.048 172.702 116.201C173.574 114.767 173.865 112.968 173.453 111.704C173.235 111.072 172.871 110.659 172.387 110.465C172.023 110.319 171.829 109.906 171.951 109.517C172.266 108.618 172.944 105.969 172.144 104.583C171.878 104.097 171.418 103.805 170.788 103.684C170.4 103.611 170.158 103.271 170.182 102.882C170.182 102.833 170.763 96.8301 167.032 96.2225C166.838 96.1982 166.645 96.0767 166.523 95.9065C166.402 95.7364 166.378 95.5177 166.426 95.3232C166.426 95.2746 166.693 94.1323 165.821 92.7227C165.094 91.5561 163.398 90.0006 159.546 88.9069L160.563 91.4832C160.684 91.7991 160.563 92.1637 160.321 92.3581C160.272 92.4067 155.136 96.1496 153.61 97.6808C152.01 99.3092 150.581 100.33 150.532 100.379C150.339 100.5 150.096 100.549 149.878 100.476C149.878 100.476 148.037 99.9411 146.729 100.767C145.978 101.253 145.493 102.128 145.299 103.392C144.936 105.944 145.372 108.034 146.535 109.323C147.383 110.27 148.594 110.732 150.072 110.659C150.436 110.659 150.775 110.902 150.823 111.291C150.823 111.291 151.211 113.503 152.64 114.548C153.295 115.034 154.094 115.18 155.039 115.01C155.281 114.961 155.524 115.058 155.693 115.228C155.863 115.399 155.935 115.642 155.887 115.885C155.887 115.909 155.451 118.558 156.759 120.065C157.413 120.818 158.455 121.183 159.861 121.11C159.861 121.11 159.861 121.11 159.885 121.11V121.086Z" fill="#221F5A"/>
<path d="M150.121 112.142C149.903 112.142 149.684 112.045 149.539 111.874C146.074 107.524 149.297 99.7952 149.442 99.4792C149.612 99.1147 150.024 98.9202 150.411 99.0904C150.775 99.2605 150.969 99.6737 150.799 100.063C150.775 100.135 147.77 107.305 150.702 110.951C150.944 111.267 150.896 111.729 150.581 111.996C150.436 112.093 150.29 112.166 150.121 112.166V112.142Z" fill="#221F5A"/>
<path d="M150.121 112.142C149.927 112.142 149.733 112.069 149.588 111.899C149.321 111.607 149.321 111.121 149.636 110.854L166.693 94.9343C166.984 94.667 167.469 94.667 167.735 94.9829C168.002 95.2746 168.002 95.7607 167.687 96.028L150.63 111.947C150.484 112.069 150.315 112.142 150.121 112.142Z" fill="#221F5A"/>
<path d="M155.16 116.638C154.942 116.638 154.724 116.541 154.579 116.371C154.312 116.055 154.361 115.593 154.676 115.326L170.473 102.372C170.788 102.104 171.248 102.153 171.515 102.469C171.781 102.785 171.733 103.246 171.418 103.514L155.621 116.468C155.475 116.59 155.33 116.638 155.16 116.638Z" fill="#221F5A"/>
<path d="M159.909 122.568C159.715 122.568 159.522 122.495 159.376 122.325C159.085 122.034 159.11 121.572 159.4 121.28L172.145 109.201C172.435 108.909 172.896 108.934 173.187 109.225C173.477 109.517 173.453 109.979 173.162 110.27L160.418 122.349C160.273 122.495 160.103 122.544 159.909 122.544V122.568Z" fill="#221F5A"/>
<path d="M96.0664 83.8516L96.1875 76.8277C100.428 73.6195 100.621 65.915 100.621 65.915C105.152 63.4603 108.011 56.5093 109.126 53.3983C109.368 52.7178 110.264 52.5234 110.749 53.0824C112.397 54.9295 115.352 58.3564 115.498 59.4987C116.733 68.5885 118.575 78.3102 109.901 78.3102V83.8273H96.0664V83.8516Z" fill="white"/>
<path d="M109.901 84.5808C109.489 84.5808 109.174 84.2405 109.174 83.8516V78.3346C109.174 77.9214 109.514 77.6054 109.901 77.6054C111.888 77.6054 113.293 77.0707 114.238 75.977C116.637 73.2064 115.789 67.0331 114.965 61.0542L114.771 59.6203C114.771 59.4501 114.48 58.405 111.5 54.0303C111.282 53.69 111.355 53.2282 111.694 53.0095C112.033 52.7907 112.494 52.8637 112.712 53.2039C116.055 58.0891 116.176 59.1099 116.225 59.4258L116.419 60.8598C117.291 67.1546 118.187 73.6681 115.353 76.9492C114.262 78.213 112.663 78.9179 110.628 79.0637V83.876C110.628 84.2891 110.289 84.6051 109.901 84.6051V84.5808Z" fill="#221F5A"/>
<path d="M109.901 79.0637C107.018 79.0637 104.837 78.2617 104.74 78.2131C104.353 78.0672 104.159 77.6541 104.304 77.2652C104.449 76.8763 104.861 76.6819 105.249 76.8277C105.249 76.8277 107.284 77.5811 109.901 77.5811C110.313 77.5811 110.628 77.9214 110.628 78.3103C110.628 78.6991 110.289 79.0394 109.901 79.0394V79.0637Z" fill="#221F5A"/>
<path d="M109.901 82.4176C109.901 82.4176 108.278 83.8273 106.63 82.685C104.983 81.5427 104.789 77.5325 104.789 77.5325L109.901 78.3345V82.4176Z" fill="#221F5A"/>
<path d="M112.518 69.5121C112.154 69.5121 111.839 69.2447 111.791 68.8559L111.137 63.193C111.088 62.7798 111.379 62.4152 111.791 62.3666C112.203 62.318 112.566 62.6097 112.615 63.0228L113.269 68.6857C113.317 69.0989 113.026 69.4635 112.615 69.5121C112.59 69.5121 112.566 69.5121 112.518 69.5121Z" fill="#221F5A"/>
<path d="M106.558 64.3353C106.558 64.797 106.921 65.1616 107.381 65.1616C107.842 65.1616 108.205 64.797 108.205 64.3353C108.205 63.8735 107.842 63.5089 107.381 63.5089C106.921 63.5089 106.558 63.8735 106.558 64.3353Z" fill="#221F5A"/>
<path d="M113.269 64.3353C113.269 64.797 113.632 65.1616 114.093 65.1616C114.553 65.1616 114.917 64.797 114.917 64.3353C114.917 63.8735 114.553 63.5089 114.093 63.5089C113.632 63.5089 113.269 63.8735 113.269 64.3353Z" fill="#221F5A"/>
<path d="M96.9145 67.1303C97.3021 69.0746 99.1677 70.3385 101.106 69.9739C103.044 69.6093 104.304 67.7136 103.941 65.7693C103.553 63.8249 101.688 62.5611 99.7492 62.9257C97.8109 63.3145 96.551 65.1859 96.9145 67.1303Z" fill="white"/>
<path d="M101.203 67.6894C101.009 67.6894 100.839 67.6164 100.694 67.4949L99.0465 65.9394C98.7557 65.6478 98.7315 65.186 99.0222 64.8944C99.313 64.6027 99.7733 64.5784 100.064 64.8701L101.712 66.4255C102.002 66.7172 102.027 67.179 101.736 67.4706C101.59 67.6164 101.397 67.7137 101.203 67.7137V67.6894Z" fill="#221F5A"/>
<path d="M137.158 74.1299C137.158 76.0013 138.685 77.5325 140.55 77.5325C142.416 77.5325 143.942 76.0013 143.942 74.1299C143.942 72.2585 142.416 70.7273 140.55 70.7273C138.685 70.7273 137.158 72.2585 137.158 74.1299Z" fill="#0085FF"/>
<path d="M147.213 74.1299C147.213 76.0013 148.74 77.5325 150.605 77.5325C152.471 77.5325 153.997 76.0013 153.997 74.1299C153.997 72.2585 152.471 70.7273 150.605 70.7273C148.74 70.7273 147.213 72.2585 147.213 74.1299Z" fill="#C4DCFD"/>
<path d="M235.018 129.519C234.824 129.519 234.63 129.446 234.509 129.301C234.218 129.009 234.218 128.547 234.509 128.255L244.734 117.999C245.024 117.707 245.485 117.707 245.775 117.999C246.066 118.291 246.066 118.752 245.775 119.044L235.551 129.301C235.406 129.446 235.212 129.519 235.042 129.519H235.018Z" fill="#221F5A"/>
<path d="M245.242 129.519C245.049 129.519 244.855 129.446 244.734 129.301L234.509 119.044C234.218 118.752 234.218 118.291 234.509 117.999C234.8 117.707 235.26 117.707 235.551 117.999L245.775 128.255C246.066 128.547 246.066 129.009 245.775 129.301C245.63 129.446 245.436 129.519 245.267 129.519H245.242Z" fill="#221F5A"/>
<path d="M130.689 111.534C130.374 111.534 130.108 111.267 130.108 110.951V101.885C130.108 101.569 130.374 101.302 130.689 101.302C131.004 101.302 131.271 101.569 131.271 101.885V110.951C131.271 111.267 131.004 111.534 130.689 111.534Z" fill="white"/>
<path d="M130.689 141.307C130.374 141.307 130.108 141.039 130.108 140.724V128.79C130.108 128.474 130.374 128.207 130.689 128.207C131.004 128.207 131.271 128.474 131.271 128.79V140.724C131.271 141.039 131.004 141.307 130.689 141.307Z" fill="white"/>
<path d="M75.3754 125.12C75.0605 125.12 74.7939 124.853 74.7939 124.537V101.885C74.7939 101.569 75.0605 101.302 75.3754 101.302C75.6904 101.302 75.9569 101.569 75.9569 101.885V124.537C75.9569 124.853 75.6904 125.12 75.3754 125.12Z" fill="white"/>
<path d="M130.689 129.349C130.374 129.349 130.108 129.082 130.108 128.766C130.108 128.45 130.374 128.183 130.689 128.183C135.269 128.183 138.976 124.44 138.976 119.871C138.976 115.301 135.244 111.558 130.689 111.558C130.374 111.558 130.108 111.291 130.108 110.975C130.108 110.659 130.374 110.392 130.689 110.392C135.923 110.392 140.163 114.645 140.163 119.895C140.163 125.145 135.923 129.398 130.689 129.398V129.349Z" fill="white"/>
<path d="M83.8066 132.873C83.6128 132.873 83.4432 132.776 83.3221 132.63C83.2978 132.582 80.2935 128.377 74.3332 125.947C66.4347 122.738 56.8886 124.1 46.7126 129.908C46.4218 130.078 46.0584 129.981 45.913 129.69C45.7434 129.398 45.8404 129.033 46.1311 128.887C59.4326 121.305 69.0756 122.52 74.842 124.877C81.1173 127.454 84.1701 131.78 84.2912 131.95C84.485 132.217 84.4124 132.582 84.1458 132.776C84.0489 132.849 83.9278 132.873 83.8066 132.873Z" fill="white"/>
<path d="M0.751007 220.15L221.256 220.15V141.185L0.751007 141.185V220.15Z" fill="white"/>
<path d="M221.232 220.879H0.726859C0.314972 220.879 0 220.539 0 220.15V141.185C0 140.772 0.339201 140.456 0.726859 140.456H221.232C221.644 140.456 221.959 140.797 221.959 141.185V220.15C221.959 220.563 221.619 220.879 221.232 220.879ZM1.47795 219.397H220.505V141.915H1.47795V219.397Z" fill="#221F5A"/>
<path d="M192.739 164.202L187.409 175.041L175.464 176.791L184.113 185.225L182.078 197.134L192.739 191.52L203.399 197.134L201.364 185.225L210.014 176.791L198.069 175.041L192.739 164.202Z" fill="#C4DCFD"/>
<path d="M152.277 164.202L146.947 175.041L135.002 176.791L143.652 185.225L141.593 197.134L152.277 191.52L162.938 197.134L160.903 185.225L169.552 176.791L157.608 175.041L152.277 164.202Z" fill="#C4DCFD"/>
<path d="M111.816 164.202L106.485 175.041L94.5405 176.791L103.166 185.225L101.131 197.134L111.816 191.52L122.476 197.134L120.441 185.225L129.066 176.791L117.146 175.041L111.816 164.202Z" fill="#C4DCFD"/>
<path d="M71.3536 164.202L65.9991 175.041L54.0786 176.791L62.704 185.225L60.6688 197.134L71.3536 191.52L82.0142 197.134L79.979 185.225L88.6044 176.791L76.6839 175.041L71.3536 164.202Z" fill="#C4DCFD"/>
<path d="M30.8917 164.202L25.5372 175.041L13.6167 176.791L22.2421 185.225L20.2069 197.134L30.8917 191.52L41.5523 197.134L39.5171 185.225L48.1425 176.791L36.222 175.041L30.8917 164.202Z" fill="#C4DCFD"/>
<path d="M64.5454 132.217C64.5454 132.217 68.3493 129.131 71.7413 132.29C71.7413 132.29 74.3338 129.106 79.7367 131.658C79.7367 131.658 82.7896 129.203 86.0604 132.096C87.4415 133.335 92.2145 139.533 93.3048 141.672C95.7034 146.435 92.4568 149.109 89.8643 147.942C87.2961 146.775 83.8072 141.574 83.8072 141.574C83.8072 141.574 85.7212 149.206 82.2323 149.765C79.6641 150.178 77.5562 145.973 76.6112 143.689C77.4108 145.998 78.4526 150.421 75.3756 151.175C71.2567 152.171 68.9308 143.446 68.8339 143.033C68.9308 143.446 70.5299 149.886 66.8471 150.64C63.0432 151.393 59.6512 140.675 59.6512 140.675L51.4619 140.554C51.4619 140.554 57.5433 130.321 64.5696 132.242L64.5454 132.217Z" fill="white"/>
<path d="M74.6971 151.977C72.5892 151.977 70.9901 149.959 69.8756 147.869C69.7545 148.574 69.5606 149.254 69.1972 149.813C68.6884 150.64 67.9373 151.15 66.9924 151.345C63.0431 152.122 59.9176 143.762 59.1181 141.404L51.4376 141.283C51.1711 141.283 50.9288 141.137 50.8077 140.894C50.6865 140.675 50.6865 140.383 50.8077 140.165C51.0742 139.727 57.0586 129.811 64.3757 131.415C65.9021 130.346 68.9549 129.228 71.6927 131.294C72.7588 130.419 75.3755 128.96 79.6397 130.808C81.045 129.908 83.8555 129.155 86.5449 131.561C88.0229 132.873 92.8443 139.144 93.9589 141.356C95.243 143.908 95.1703 146.338 93.7408 147.821C92.6505 148.963 91.003 149.279 89.5493 148.623C88.0229 147.942 86.2784 146.046 84.9943 144.442C85.1396 146.095 85.067 148.015 84.2432 149.254C83.7828 149.959 83.1287 150.372 82.3291 150.518C80.7058 150.761 79.3248 149.692 78.1618 148.136C78.1618 148.939 77.9922 149.692 77.6288 150.324C77.1926 151.15 76.4658 151.661 75.5209 151.904C75.2301 151.977 74.9636 152.001 74.6971 152.001V151.977ZM68.8095 142.279C69.1487 142.279 69.4395 142.498 69.5122 142.838C70.1179 145.196 72.3227 151.126 75.1574 150.445C75.6905 150.324 76.0781 150.032 76.3204 149.595C76.9019 148.525 76.7323 146.46 75.8601 143.932C75.7389 143.567 75.9328 143.154 76.2962 143.008C76.6596 142.862 77.0957 143.057 77.2411 143.421C78.816 147.164 80.6089 149.279 82.0626 149.06C82.4503 148.987 82.7652 148.793 82.9833 148.452C84.0009 146.897 83.371 143.106 83.0318 141.769C82.9348 141.429 83.1287 141.064 83.4436 140.918C83.7828 140.772 84.1463 140.894 84.3643 141.185C85.3092 142.595 88.1682 146.411 90.1307 147.286C91.003 147.675 91.9964 147.505 92.6505 146.824C93.6197 145.803 93.6197 144.029 92.6021 142.036C91.5845 140.043 86.8599 133.87 85.5273 132.679C82.7652 130.224 80.2697 132.169 80.1485 132.266C79.9305 132.436 79.6397 132.485 79.3732 132.363C74.6002 130.127 72.3469 132.679 72.25 132.8C72.1289 132.946 71.935 133.044 71.7412 133.068C71.5474 133.068 71.3535 133.019 71.1839 132.873C68.3007 130.224 65.0783 132.728 64.9572 132.849C64.7634 132.995 64.5211 133.044 64.303 132.995C59.215 131.61 54.5146 137.394 52.7459 139.873L59.6027 139.97C59.9176 139.97 60.2084 140.189 60.3053 140.481C61.6379 144.661 64.4726 150.348 66.6532 149.935C67.2104 149.813 67.6223 149.546 67.9131 149.084C68.8338 147.602 68.4219 144.637 68.0584 143.251C67.9615 142.862 68.2038 142.449 68.5915 142.352C68.6642 142.352 68.7126 142.352 68.7853 142.352L68.8095 142.279Z" fill="#221F5A"/>
<path d="M83.8072 142.279C83.5165 142.279 83.25 142.109 83.1288 141.817L79.0584 131.926C78.913 131.537 79.0826 131.123 79.4703 130.953C79.858 130.808 80.2698 130.978 80.4394 131.367L84.5099 141.258C84.6552 141.647 84.4856 142.06 84.098 142.231C84.0011 142.279 83.9041 142.279 83.8072 142.279Z" fill="#221F5A"/>
<path d="M76.5868 144.418C76.2961 144.418 76.0296 144.248 75.9084 143.98L71.0627 132.582C70.8931 132.217 71.0627 131.78 71.4504 131.61C71.8138 131.439 72.2499 131.61 72.4195 131.998L77.2652 143.397C77.4348 143.762 77.2652 144.199 76.8776 144.369C76.7807 144.418 76.6837 144.418 76.5868 144.418Z" fill="#221F5A"/>
<path d="M68.8097 143.737C68.5189 143.737 68.2282 143.567 68.1313 143.276L63.867 132.484C63.7216 132.096 63.8912 131.682 64.2789 131.537C64.6666 131.391 65.0784 131.561 65.2238 131.95L69.4881 142.741C69.6334 143.13 69.4638 143.543 69.0762 143.689C68.9793 143.713 68.9066 143.737 68.8097 143.737Z" fill="#221F5A"/>
<path d="M106.485 48.9263C106.485 48.9263 106.291 48.9263 106.194 48.8534C106.121 48.8048 97.7867 44.4786 89.8639 47.2007C82.9588 49.5825 76.5624 46.5688 70.8445 38.2567C63.697 27.8787 48.3845 30.5036 43.3692 31.3543H43.2238C42.8846 31.4272 42.5454 31.2084 42.497 30.8682C42.4485 30.5279 42.6666 30.1877 43.0058 30.139H43.1511C48.3845 29.2155 64.2785 26.4934 71.8863 37.5519C77.3135 45.4508 83.0557 48.1971 89.4521 46.0098C97.9079 43.0932 106.436 47.5409 106.8 47.7354C107.115 47.9055 107.236 48.2701 107.066 48.586C106.945 48.8048 106.727 48.9263 106.509 48.9263H106.485Z" fill="#221F5A"/>
<path d="M96.1878 84.5807C95.7759 84.5807 95.4609 84.2405 95.4609 83.8516V76.0985C95.4609 75.6853 95.8001 75.3694 96.1878 75.3694C96.5755 75.3694 96.9147 75.7096 96.9147 76.0985V83.8516C96.9147 84.2648 96.5755 84.5807 96.1878 84.5807Z" fill="#221F5A"/>
<path d="M111.67 71.7238C111.67 71.7238 111.549 71.7238 111.5 71.7238C110.046 71.3835 109.417 69.9253 109.392 69.8523C109.223 69.4878 109.392 69.0503 109.78 68.8802C110.143 68.71 110.579 68.8802 110.749 69.269C110.749 69.2933 111.137 70.0954 111.839 70.2655C112.227 70.3627 112.494 70.7516 112.397 71.1648C112.324 71.505 112.009 71.7238 111.67 71.7238Z" fill="#221F5A"/>
</g>
<defs>
<clipPath id="clip0_329_2254">
<rect width="245.969" height="269" fill="white" transform="translate(0 0.876709)"/>
</clipPath>
</defs>
</svg>
