<svg width="322" height="270" viewBox="0 0 322 270" fill="none" xmlns="http://www.w3.org/2000/svg">
<g clip-path="url(#clip0_329_2320)">
<path d="M21.8535 268.316H206.497L206.497 132.359L21.8535 132.359L21.8535 268.316Z" fill="white"/>
<path d="M206.497 268.316C206.497 268.316 191.97 238.62 172.152 210.249C160.366 193.365 137.06 187.32 117.338 187.392L95.6436 187.32C23.0561 187.296 56.4877 108.805 56.4877 108.805L27.6981 96.8586C-45.5388 226.554 54.8041 242.305 67.3831 243.654L67.8641 267.16L179.343 268.292H157.937L206.449 268.316H206.497Z" fill="#221F5A"/>
<path d="M206.497 269.111H157.985C157.769 269.111 157.552 269.015 157.408 268.87L67.888 267.979C67.4551 267.979 67.1183 267.642 67.1183 267.208L66.6614 244.4C62.765 243.943 52.1102 242.281 40.3971 237.175C24.9801 230.455 13.8442 220.557 7.2541 207.744C-6.38311 181.251 0.27916 143.823 27.0245 96.4731C27.2169 96.136 27.6498 95.9674 28.0106 96.136L56.8002 108.082C56.9927 108.154 57.137 108.323 57.2332 108.515C57.3053 108.708 57.3053 108.925 57.2332 109.118C57.0648 109.503 41.1427 147.605 55.9344 170.051C63.1498 180.986 76.4984 186.525 95.6675 186.525C95.7397 186.525 95.8118 186.525 95.8599 186.549L117.362 186.622C117.362 186.622 117.578 186.622 117.699 186.622C142.087 186.622 162.675 195.268 172.825 209.815C192.451 237.897 207.074 267.69 207.218 267.979C207.339 268.22 207.315 268.509 207.17 268.75C207.026 268.991 206.786 269.111 206.497 269.111ZM179.583 267.521H205.246C202.384 261.813 188.915 235.585 171.55 210.706C161.641 196.52 141.389 188.139 117.386 188.187L95.6675 188.115C95.6675 188.115 95.5232 188.115 95.4751 188.091C75.8731 188.043 62.1397 182.262 54.6356 170.918C46.6264 158.78 47.3961 142.451 49.4164 130.866C51.2684 120.341 54.4913 111.743 55.4774 109.238L28.0587 97.8701C1.89061 144.425 -4.6514 181.154 8.62504 206.997C24.2585 237.44 63.1017 242.401 67.4791 242.859C67.8639 242.907 68.1766 243.22 68.1766 243.63L68.6336 266.365L179.343 267.473C179.343 267.473 179.487 267.473 179.535 267.497L179.583 267.521Z" fill="#221F5A"/>
<path d="M83.5458 168.606C86.456 178.89 97.1589 184.863 107.405 181.925C117.675 179.011 123.64 168.293 120.705 158.033C117.795 147.749 107.092 141.776 96.8463 144.715C86.5763 147.629 80.6115 158.346 83.5458 168.606Z" fill="#221F5A"/>
<path d="M93.9841 180.335C98.6261 177.229 98.6742 173.664 98.5058 168.992L100.117 168.703C100.526 168.63 100.815 168.269 100.815 167.86C100.743 165.379 98.6261 160.947 97.4716 157.985C97.1108 157.07 97.9767 156.155 98.9147 156.444C101.296 157.238 105.12 157.889 108.776 156.973C111.397 156.323 112.6 155.215 113.682 154.565C115.318 153.602 117.41 154.396 118.012 156.179C118.324 157.094 120.513 160.562 121.764 166.752C123.543 175.687 125.516 181.01 116.256 183.635L116.785 185.899C116.785 185.899 120.2 195.894 113.586 199.073C106.972 202.252 96.6779 191.559 96.6779 191.559L93.9841 180.335Z" fill="white"/>
<path d="M110.892 200.47C104.254 200.47 96.5095 192.498 96.1247 192.113C96.0285 192.016 95.9564 191.896 95.9323 191.752L93.2385 180.528C93.1423 180.095 93.4069 179.685 93.8158 179.565C94.2487 179.468 94.6576 179.733 94.7778 180.143L97.4235 191.149C98.6742 192.402 107.669 201.072 113.273 198.351C119.166 195.509 116.087 186.236 116.063 186.14C116.063 186.116 116.063 186.092 116.063 186.068L115.534 183.804C115.438 183.394 115.679 182.985 116.087 182.864C123.88 180.649 123.062 176.747 121.451 168.992C121.307 168.317 121.162 167.619 121.018 166.896C119.815 160.827 117.627 154.445 117.603 154.396C117.458 153.987 117.675 153.529 118.084 153.385C118.493 153.24 118.95 153.457 119.094 153.867C119.094 153.939 121.331 160.393 122.557 166.583C122.702 167.306 122.846 168.004 122.99 168.679C124.53 176.073 125.636 181.467 117.218 184.165L117.579 185.658C117.843 186.477 120.994 196.376 113.971 199.748C113.009 200.205 111.975 200.422 110.916 200.422L110.892 200.47Z" fill="#221F5A"/>
<path d="M116.424 170.485C116.112 170.485 115.823 170.292 115.703 170.003L112.576 162.489C112.408 162.08 112.576 161.622 113.009 161.453C113.418 161.285 113.875 161.477 114.043 161.887L117.17 169.401C117.338 169.811 117.17 170.268 116.737 170.437C116.641 170.485 116.545 170.509 116.424 170.509V170.485Z" fill="#221F5A"/>
<path d="M106.467 165.957C106.635 166.583 107.309 166.969 107.934 166.776C108.559 166.607 108.944 165.933 108.752 165.307C108.583 164.681 107.91 164.295 107.285 164.488C106.659 164.656 106.274 165.331 106.467 165.957Z" fill="#221F5A"/>
<path d="M115.727 163.332C115.895 163.958 116.568 164.344 117.194 164.151C117.819 163.982 118.204 163.308 118.011 162.682C117.843 162.056 117.17 161.67 116.544 161.863C115.919 162.031 115.534 162.706 115.727 163.332Z" fill="#221F5A"/>
<path d="M67.8882 241.799C67.4793 241.799 67.1186 241.462 67.0945 241.053L66.0122 214.078C66.0122 213.644 66.3249 213.283 66.7578 213.259C67.1907 213.259 67.5515 213.572 67.5756 214.006L68.6579 240.98C68.6579 241.414 68.3452 241.775 67.9123 241.799C67.9123 241.799 67.9123 241.799 67.8882 241.799Z" fill="white"/>
<path d="M154.69 241.149C154.69 241.149 154.57 241.149 154.521 241.149C154.089 241.053 153.824 240.643 153.92 240.21C153.944 240.065 157.071 225.374 151.491 206.829C151.371 206.419 151.611 205.962 152.02 205.841C152.429 205.721 152.886 205.962 153.006 206.371C158.73 225.326 155.508 240.402 155.484 240.547C155.411 240.908 155.075 241.173 154.714 241.173L154.69 241.149Z" fill="white"/>
<path d="M118.07 158.766C122.488 156.934 124.586 151.862 122.756 147.438C120.926 143.014 115.861 140.913 111.443 142.745C107.025 144.578 104.927 149.65 106.757 154.074C108.587 158.498 113.652 160.599 118.07 158.766Z" fill="#221F5A"/>
<path d="M114.187 158.539C108.992 158.539 104.759 154.3 104.759 149.098C104.759 143.896 108.992 139.657 114.187 139.657C119.382 139.657 123.615 143.896 123.615 149.098C123.615 154.3 119.382 158.539 114.187 158.539ZM114.187 141.222C109.858 141.222 106.322 144.763 106.322 149.098C106.322 153.433 109.858 156.974 114.187 156.974C118.517 156.974 122.052 153.433 122.052 149.098C122.052 144.763 118.517 141.222 114.187 141.222Z" fill="#221F5A"/>
<path d="M104.326 160.562C104.326 164.03 101.512 166.848 98.0487 166.848C94.5853 166.848 91.7712 164.03 91.7712 160.562C91.7712 157.094 94.5853 154.276 98.0487 154.276C101.512 154.276 104.326 157.094 104.326 160.562Z" fill="#221F5A"/>
<path d="M92.8536 172.195C93.6233 174.916 96.4614 176.506 99.1792 175.735C101.897 174.965 103.484 172.123 102.715 169.401C101.945 166.68 99.107 165.09 96.3892 165.861C93.6714 166.631 92.084 169.473 92.8536 172.195Z" fill="white"/>
<path d="M98.9386 172.219C98.7702 172.219 98.6018 172.171 98.4575 172.051L95.9321 170.027C95.5954 169.763 95.5473 169.257 95.8119 168.92C96.0764 168.582 96.5815 168.534 96.9182 168.799L99.4436 170.822C99.7804 171.087 99.8285 171.593 99.5639 171.93C99.4196 172.123 99.1791 172.219 98.9386 172.219Z" fill="#221F5A"/>
<path d="M117.939 188.5C117.939 188.5 116.231 191.174 113.441 190.234C110.652 189.295 108.944 185.104 108.944 185.104L116.496 183.587L117.939 188.5Z" fill="#221F5A"/>
<path d="M108.968 186.212C108.607 186.212 108.295 185.971 108.198 185.61C108.102 185.176 108.367 184.767 108.776 184.647L116.328 182.816C116.761 182.72 117.17 182.985 117.29 183.394C117.386 183.828 117.122 184.237 116.713 184.358L109.161 186.188C109.161 186.188 109.04 186.188 108.968 186.188V186.212Z" fill="#221F5A"/>
<path d="M21.8535 268.34H206.497V241.607L21.8535 241.607V268.34Z" fill="white"/>
<path d="M206.497 242.377H21.8774C21.4445 242.377 21.0837 242.016 21.0837 241.582C21.0837 241.149 21.4445 240.788 21.8774 240.788H206.521C206.954 240.788 207.315 241.149 207.315 241.582C207.315 242.016 206.954 242.377 206.521 242.377H206.497Z" fill="#221F5A"/>
<path d="M131.913 253.552C131.913 257.189 134.847 260.127 138.479 260.127C142.111 260.127 145.045 257.189 145.045 253.552C145.045 249.916 142.111 246.977 138.479 246.977C134.847 246.977 131.913 249.916 131.913 253.552Z" fill="#C4DCFD"/>
<path d="M83.3049 253.552C83.3049 257.189 86.2392 260.127 89.871 260.127C93.5028 260.127 96.4371 257.189 96.4371 253.552C96.4371 249.916 93.5028 246.977 89.871 246.977C86.2392 246.977 83.3049 249.916 83.3049 253.552Z" fill="#221F5A"/>
<path d="M107.597 253.552C107.597 257.189 110.531 260.127 114.163 260.127C117.795 260.127 120.729 257.189 120.729 253.552C120.729 249.916 117.795 246.977 114.163 246.977C110.531 246.977 107.597 249.916 107.597 253.552Z" fill="#0085FF"/>
<path d="M206.497 269.111H21.8774C21.4445 269.111 21.0837 268.75 21.0837 268.316V132.359C21.0837 131.926 21.4445 131.564 21.8774 131.564H206.521C206.954 131.564 207.315 131.926 207.315 132.359V268.316C207.315 268.75 206.954 269.111 206.521 269.111H206.497ZM22.6471 267.522H205.703V133.13H22.6471V267.522Z" fill="#221F5A"/>
<path d="M136.531 149.435L321.175 149.435V13.478L136.531 13.478L136.531 149.435Z" fill="#0085FF"/>
<path d="M136.555 149.459H321.199L320.886 97.533C309.75 80.8906 295.271 64.4649 268.646 63.8628C243.055 63.2848 231.126 67.5718 231.126 67.5718C209.287 70.5101 203.178 75.8087 195.001 87.4656C190.335 94.113 184.755 103.988 178.381 102.181C170.829 100.062 161.545 60.5632 161.545 60.5632L129.436 68.6075C128.546 61.8638 130.615 91.1747 136.555 122.701V149.435V149.459Z" fill="#221F5A"/>
<path d="M252.243 78.4099C266.939 75.327 272.663 68.9206 274.876 64.3204C272.879 64.0796 270.811 63.911 268.646 63.8628C243.056 63.2848 232.954 67.0179 232.954 67.0179C226.701 67.8608 219.894 69.4504 215.805 70.7751C215.829 70.7992 227.831 83.5399 252.243 78.4099Z" fill="white"/>
<path d="M252.051 28.29C251.714 27.8565 251.353 27.447 250.993 27.0376L250.968 26.9894C246.928 22.6542 240.867 20.3421 234.589 21.3777C226.773 22.6783 220.952 28.7476 219.581 36.1175C219.581 36.1175 215.637 55.1683 220.014 58.7569C228.865 66.0545 261.503 61.5989 265.159 50.7368C266.65 46.3052 255.634 32.577 252.051 28.29Z" fill="#221F5A"/>
<path d="M321.175 150.254H136.555C136.122 150.254 135.762 149.893 135.762 149.459V122.798C132.924 107.769 131.072 93.7999 130.013 84.7441C129.484 80.2644 129.027 75.881 128.739 72.437C128.306 67.4033 128.354 67.3551 128.739 67.042C128.955 66.8493 129.268 66.8012 129.532 66.9216C129.845 67.042 129.965 67.2347 130.061 67.6441L161.352 59.7926C161.545 59.7444 161.761 59.7926 161.954 59.8889C162.122 60.0093 162.266 60.1779 162.314 60.3706C164.864 71.2327 172.777 99.7729 178.597 101.411C183.624 102.832 188.362 95.823 192.547 89.6333C193.173 88.7181 193.774 87.827 194.351 87.0081C202.505 75.3753 210.345 69.2819 232.761 66.2472C233.868 65.8619 244.138 62.5141 268.646 63.0681C280.961 63.3571 291.567 66.9457 301.02 74.0506C310.063 80.8424 316.725 89.9223 321.512 97.0995C321.608 97.2199 321.656 97.3885 321.656 97.533L321.969 149.459C321.969 149.676 321.896 149.869 321.728 150.013C321.584 150.158 321.367 150.254 321.175 150.254ZM137.325 148.664H320.381L320.092 97.7739C308.764 80.8906 294.67 65.2357 268.622 64.6576C243.536 64.0796 233.339 67.7405 233.218 67.7646C233.17 67.7646 233.098 67.7886 233.05 67.8127C211.139 70.7751 203.539 76.6517 195.626 87.9233C195.049 88.7662 194.447 89.6333 193.846 90.5485C189.348 97.1717 184.274 104.686 178.164 102.952C170.757 100.857 162.555 68.1499 160.968 61.5267L130.085 69.2819C130.494 75.3993 132.827 98.6168 137.349 122.581C137.349 122.629 137.349 122.677 137.349 122.725V148.664H137.325Z" fill="#221F5A"/>
<path d="M253.999 67.6199L251.449 59.7684C237.716 62.2732 243.152 46.6182 243.152 46.6182C235.575 33.2754 232.304 43.2946 221.193 33.8293L219.99 37.0085C220.158 50.4717 218.282 64.0795 232.593 62.9234L233.916 70.9195L253.975 67.5958L253.999 67.6199Z" fill="white"/>
<path d="M253.013 65.3801C252.676 65.3801 252.363 65.1633 252.267 64.8261L250.439 59.2385C250.295 58.8291 250.535 58.3715 250.944 58.2511C251.353 58.1066 251.81 58.3474 251.93 58.7568L253.758 64.3444C253.903 64.7539 253.662 65.2115 253.253 65.3319C253.181 65.356 253.085 65.3801 253.013 65.3801Z" fill="#221F5A"/>
<path d="M233.603 69.8117C233.218 69.8117 232.882 69.5467 232.834 69.1614L231.944 63.7664C228.192 63.9591 225.378 63.1162 223.333 61.2376C219.148 57.36 219.172 49.677 219.22 41.5605C219.22 40.0914 219.22 38.55 219.22 37.0326C219.22 37.0085 219.22 36.9604 219.22 36.9363C219.22 36.84 219.485 34.7446 220.543 32.4566C220.736 32.0712 221.193 31.9026 221.602 32.0712C221.986 32.2639 222.155 32.7215 221.986 33.1309C221.121 35.0095 220.832 36.7918 220.808 37.0808C220.808 38.5981 220.808 40.1154 220.808 41.5846C220.784 49.3639 220.736 56.6856 224.416 60.1056C226.244 61.7915 228.889 62.4659 232.545 62.1769C232.954 62.1287 233.315 62.4177 233.387 62.8272L234.397 68.9205C234.469 69.3541 234.181 69.7635 233.748 69.8358C233.699 69.8358 233.651 69.8358 233.627 69.8358L233.603 69.8117Z" fill="#221F5A"/>
<path d="M232.617 63.7183C232.232 63.7183 231.896 63.4534 231.847 63.068C231.775 62.6345 232.064 62.2251 232.497 62.1528C236.321 61.5266 239.135 59.937 239.159 59.9129C239.544 59.6962 240.025 59.8166 240.241 60.202C240.458 60.5873 240.338 61.069 239.953 61.2858C239.833 61.358 236.898 63.0199 232.761 63.7183C232.713 63.7183 232.665 63.7183 232.641 63.7183H232.617Z" fill="#221F5A"/>
<path d="M233.435 67.9813C233.435 67.9813 236.129 69.6431 238.245 67.5959C240.362 65.5488 240.049 60.2261 240.049 60.2261L232.617 62.9235L233.459 67.9813H233.435Z" fill="#221F5A"/>
<path d="M224.632 51.5315C224.199 51.5315 223.838 51.1702 223.862 50.7367L223.983 42.5239C223.983 42.0904 224.344 41.7532 224.776 41.7532C225.209 41.7532 225.57 42.1144 225.546 42.548L225.426 50.7608C225.426 51.1943 225.065 51.5315 224.632 51.5315Z" fill="#221F5A"/>
<path d="M217.393 127.205C217.393 127.205 217.152 127.181 217.056 127.133C212.246 124.821 208.854 120.293 207.988 115.042C206.906 108.491 209.864 101.989 215.493 98.4722C215.853 98.2554 216.358 98.3518 216.575 98.7371C216.815 99.0984 216.695 99.6042 216.31 99.8209C211.211 102.976 208.542 108.853 209.528 114.802C210.321 119.57 213.376 123.641 217.729 125.736C218.114 125.929 218.282 126.386 218.09 126.796C217.946 127.085 217.681 127.253 217.369 127.253L217.393 127.205Z" fill="white"/>
<path d="M215.901 99.9173C215.517 99.9173 215.18 99.6524 215.132 99.267L213.977 92.1862C213.905 91.7526 214.194 91.3432 214.627 91.271C215.06 91.1987 215.469 91.4877 215.541 91.9212L216.695 99.0021C216.767 99.4356 216.479 99.845 216.046 99.9173C215.998 99.9173 215.95 99.9173 215.926 99.9173H215.901Z" fill="white"/>
<path d="M217.44 150.254C217.008 150.254 216.647 149.893 216.647 149.459L216.599 126.41C216.599 125.977 216.959 125.615 217.392 125.615C217.825 125.615 218.186 125.977 218.186 126.41L218.234 149.459C218.234 149.893 217.873 150.254 217.44 150.254Z" fill="white"/>
<path d="M308.644 149.58C308.403 149.58 308.163 149.459 307.995 149.242L280.648 110.828C280.407 110.466 280.48 109.985 280.84 109.72C281.201 109.479 281.682 109.551 281.947 109.912L309.293 148.327C309.534 148.688 309.462 149.17 309.101 149.435C308.957 149.531 308.812 149.58 308.644 149.58Z" fill="white"/>
<path d="M220.88 44.2339C220.88 44.8842 221.409 45.4381 222.082 45.4381C222.756 45.4381 223.285 44.9083 223.285 44.2339C223.285 43.5595 222.756 43.0297 222.082 43.0297C221.409 43.0297 220.88 43.5595 220.88 44.2339Z" fill="#221F5A"/>
<path d="M231.126 44.2581C231.79 44.2581 232.328 43.7189 232.328 43.0538C232.328 42.3888 231.79 41.8496 231.126 41.8496C230.462 41.8496 229.923 42.3888 229.923 43.0538C229.923 43.7189 230.462 44.2581 231.126 44.2581Z" fill="#221F5A"/>
<path d="M226.628 54.3976C226.291 54.3976 225.979 54.1809 225.882 53.8437C225.738 53.4342 225.979 52.9766 226.388 52.8562C227.037 52.6395 227.686 51.4352 227.903 50.8813C228.071 50.4719 228.504 50.2792 228.913 50.4237C229.322 50.5682 229.514 51.0258 229.37 51.4352C229.274 51.6761 228.408 53.8678 226.869 54.3495C226.796 54.3735 226.7 54.3976 226.628 54.3976Z" fill="#221F5A"/>
<path d="M239.712 39.2484C237.476 40.9825 237.067 44.1857 238.774 46.4256C240.506 48.6654 243.705 49.0749 245.942 47.3649C248.178 45.6308 248.587 42.4276 246.88 40.1877C245.148 37.9478 241.949 37.5384 239.712 39.2484Z" fill="white"/>
<path d="M242.695 45.4141C242.695 45.4141 242.55 45.4141 242.454 45.39C242.045 45.2696 241.805 44.812 241.925 44.4025L242.863 41.3197C242.983 40.9103 243.44 40.6694 243.849 40.7899C244.258 40.9103 244.499 41.3679 244.378 41.7773L243.44 44.8601C243.344 45.1973 243.031 45.4141 242.695 45.4141Z" fill="#221F5A"/>
<path d="M136.531 149.459L321.175 149.459V122.725L136.531 122.725V149.459Z" fill="white"/>
<path d="M321.175 123.52H136.555C136.122 123.52 135.762 123.159 135.762 122.725C135.762 122.292 136.122 121.931 136.555 121.931H321.199C321.632 121.931 321.993 122.292 321.993 122.725C321.993 123.159 321.632 123.52 321.199 123.52H321.175Z" fill="#221F5A"/>
<path d="M321.175 150.254H136.555C136.122 150.254 135.762 149.893 135.762 149.459V13.5021C135.762 13.0685 136.122 12.7073 136.555 12.7073H321.199C321.632 12.7073 321.993 13.0685 321.993 13.5021V149.459C321.993 149.893 321.632 150.254 321.199 150.254H321.175ZM137.325 148.664H320.381V14.2728H137.349V148.664H137.325Z" fill="#221F5A"/>
<path d="M88.5009 51.829L167.991 51.8707L168.018 0.931975L88.5276 0.890297L88.5009 51.829Z" fill="white"/>
<path d="M167.991 52.6635L88.5002 52.6153C88.2838 52.6153 88.0914 52.5431 87.9471 52.3745C87.8027 52.23 87.7065 52.0373 87.7065 51.8205V0.905873C87.7306 0.472352 88.0914 0.111084 88.5243 0.111084L168.015 0.159253C168.231 0.159253 168.423 0.231507 168.568 0.400098C168.712 0.544605 168.808 0.737281 168.808 0.954042V51.8928C168.784 52.3263 168.423 52.6876 167.991 52.6876V52.6635ZM89.2939 51.0498L167.197 51.098V1.72475L89.318 1.67658V51.0258L89.2939 51.0498Z" fill="#221F5A"/>
<path d="M128.258 34.6483C128.089 34.6483 127.897 34.5761 127.752 34.4556L88.0194 1.50801C87.6826 1.219 87.6345 0.737307 87.9232 0.400124C88.2118 0.0629407 88.6928 0.0147716 89.0295 0.303786L128.258 32.842L167.51 0.32787C167.846 0.0388562 168.351 0.0870252 168.616 0.424208C168.905 0.761392 168.857 1.26717 168.52 1.5321L128.763 34.4316C128.618 34.552 128.45 34.6242 128.258 34.6242V34.6483Z" fill="#221F5A"/>
<path d="M88.5003 52.6153C88.2839 52.6153 88.0674 52.519 87.899 52.3504C87.6104 52.0132 87.6345 51.5315 87.9712 51.2425L117.458 25.3035C117.795 25.0145 118.276 25.0386 118.565 25.3757C118.853 25.7129 118.829 26.1946 118.493 26.4836L89.0054 52.4226C88.8611 52.5431 88.6687 52.6153 88.4763 52.6153H88.5003Z" fill="#221F5A"/>
<path d="M167.991 52.6634C167.798 52.6634 167.63 52.5912 167.462 52.4708L138.119 26.604C137.782 26.315 137.758 25.8092 138.046 25.4961C138.335 25.1589 138.84 25.1348 139.153 25.4238L168.496 51.2906C168.832 51.5796 168.856 52.0854 168.568 52.3985C168.424 52.5671 168.183 52.6634 167.967 52.6634H167.991Z" fill="#221F5A"/>
<path d="M148.725 84.1419C157.432 82.6487 163.421 74.5322 162.242 65.7655L161.545 60.5873C160.751 55.6981 159.548 50.255 146.945 51.8687C146.945 51.8687 144.107 47.3649 141.269 41.8736C136.555 32.7938 125.371 32.6733 130.59 43.3187L128.257 38.0683C124.986 29.3978 120.417 31.1801 117.987 32.3843C114.259 34.2629 117.073 40.6694 117.073 40.6694C117.073 40.6694 113.875 30.867 106.852 34.5519C103.1 36.5269 107.044 41.7291 111.71 51.8928L104.615 51.8446C104.615 51.8446 112.672 58.6605 114.428 60.226C116.184 61.7915 128.257 61.7674 128.257 61.7674L129.773 70.6787C131.288 79.6381 139.778 85.6593 148.701 84.1419H148.725Z" fill="white"/>
<path d="M145.935 85.1535C142.4 85.1535 138.96 84.0697 136.026 81.9744C132.274 79.301 129.797 75.3511 129.027 70.7991L127.632 62.5382C124.578 62.5382 115.655 62.3455 113.947 60.8041C112.215 59.2627 104.23 52.4949 104.158 52.4227C103.893 52.2059 103.821 51.8687 103.917 51.5556C104.038 51.2425 104.326 51.0498 104.663 51.0498L110.508 51.098C109.666 49.2676 108.824 47.6298 108.102 46.1366C104.879 39.6579 102.931 35.7321 106.539 33.8535C108.511 32.8179 110.411 32.6493 112.191 33.3718C113.466 33.8776 114.5 34.7928 115.318 35.8043C115.366 34.1666 115.943 32.5529 117.699 31.6859C119.286 30.8911 121.427 30.0722 123.688 30.9633C125.708 31.7581 127.392 33.7812 128.739 37.0086C129.171 35.708 130.061 35.0818 130.518 34.865C133.525 33.3477 138.985 35.708 142.015 41.5365C144.324 45.968 146.633 49.7974 147.403 51.0498C160.607 49.5325 161.665 56.1317 162.363 60.491L163.06 65.6932C164.287 74.9417 158.057 83.3953 148.894 84.9608C147.908 85.1294 146.946 85.2017 145.984 85.2017L145.935 85.1535ZM148.581 83.3472C156.927 81.9262 162.579 74.2432 161.449 65.8377L160.751 60.6596C160.03 56.1798 159.212 51.0498 147.042 52.6153C146.729 52.6635 146.44 52.519 146.272 52.2541C146.248 52.2059 143.386 47.6539 140.548 42.2108C137.854 37.0326 133.188 35.2022 131.168 36.2379C129.797 36.9363 129.653 38.9353 130.735 41.681L131.312 42.9815C131.48 43.3669 131.312 43.8245 130.927 44.0172C130.542 44.2098 130.085 44.0172 129.893 43.6559C129.653 43.1742 129.46 42.7166 129.292 42.2831L127.56 38.3814C126.333 35.1059 124.818 33.1069 123.062 32.4325C121.403 31.7822 119.743 32.4084 118.348 33.1069C115.991 34.287 116.977 38.0442 117.507 39.6338C117.699 40.0914 117.795 40.3804 117.819 40.4286C117.939 40.838 117.747 41.2715 117.362 41.416C116.977 41.5605 116.52 41.3919 116.352 41.0066C116.328 40.9584 116.208 40.6694 116.039 40.2118C115.462 38.8149 113.971 35.8525 111.542 34.865C110.195 34.3111 108.8 34.4556 107.212 35.2745C105.072 36.3824 106.371 39.2003 109.473 45.4622C110.363 47.2686 111.373 49.3157 112.432 51.6038C112.552 51.8446 112.528 52.1336 112.384 52.3504C112.239 52.5672 111.975 52.7117 111.71 52.7117H106.78C109.233 54.7589 113.682 58.5401 114.933 59.6721C115.871 60.5151 122.245 60.9967 127.969 60.9967C128.065 60.9967 128.137 60.9967 128.258 60.9967C128.642 60.9967 128.979 61.2858 129.027 61.647L130.542 70.5583C131.24 74.6768 133.501 78.2894 136.916 80.6979C140.331 83.1063 144.468 84.0697 148.581 83.3713V83.3472Z" fill="#221F5A"/>
<path d="M246.591 134.695C246.591 138.332 249.525 141.271 253.157 141.271C256.789 141.271 259.723 138.332 259.723 134.695C259.723 131.059 256.789 128.12 253.157 128.12C249.525 128.12 246.591 131.059 246.591 134.695Z" fill="#C4DCFD"/>
<path d="M197.983 134.695C197.983 138.332 200.917 141.271 204.549 141.271C208.181 141.271 211.115 138.332 211.115 134.695C211.115 131.059 208.181 128.12 204.549 128.12C200.917 128.12 197.983 131.059 197.983 134.695Z" fill="#221F5A"/>
<path d="M222.299 134.695C222.299 138.332 225.233 141.271 228.865 141.271C232.497 141.271 235.431 138.332 235.431 134.695C235.431 131.059 232.497 128.12 228.865 128.12C225.233 128.12 222.299 131.059 222.299 134.695Z" fill="#0085FF"/>
<path d="M139.297 62.5622H128.258C127.825 62.5622 127.464 62.201 127.464 61.7674C127.464 61.3339 127.825 60.9727 128.258 60.9727H139.297C139.73 60.9727 140.091 61.3339 140.091 61.7674C140.091 62.201 139.73 62.5622 139.297 62.5622Z" fill="#221F5A"/>
<path d="M134.872 54.0363C134.559 54.0363 134.27 53.8677 134.15 53.5546L125.564 33.6367C125.395 33.2273 125.564 32.7697 125.973 32.6011C126.382 32.4325 126.838 32.6011 127.007 33.0105L135.593 52.9284C135.762 53.3378 135.593 53.7954 135.184 53.964C135.088 54.0122 134.968 54.0363 134.872 54.0363Z" fill="#221F5A"/>
<path d="M123.952 57.3841C123.639 57.3841 123.351 57.2155 123.231 56.9024L116.352 40.9585C116.183 40.549 116.352 40.0914 116.761 39.9228C117.17 39.7543 117.627 39.9228 117.795 40.3323L124.674 56.2762C124.842 56.6857 124.674 57.1433 124.265 57.3119C124.169 57.36 124.048 57.3841 123.952 57.3841Z" fill="#221F5A"/>
<path d="M115.703 175.663C114.644 175.663 113.682 175.254 112.937 174.531C112.191 173.785 111.782 172.797 111.758 171.737C111.758 171.304 112.119 170.943 112.552 170.943H118.853V170.918C119.286 170.918 119.647 171.28 119.647 171.713C119.647 172.773 119.238 173.76 118.517 174.507C117.771 175.254 116.785 175.663 115.727 175.687L115.703 175.663ZM113.466 172.508C113.586 172.845 113.779 173.134 114.019 173.399C114.476 173.833 115.053 174.098 115.679 174.098C116.304 174.098 116.905 173.857 117.338 173.399C117.603 173.134 117.771 172.845 117.891 172.508H113.418H113.466Z" fill="#221F5A"/>
<path d="M239.88 177.975C239.688 177.975 239.472 177.903 239.327 177.734C239.015 177.421 239.015 176.915 239.327 176.626L250.247 165.692C250.559 165.379 251.064 165.379 251.353 165.692C251.666 166.005 251.666 166.511 251.353 166.8L240.434 177.734C240.289 177.879 240.073 177.975 239.88 177.975Z" fill="#221F5A"/>
<path d="M250.8 177.975C250.607 177.975 250.391 177.903 250.247 177.734L239.327 166.8C239.015 166.487 239.015 165.981 239.327 165.692C239.64 165.379 240.145 165.379 240.434 165.692L251.353 176.626C251.666 176.94 251.666 177.445 251.353 177.734C251.209 177.879 250.992 177.975 250.8 177.975Z" fill="#221F5A"/>
<path d="M113.682 56.7579C113.394 56.7579 113.105 56.5893 112.961 56.3003L110.989 52.2059C110.796 51.8206 110.965 51.3389 111.349 51.1462C111.734 50.9535 112.215 51.1221 112.408 51.5075L114.38 55.6019C114.572 55.9872 114.404 56.4689 114.019 56.6616C113.899 56.7097 113.803 56.7338 113.682 56.7338V56.7579Z" fill="#221F5A"/>
<path d="M158.274 241.582C158.274 241.582 166.981 225.085 174.605 229.564C174.605 229.564 179.319 225.036 184.61 228.77C184.61 228.77 190.142 225.109 194.64 229.179C194.64 229.179 197.935 225.952 201.951 228.456C205.968 230.961 208.494 238.861 209.696 242.835C210.899 246.809 210.273 252.469 206.497 252.589C202.721 252.71 201.35 249.964 201.35 249.964C201.35 249.964 201.11 253.986 196.949 254.805C192.788 255.624 191.032 251.578 191.032 251.578C191.032 251.578 192.571 255.816 187.304 256.659C182.037 257.478 179.992 251.168 179.992 251.168C179.992 251.168 180.233 255.913 174.99 255.551C169.771 255.19 166.5 241.486 166.5 241.486L158.298 241.631L158.274 241.582Z" fill="white"/>
<path d="M186.366 257.478C183.48 257.478 181.459 255.503 180.257 253.577C180.04 254.058 179.752 254.516 179.319 254.949C178.284 255.961 176.817 256.419 174.917 256.298C169.77 255.961 166.643 245.219 165.874 242.257L158.298 242.377C158.009 242.377 157.768 242.233 157.624 241.992C157.48 241.751 157.48 241.462 157.6 241.221C157.841 240.764 163.541 230.118 169.987 228.288C171.598 227.83 173.113 227.951 174.532 228.625C175.879 227.589 180.04 224.916 184.658 227.854C186.101 227.084 190.671 225.061 194.663 228.143C196.227 226.963 199.233 225.807 202.408 227.782C206.328 230.215 208.782 236.982 210.489 242.594C211.307 245.316 211.427 249.29 209.768 251.626C208.974 252.734 207.868 253.312 206.569 253.36C204.236 253.432 202.697 252.517 201.783 251.674C201.181 253.239 199.811 255.022 197.141 255.552C194.856 256.009 193.1 255.142 191.922 254.034C191.825 254.371 191.705 254.733 191.489 255.07C190.767 256.298 189.396 257.093 187.448 257.406C187.087 257.454 186.751 257.478 186.414 257.478H186.366ZM179.968 250.349C180.305 250.349 180.617 250.566 180.714 250.903C180.786 251.144 182.614 256.563 187.159 255.841C188.627 255.6 189.613 255.094 190.094 254.275C190.743 253.167 190.286 251.843 190.286 251.818C190.142 251.409 190.334 250.975 190.743 250.807C191.128 250.638 191.585 250.831 191.753 251.216C191.825 251.361 193.317 254.684 196.804 253.986C200.292 253.288 200.556 250.012 200.58 249.868C200.58 249.506 200.869 249.217 201.206 249.145C201.566 249.073 201.903 249.241 202.071 249.554C202.119 249.651 203.322 251.843 206.497 251.746C207.315 251.746 207.964 251.361 208.469 250.662C209.624 249.049 209.84 245.845 208.974 243.003C208.012 239.848 205.487 231.491 201.566 229.059C198.127 226.915 195.337 229.564 195.217 229.685C194.928 229.974 194.447 229.974 194.134 229.685C190.142 226.072 185.259 229.227 185.067 229.348C184.802 229.516 184.442 229.516 184.177 229.348C179.487 226.024 175.35 229.902 175.182 230.07C174.917 230.311 174.532 230.359 174.244 230.191C173.065 229.492 171.815 229.348 170.444 229.733C165.826 231.058 161.352 237.922 159.693 240.715L166.499 240.595C166.86 240.595 167.173 240.836 167.269 241.197C168.135 244.858 171.237 254.395 175.037 254.66C176.432 254.757 177.515 254.468 178.212 253.769C179.271 252.734 179.198 251.12 179.198 251.096C179.198 250.711 179.463 250.349 179.848 250.277C179.896 250.277 179.944 250.277 179.992 250.277L179.968 250.349Z" fill="#221F5A"/>
<path d="M201.35 250.735C201.013 250.735 200.701 250.518 200.605 250.181L193.894 229.42C193.75 229.01 193.99 228.553 194.399 228.432C194.808 228.288 195.265 228.529 195.385 228.938L202.096 249.699C202.24 250.108 202 250.566 201.591 250.686C201.519 250.711 201.422 250.735 201.35 250.735Z" fill="#221F5A"/>
<path d="M191.104 252.637C190.767 252.637 190.455 252.421 190.335 252.059L183.817 228.986C183.696 228.577 183.937 228.119 184.37 228.023C184.803 227.902 185.236 228.143 185.332 228.577L191.85 251.65C191.97 252.059 191.729 252.517 191.297 252.613C191.224 252.613 191.152 252.637 191.08 252.637H191.104Z" fill="#221F5A"/>
<path d="M180.209 252.348C179.848 252.348 179.535 252.107 179.439 251.746L173.811 229.757C173.715 229.323 173.955 228.914 174.388 228.794C174.821 228.697 175.23 228.938 175.35 229.372L180.978 251.361C181.075 251.794 180.834 252.204 180.401 252.324C180.329 252.324 180.281 252.348 180.209 252.348Z" fill="#221F5A"/>
<path d="M77.8936 78.7229C73.5884 79.0842 67.4553 83.1304 67.4553 83.1304C67.4553 83.1304 70.3896 76.9888 71.8567 73.7133C73.2998 70.4378 79.938 58.0584 76.1619 55.6981C72.3858 53.3619 68.8743 59.7443 68.8743 59.7443C68.8743 59.7443 71.8086 49.1953 66.7818 47.5335C62.9095 46.257 61.1297 52.1577 60.2879 54.9515C61.8272 48.834 59.6866 47.3167 57.8106 46.8109C55.7903 46.2811 53.4332 48.5691 52.6395 51.1943C51.8458 53.8195 46.1697 71.2808 46.1697 71.2808C48.6229 57.2636 47.5647 55.5054 44.7747 55.4091C41.9847 55.3128 40.6859 60.4669 40.253 61.7433C39.8201 63.0198 36.2605 74.3395 36.1883 74.6045C36.1402 74.749 31.6185 86.5986 27.7222 96.8586C24.6195 104.999 28.7323 114.103 36.8617 117.162C44.3658 119.98 52.7839 116.704 56.3916 109.551L57.5942 107.143C63.0539 105.312 70.4617 95.5339 72.5061 92.8846C74.5505 90.2353 83.7382 88.9107 85.1332 85.2257C86.5281 81.5649 82.2229 78.3376 77.9177 78.6988L77.8936 78.7229Z" fill="white"/>
<path d="M42.3935 118.968C40.4453 118.968 38.4971 118.631 36.573 117.908C32.4361 116.343 29.1651 113.284 27.3613 109.238C25.5574 105.216 25.4131 100.712 27.0005 96.5936C32.5083 82.1188 35.3704 74.6526 35.4666 74.3636L35.635 73.8337C37.968 66.4157 39.2908 62.2491 39.5313 61.5025C39.5794 61.382 39.6275 61.2135 39.6756 61.0208C40.2769 59.094 41.6719 54.6143 44.7265 54.6143C44.7505 54.6143 44.7986 54.6143 44.8227 54.6143C45.6404 54.6384 46.6506 54.7829 47.3721 55.6981C48.1658 56.6856 48.5747 58.3233 48.238 62.4418C49.8013 57.6249 51.509 52.3263 51.9179 50.9775C52.8078 48.0633 55.4534 45.3899 58.051 46.0643C59.9751 46.5701 61.1296 47.7984 61.5144 49.7492C62.1879 48.5691 63.0056 47.5334 64.0879 46.9795C65.0259 46.4978 66.0361 46.4256 67.0944 46.7868C70.7983 48.0151 70.8224 53.0488 70.3654 56.5411C71.2072 55.674 72.2654 54.8551 73.444 54.542C74.5503 54.253 75.6327 54.4216 76.6188 55.0478C80.2025 57.2636 76.8352 65.1392 73.4199 72.3405C73.0832 73.0389 72.8186 73.617 72.6262 74.0505C71.7604 76.0254 70.3413 79.036 69.3552 81.1313C71.592 79.879 75.0554 78.193 77.8695 77.9522C80.7075 77.7113 83.6418 78.8915 85.1571 80.9146C86.2153 82.3115 86.4799 83.9733 85.8786 85.5388C84.9647 87.9232 81.5734 89.296 78.3024 90.6207C76.1378 91.4877 73.901 92.4029 73.1313 93.3904L73.0111 93.559C70.6781 96.5936 63.7031 105.722 58.1713 107.817L57.113 109.936C54.2268 115.644 48.4785 118.992 42.4175 118.992L42.3935 118.968ZM44.7024 56.2039C42.8023 56.2039 41.6238 60.0333 41.1668 61.5025C41.0947 61.7192 41.0466 61.8878 40.9985 62.0323C40.8301 62.5381 40.0124 65.0911 37.1021 74.3154L36.9338 74.8694C36.9338 74.8694 36.8616 75.062 28.4436 97.1716C27.0245 100.905 27.1448 104.975 28.7803 108.612C30.4158 112.249 33.3741 115.042 37.1262 116.439C44.2695 119.137 52.2305 116.006 55.6699 109.214L56.8725 106.805C56.9687 106.613 57.137 106.468 57.3295 106.42C60.7207 105.288 65.5791 100.64 71.7363 92.5956L71.8566 92.427C72.8667 91.1023 75.1997 90.163 77.677 89.1515C80.5151 88.0195 83.714 86.719 84.3634 84.9608C84.8684 83.6121 84.3634 82.5282 83.8583 81.8539C82.6557 80.2643 80.2265 79.3009 77.9657 79.5177C73.925 79.8549 67.9602 83.7566 67.9121 83.8047C67.6235 83.9974 67.2387 83.9733 66.9501 83.7325C66.6855 83.4916 66.6133 83.1063 66.7577 82.7932C66.7817 82.7209 69.716 76.6275 71.135 73.4002C71.3274 72.9667 71.6161 72.3646 71.9528 71.642C73.7326 67.9089 78.4467 58.0343 75.7529 56.3725C75.1276 55.9871 74.4782 55.8908 73.8048 56.0594C71.4958 56.6615 69.5957 60.0815 69.5717 60.1296C69.3793 60.4909 68.9463 60.6354 68.5856 60.4668C68.2248 60.3223 68.0083 59.9129 68.1286 59.5275C68.8982 56.806 70.0768 49.4361 66.5412 48.2801C65.8918 48.0633 65.3146 48.0874 64.7614 48.3764C62.8132 49.388 61.6828 53.1211 61.0574 55.1201V55.1923C60.9131 55.6018 60.4802 55.8426 60.0713 55.7222C59.6625 55.6018 59.4219 55.1923 59.5181 54.7588C61.1055 48.4968 58.5561 47.8465 57.6181 47.5816C56.175 47.1963 54.1066 49.0749 53.4091 51.4351C52.6154 54.0363 47.1557 70.8232 46.9392 71.5216C46.8189 71.907 46.4101 72.1478 46.0012 72.0515C45.5923 71.9551 45.3518 71.5457 45.424 71.1604C46.9632 62.4177 47.1797 57.962 46.1696 56.7096C45.905 56.3725 45.4961 56.252 44.7746 56.228C44.7746 56.228 44.7505 56.228 44.7265 56.228L44.7024 56.2039Z" fill="#221F5A"/>
<path d="M44.7747 88.5253C44.6304 88.5253 44.5102 88.5012 44.3899 88.429C44.0051 88.2122 43.8848 87.7305 44.1013 87.3452C46.6026 83.0581 49.8736 80.4088 53.8421 79.4936C60.9373 77.8559 67.6477 82.3115 67.9123 82.5042C68.2731 82.745 68.3693 83.2267 68.1288 83.588C67.8882 83.9493 67.4072 84.0456 67.0464 83.8048C66.9743 83.7566 60.6247 79.5418 54.2029 81.035C50.6673 81.8539 47.7331 84.2383 45.4722 88.14C45.3279 88.3808 45.0633 88.5253 44.7988 88.5253H44.7747Z" fill="#221F5A"/>
<path d="M54.5636 73.3521C54.5636 73.3521 54.3953 73.3521 54.3231 73.3039C53.9142 73.1594 53.6737 72.7259 53.818 72.3165L59.5423 54.7107C59.6866 54.3013 60.1195 54.0604 60.5284 54.2049C60.9373 54.3494 61.1778 54.783 61.0335 55.1924L55.3092 72.7982C55.189 73.1354 54.9003 73.3521 54.5636 73.3521Z" fill="#221F5A"/>
<path d="M62.164 76.459C62.164 76.459 61.9475 76.459 61.8513 76.3868C61.4424 76.2182 61.2741 75.7606 61.4424 75.3511L68.1768 59.4072C68.3452 58.9977 68.8022 58.8051 69.2111 58.9977C69.6199 59.1663 69.7883 59.6239 69.6199 60.0334L62.8855 75.9773C62.7652 76.2663 62.4766 76.459 62.164 76.459Z" fill="#221F5A"/>
</g>
<defs>
<clipPath id="clip0_329_2320">
<rect width="321.593" height="269" fill="white" transform="translate(0.375488 0.111084)"/>
</clipPath>
</defs>
</svg>
