<svg width="268" height="284" viewBox="0 0 268 284" fill="none" xmlns="http://www.w3.org/2000/svg">
<g clip-path="url(#clip0_83_2116)">
<path d="M252.587 283.496H210.015C209.788 283.496 209.571 283.404 209.415 283.242C209.259 283.08 209.174 282.86 209.184 282.633C209.279 280.244 209.93 268.898 213.76 267.541L214.343 260.939C214.381 260.51 214.74 260.181 215.174 260.181H247.432C247.862 260.181 248.225 260.51 248.262 260.939L248.845 267.514C253.191 268.732 253.425 280.254 253.425 282.667C253.425 283.127 253.052 283.499 252.591 283.499L252.587 283.496ZM210.889 281.831H251.747C251.638 276.271 250.486 269.071 248.072 269.071C247.642 269.071 247.279 268.742 247.242 268.313L246.669 261.843H215.936L215.364 268.313C215.326 268.742 214.967 269.071 214.533 269.071C212.676 269.071 211.238 275.537 210.889 281.831Z" fill="url(#paint0_linear_83_2116)"/>
<path d="M252.587 282.667C252.587 282.667 252.587 268.242 248.072 268.242L247.431 261.014H215.173L214.532 268.242C210.587 268.242 210.018 282.667 210.018 282.667H252.59H252.587Z" fill="white"/>
<path d="M248.072 268.242H214.532C210.587 268.242 210.018 282.667 210.018 282.667H252.59C252.59 282.667 252.59 268.242 248.075 268.242H248.072Z" fill="url(#paint1_linear_83_2116)"/>
<path d="M180.73 260.131L173.765 282.667L125.115 267.676C124.112 267.372 123.651 266.594 123.912 265.741C127.772 253.021 145.849 259.055 145.849 259.055L149.933 250.615L180.734 260.131H180.73Z" fill="white"/>
<path d="M173.762 283.499C173.681 283.499 173.6 283.486 173.515 283.462L124.865 268.472C123.435 268.039 122.709 266.814 123.109 265.501C124.085 262.283 126.007 259.917 128.82 258.466C134.789 255.386 142.962 257.349 145.405 258.05L149.181 250.253C149.361 249.881 149.785 249.698 150.178 249.82L180.979 259.335C181.419 259.471 181.663 259.938 181.528 260.374L174.562 282.91C174.45 283.269 174.122 283.496 173.766 283.496L173.762 283.499ZM136.701 258.462C134.284 258.462 131.742 258.831 129.583 259.948C127.187 261.186 125.546 263.217 124.706 265.985C124.536 266.543 125.041 266.787 125.356 266.885L173.213 281.631L179.691 260.686L150.371 251.627L146.599 259.42C146.416 259.796 145.982 259.978 145.585 259.846C145.521 259.826 141.352 258.466 136.705 258.466L136.701 258.462Z" fill="url(#paint2_linear_83_2116)"/>
<path d="M173.763 282.667L125.113 267.676C124.11 267.372 123.649 266.594 123.91 265.741C127.77 253.021 145.847 259.055 145.847 259.055L146.104 258.523L178.176 268.404L173.766 282.667H173.763Z" fill="url(#paint3_linear_83_2116)"/>
<path d="M251.938 263.914C251.938 263.914 248.637 192.546 248.688 168.737C248.712 157.926 247.373 140.851 237.604 136.489L187.436 138.104L141.582 252.219L181.565 264.956L210.027 195.547L210.271 263.914H251.938Z" fill="url(#paint4_linear_83_2116)"/>
<path d="M181.565 265.785C181.481 265.785 181.396 265.771 181.311 265.744L141.328 253.008C141.108 252.937 140.925 252.778 140.827 252.568C140.728 252.358 140.722 252.118 140.81 251.901L187.219 137.785C187.341 137.481 187.636 137.278 187.965 137.268L237.577 135.654C237.703 135.654 237.828 135.674 237.944 135.725C245.665 139.176 249.559 150.282 249.519 168.734C249.468 192.221 252.735 263.037 252.769 263.748C252.779 263.975 252.698 264.195 252.539 264.36C252.383 264.526 252.166 264.618 251.939 264.618L210.271 264.739C209.814 264.739 209.441 264.37 209.438 263.91L209.207 199.73L182.335 265.264C182.203 265.585 181.894 265.782 181.562 265.782L181.565 265.785ZM142.694 251.695L181.088 263.927L209.258 195.229C209.407 194.864 209.8 194.654 210.187 194.728C210.576 194.803 210.858 195.144 210.861 195.54L211.102 263.078L251.064 262.963C250.688 254.75 247.804 190.844 247.854 168.734C247.892 151.392 244.292 140.54 237.435 137.325L188.561 138.916L142.694 251.698V251.695Z" fill="url(#paint5_linear_83_2116)"/>
<path d="M252.587 284H12.2284C11.7674 284 11.3945 283.628 11.3945 283.168C11.3945 282.707 11.7674 282.335 12.2284 282.335H252.587C253.048 282.335 253.42 282.707 253.42 283.168C253.42 283.628 253.048 284 252.587 284Z" fill="url(#paint6_linear_83_2116)"/>
<path d="M59.3273 283.959C58.9985 283.959 58.6901 283.753 58.5782 283.421L54.565 271.524C54.426 271.111 54.6464 270.664 55.0633 270.526C55.4768 270.387 55.9242 270.61 56.0632 271.023L60.0764 282.921C60.2154 283.333 59.9916 283.78 59.5781 283.919C59.4934 283.946 59.4087 283.959 59.3273 283.959Z" fill="url(#paint7_linear_83_2116)"/>
<path d="M78.2717 283.418C78.204 283.418 78.1396 283.411 78.0718 283.391C77.6481 283.279 77.3972 282.85 77.5057 282.427L81.9494 265.48C82.0612 265.057 82.4917 264.807 82.9154 264.915C83.3391 265.027 83.5899 265.457 83.4815 265.88L79.0378 282.826C78.9463 283.181 78.6243 283.415 78.2751 283.415L78.2717 283.418Z" fill="url(#paint8_linear_83_2116)"/>
<path d="M209.289 198.095C208.841 198.095 208.472 197.743 208.458 197.293L206.991 154.86C206.974 154.4 207.333 154.018 207.794 154.001C208.248 153.984 208.638 154.342 208.655 154.803L210.123 197.236C210.14 197.696 209.78 198.078 209.319 198.095C209.309 198.095 209.299 198.095 209.289 198.095Z" fill="white"/>
<path d="M188.337 93.2612H94.918V186.522H188.337V93.2612Z" fill="#C4DCFD"/>
<path d="M188.337 0H94.918V93.2613H134.955C129.461 95.9006 125.664 101.508 125.664 108.005C125.664 117.033 132.996 124.355 142.043 124.355C151.089 124.355 158.421 117.036 158.421 108.005C158.421 101.511 154.628 95.9006 149.13 93.2613H188.34V0H188.337Z" fill="#3A2FF2"/>
<path d="M109.687 123.543C103.183 123.543 97.5627 127.329 94.9188 132.818V93.2612H1.5V186.522H94.9188V146.966C97.5593 152.451 103.179 156.241 109.687 156.241C118.73 156.241 126.065 148.922 126.065 139.894C126.065 130.866 118.734 123.543 109.687 123.543Z" fill="white"/>
<path d="M94.9187 187.355H1.49984C1.03886 187.355 0.666016 186.983 0.666016 186.522V93.2612C0.666016 92.801 1.03886 92.4288 1.49984 92.4288H94.9187C95.3796 92.4288 95.7525 92.801 95.7525 93.2612V129.813C98.959 125.424 104.152 122.711 109.687 122.711C119.178 122.711 126.895 130.419 126.895 139.89C126.895 149.361 119.174 157.07 109.687 157.07C104.152 157.07 98.9556 154.359 95.7525 149.967V186.519C95.7525 186.979 95.3796 187.352 94.9187 187.352V187.355ZM2.33366 185.69H94.0848V146.966C94.0848 146.577 94.3526 146.242 94.7322 146.154C95.1153 146.069 95.5017 146.255 95.6677 146.604C98.2438 151.95 103.745 155.408 109.683 155.408C118.256 155.408 125.228 148.448 125.228 139.89C125.228 131.333 118.256 124.372 109.683 124.372C103.745 124.372 98.2404 127.827 95.6677 133.177C95.4983 133.525 95.1119 133.711 94.7322 133.627C94.3526 133.542 94.0848 133.204 94.0848 132.815V94.0903H2.33366V185.69Z" fill="url(#paint9_linear_83_2116)"/>
<path d="M109.687 30.2817C103.182 30.2817 97.5627 34.0682 94.9188 39.5568V0H1.5V93.2613H41.1236C35.6292 95.9006 31.8329 101.508 31.8329 108.005C31.8329 117.033 39.1644 124.355 48.2111 124.355C57.2578 124.355 64.5893 117.036 64.5893 108.005C64.5893 101.511 60.7964 95.9006 55.2986 93.2613H94.9222V53.7045C97.5626 59.193 103.182 62.9795 109.69 62.9795C118.734 62.9795 126.069 55.6603 126.069 46.6289C126.069 37.5975 118.737 30.2784 109.69 30.2784L109.687 30.2817Z" fill="url(#paint10_linear_83_2116)"/>
<path d="M187.561 102.807L188.063 70.3901C196.116 64.9387 214.07 65.6696 214.07 65.6696L231.794 65.8625C253.603 70.6235 260.08 87.035 264.957 112.309C269.645 136.588 266.388 150.718 246.112 155.71C228.32 160.088 206.488 150.884 188.13 139.795C174.623 131.637 163.977 120.514 163.977 120.514L180.317 97.3624L187.561 102.81V102.807Z" fill="white"/>
<path d="M223.657 74.1359C223.267 74.1359 222.874 74.1292 222.481 74.1089C214.922 73.784 209.811 69.6795 206.852 66.2957C206.55 65.9505 206.584 65.4226 206.933 65.1215C207.279 64.8203 207.808 64.8542 208.109 65.2027C210.855 68.3429 215.587 72.1497 222.555 72.4474C228.28 72.6911 233.629 71.0195 238.463 67.4732C238.832 67.2025 239.354 67.2803 239.629 67.6492C239.9 68.018 239.822 68.5391 239.452 68.8132C234.636 72.3459 229.328 74.1326 223.66 74.1326L223.657 74.1359Z" fill="url(#paint11_linear_83_2116)"/>
<path d="M236.438 157.665C222.927 157.665 206.586 151.923 187.697 140.509C174.25 132.388 163.482 121.201 163.373 121.09C163.099 120.802 163.065 120.362 163.295 120.037L179.636 96.8853C179.765 96.7026 179.965 96.5774 180.189 96.5436C180.409 96.5063 180.64 96.5639 180.819 96.6992L186.754 101.162L187.229 70.3833C187.232 70.1126 187.368 69.8588 187.595 69.7065C195.781 64.1639 213.359 64.8102 214.104 64.844L231.801 65.0369C231.859 65.0369 231.913 65.0436 231.971 65.0572C242.597 67.3751 250.05 72.4271 255.429 80.9577C260.917 89.6643 263.741 101.616 265.774 112.16C268.327 125.384 268.293 134.723 265.673 141.548C262.758 149.138 256.426 154.038 246.312 156.525C243.21 157.286 239.919 157.669 236.438 157.669V157.665ZM165.058 120.43C167.271 122.656 176.901 132.043 188.561 139.088C211.922 153.202 231.221 158.525 245.912 154.908C264.059 150.441 269.171 138.543 264.137 112.471C259.087 86.3075 252.416 71.2563 231.696 66.6983L214.06 66.5054C213.86 66.4953 196.791 65.8693 188.886 70.8503L188.395 102.824C188.391 103.135 188.208 103.419 187.927 103.558C187.646 103.694 187.31 103.663 187.059 103.477L180.504 98.5468L165.058 120.43Z" fill="url(#paint12_linear_83_2116)"/>
<path d="M235.921 54.7544C242.185 48.5012 242.185 38.3629 235.921 32.1097C229.657 25.8566 219.502 25.8566 213.238 32.1097C206.974 38.3629 206.974 48.5012 213.238 54.7544C219.502 61.0075 229.657 61.0075 235.921 54.7544Z" fill="url(#paint13_linear_83_2116)"/>
<path d="M231.796 67.48V56.7059C223.756 55.2475 225.759 48.5171 225.759 48.5171C223.519 46.7304 224.508 42.1725 225.2 39.8512C225.413 39.1304 224.952 38.3894 224.21 38.2642C217.421 37.1272 211.892 32.4034 210.333 37.8141C209.994 38.9951 209.93 39.1744 209.547 40.643C206.639 51.7453 202.808 60.418 214.075 61.1658L214.062 67.2093L231.799 67.4766L231.796 67.48Z" fill="white"/>
<path d="M214.056 68.0451C213.595 68.0451 213.222 67.6695 213.226 67.2127L213.236 61.9339C210.148 61.6091 208.06 60.6278 206.86 58.9392C204.528 55.6536 206.03 50.2496 207.769 43.9929C208.087 42.8424 208.42 41.6547 208.738 40.4366C209.05 39.2455 209.152 38.8935 209.358 38.1863L209.531 37.5874C209.687 37.0731 210.521 34.5183 211.884 33.8381C212.297 33.6351 212.795 33.8009 213.002 34.2103C213.209 34.6198 213.043 35.1206 212.629 35.327C212.158 35.5605 211.473 36.9309 211.131 38.0611L210.958 38.6533C210.755 39.347 210.657 39.6921 210.352 40.8629C210.03 42.0879 209.697 43.2823 209.375 44.443C207.748 50.2936 206.345 55.3423 208.223 57.9816C209.213 59.3724 211.145 60.1473 214.131 60.3435C214.568 60.374 214.91 60.736 214.907 61.1759L214.894 67.2194C214.894 67.6796 214.521 68.0485 214.06 68.0485L214.056 68.0451Z" fill="url(#paint14_linear_83_2116)"/>
<path d="M231.795 67.4529C231.334 67.4529 230.961 67.0807 230.961 66.6205V56.7059C230.961 56.2457 231.334 55.8735 231.795 55.8735C232.256 55.8735 232.629 56.2457 232.629 56.7059V66.6205C232.629 67.0807 232.256 67.4529 231.795 67.4529Z" fill="url(#paint15_linear_83_2116)"/>
<path d="M211.72 51.1835C211.649 51.1835 211.578 51.1734 211.507 51.1565C211.063 51.038 210.798 50.5846 210.914 50.1379L212.561 43.9253C212.68 43.482 213.134 43.218 213.581 43.3331C214.025 43.4515 214.29 43.905 214.174 44.3516L212.527 50.5643C212.429 50.9365 212.09 51.1835 211.724 51.1835H211.72Z" fill="url(#paint16_linear_83_2116)"/>
<path d="M211.573 45.2991C211.498 45.8134 211.023 46.1687 210.508 46.0977C209.993 46.0266 209.637 45.5495 209.708 45.0352C209.779 44.5208 210.257 44.1655 210.773 44.2366C211.288 44.311 211.644 44.7848 211.573 45.2991Z" fill="url(#paint17_linear_83_2116)"/>
<path d="M230.037 51.285C228.888 53.2003 226.403 53.8229 224.485 52.6758C222.566 51.5287 221.943 49.0483 223.092 47.1331C224.241 45.2179 226.725 44.5952 228.644 45.7424C230.562 46.8895 231.186 49.3698 230.037 51.285Z" fill="white"/>
<path d="M225.554 50.2801C225.232 50.2801 224.927 50.094 224.792 49.7793C224.609 49.3597 224.802 48.869 225.222 48.6829L227.561 47.6644C227.981 47.4817 228.473 47.6745 228.659 48.0941C228.842 48.5137 228.649 49.0044 228.229 49.1905L225.89 50.209C225.781 50.2564 225.67 50.2801 225.558 50.2801H225.554Z" fill="#0A0929"/>
<path d="M219.156 46.3751C219.082 46.8861 218.607 47.2448 218.095 47.1703C217.584 47.0959 217.224 46.6221 217.299 46.1112C217.373 45.6002 217.848 45.2416 218.36 45.316C218.872 45.3904 219.227 45.8642 219.156 46.3751Z" fill="url(#paint18_linear_83_2116)"/>
<path d="M199.126 51.0922C198.733 44.487 194.285 27.974 193.448 24.3161C192.347 19.4975 185.31 18.7125 186.395 26.8878C187.225 33.1546 188.13 39.0526 188.13 39.0526C187.74 37.9596 187.351 36.8632 186.951 35.7703C186.249 33.8415 185.378 31.8044 183.469 30.7825C179.5 28.6643 177.172 32.6267 177.65 36.1628C178.07 39.2725 179.717 42.0134 180.507 45.0182C181.375 48.3174 180.385 51.5997 180.788 54.9328C181.382 59.819 183.88 64.1402 187.615 67.2634C187.598 67.3176 187.883 81.851 187.883 81.851C187.883 81.851 193.18 76.7922 195.818 69.4697C197.644 64.3973 199.539 58.0831 199.126 51.0922Z" fill="white"/>
<path d="M187.885 82.6835C187.777 82.6835 187.669 82.6632 187.567 82.6192C187.262 82.494 187.062 82.1962 187.055 81.868C186.862 71.9839 186.797 68.7591 186.794 67.656C182.974 64.3466 180.554 59.8766 179.964 55.0343C179.781 53.5286 179.869 52.0464 179.951 50.6117C180.059 48.7472 180.164 46.9843 179.703 45.2281C179.391 44.037 178.94 42.9 178.466 41.6954C177.788 39.9764 177.086 38.1999 176.825 36.2745C176.483 33.7366 177.391 31.2394 179.09 30.0618C180.435 29.1279 182.133 29.1245 183.865 30.0483C184.937 30.6201 185.713 31.4559 186.316 32.4034C186.079 30.7318 185.821 28.8775 185.574 26.9995C184.957 22.3298 186.845 20.2894 188.818 19.9341C191.204 19.5077 193.641 21.3925 194.268 24.1334C194.434 24.8609 194.746 26.1095 195.142 27.6898C196.715 33.9803 199.647 45.6883 199.966 51.0482C200.389 58.161 198.505 64.4989 196.61 69.7573C193.936 77.178 188.689 82.247 188.468 82.4568C188.309 82.609 188.102 82.6869 187.892 82.6869L187.885 82.6835ZM188.448 67.2973C188.448 67.7609 188.587 75.1917 188.679 79.7734C190.394 77.7939 193.315 73.9668 195.037 69.1888C196.874 64.086 198.701 57.9546 198.298 51.1396C197.99 45.9353 195.085 34.3254 193.522 28.089C193.126 26.4987 192.81 25.2433 192.641 24.5022C192.173 22.4516 190.431 21.335 189.109 21.5718C187.557 21.8493 186.835 23.8457 187.225 26.7829C188.045 32.9685 188.946 38.8699 188.957 38.9308C189.021 39.3538 188.753 39.7598 188.336 39.8647C187.919 39.9696 187.492 39.7429 187.347 39.3368C186.947 38.2134 186.56 37.134 186.17 36.0579C185.513 34.2476 184.73 32.4034 183.079 31.5202C181.893 30.8875 180.873 30.8604 180.042 31.4356C178.883 32.241 178.225 34.1833 178.48 36.0579C178.713 37.7871 179.347 39.391 180.018 41.093C180.49 42.2909 180.978 43.526 181.317 44.8152C181.845 46.8252 181.73 48.8048 181.618 50.7166C181.533 52.1378 181.456 53.4812 181.618 54.8415C182.171 59.3859 184.493 63.5717 188.153 66.6341C188.357 66.8032 188.462 67.0537 188.452 67.3074L188.448 67.2973Z" fill="url(#paint19_linear_83_2116)"/>
<path d="M191.116 47.0722C190.791 47.0722 190.479 46.8793 190.347 46.5579L187.36 39.3673C187.184 38.9443 187.388 38.457 187.811 38.2811C188.235 38.1051 188.723 38.3081 188.899 38.7311L191.885 45.9217C192.062 46.3447 191.858 46.832 191.435 47.0079C191.33 47.0519 191.221 47.0722 191.116 47.0722Z" fill="url(#paint20_linear_83_2116)"/>
<path d="M215.555 62.0625C214.955 62.0625 214.403 62.0456 213.979 61.9982C213.521 61.9475 213.193 61.5346 213.243 61.0812C213.294 60.6244 213.704 60.2962 214.165 60.3469C215.721 60.5195 219.575 60.2352 219.616 60.2319C220.073 60.198 220.473 60.5398 220.511 61C220.545 61.4568 220.202 61.8561 219.741 61.8899C219.616 61.9001 217.385 62.0659 215.559 62.0659L215.555 62.0625Z" fill="url(#paint21_linear_83_2116)"/>
<path d="M214.445 65.9099C214.445 65.9099 217.546 68.0349 219.397 64.9387C220.651 62.8374 220.268 61.0575 220.268 61.0575L214.068 61.1692L214.441 65.9099H214.445Z" fill="url(#paint22_linear_83_2116)"/>
<path d="M212.545 53.7823C212.193 53.7823 211.864 53.5556 211.752 53.2003C211.613 52.7638 211.857 52.2934 212.294 52.1547C212.728 52.0194 213.43 51.3155 213.792 50.8587C214.077 50.5 214.603 50.4391 214.962 50.7234C215.321 51.0076 215.386 51.5321 215.097 51.8908C214.901 52.1412 213.86 53.4033 212.796 53.7417C212.711 53.7688 212.626 53.7823 212.545 53.7823Z" fill="url(#paint23_linear_83_2116)"/>
<path d="M214.071 38.1085C218.024 38.1085 221.229 34.9089 221.229 30.9619C221.229 27.0149 218.024 23.8153 214.071 23.8153C210.117 23.8153 206.912 27.0149 206.912 30.9619C206.912 34.9089 210.117 38.1085 214.071 38.1085Z" fill="url(#paint24_linear_83_2116)"/>
<path d="M212.006 38.9409C207.6 38.9409 204.014 35.3608 204.014 30.9619C204.014 26.5629 207.6 22.9828 212.006 22.9828C216.413 22.9828 219.999 26.5629 219.999 30.9619C219.999 35.3608 216.413 38.9409 212.006 38.9409ZM212.006 24.6477C208.518 24.6477 205.681 27.4799 205.681 30.9619C205.681 34.4438 208.518 37.2761 212.006 37.2761C215.494 37.2761 218.331 34.4438 218.331 30.9619C218.331 27.4799 215.494 24.6477 212.006 24.6477Z" fill="url(#paint25_linear_83_2116)"/>
<path d="M225.551 42.4195C229.505 42.4195 232.71 39.2198 232.71 35.2729C232.71 31.3259 229.505 28.1263 225.551 28.1263C221.598 28.1263 218.393 31.3259 218.393 35.2729C218.393 39.2198 221.598 42.4195 225.551 42.4195Z" fill="url(#paint26_linear_83_2116)"/>
<path d="M221.229 32.0075C225.183 32.0075 228.388 28.8078 228.388 24.8609C228.388 20.9139 225.183 17.7143 221.229 17.7143C217.275 17.7143 214.07 20.9139 214.07 24.8609C214.07 28.8078 217.275 32.0075 221.229 32.0075Z" fill="url(#paint27_linear_83_2116)"/>
<path d="M231.795 34.8973C235.749 34.8973 238.954 31.6976 238.954 27.7506C238.954 23.8037 235.749 20.604 231.795 20.604C227.842 20.604 224.637 23.8037 224.637 27.7506C224.637 31.6976 227.842 34.8973 231.795 34.8973Z" fill="url(#paint28_linear_83_2116)"/>
<path d="M238.952 44.4836C242.905 44.4836 246.11 41.2839 246.11 37.337C246.11 33.39 242.905 30.1904 238.952 30.1904C234.998 30.1904 231.793 33.39 231.793 37.337C231.793 41.2839 234.998 44.4836 238.952 44.4836Z" fill="url(#paint29_linear_83_2116)"/>
<path d="M251.133 116.627C250.919 116.627 250.706 116.545 250.543 116.383C250.441 116.281 240.191 106.262 226.952 110.099C212.4 114.319 196.446 109.822 187.091 103.497C186.711 103.24 186.61 102.722 186.867 102.343C187.125 101.961 187.647 101.863 188.026 102.12C197.059 108.228 212.451 112.573 226.487 108.502C240.686 104.384 251.611 115.097 251.719 115.205C252.044 115.53 252.044 116.055 251.719 116.379C251.556 116.542 251.343 116.623 251.129 116.623L251.133 116.627Z" fill="url(#paint30_linear_83_2116)"/>
<path d="M225.551 110.451C225.134 110.451 224.774 110.14 224.724 109.713L222.385 89.468C222.331 89.0112 222.659 88.5984 223.117 88.5476C223.574 88.4969 223.988 88.8217 224.039 89.2785L226.378 109.524C226.432 109.981 226.103 110.394 225.645 110.444C225.612 110.448 225.581 110.451 225.551 110.451Z" fill="url(#paint31_linear_83_2116)"/>
<path d="M181.263 98.1204L170.352 89.3733C170.352 89.3733 166.282 71.0195 160.058 73.3069C153.835 75.5944 157.876 84.0607 157.876 84.0607C157.876 84.0607 151.185 79.9866 148.283 78.6195C145.382 77.2524 142.28 75.6417 140.098 78.0646C137.915 80.4907 139.348 82.6192 140.599 83.2621C140.599 83.2621 136.491 82.1759 134.749 84.7307C133.007 87.2821 136.898 89.8707 136.898 89.8707C136.898 89.8707 133.518 89.3631 132.963 92.2732C132.407 95.1833 145.412 104.032 145.412 104.032C145.412 104.032 137.437 103.639 135.64 103.758C133.84 103.873 132.935 104.939 132.763 106.553C132.593 108.17 132.983 109.764 139.779 110.322C146.575 110.881 153.327 112.19 153.327 112.19L164.075 120.234C170.129 124.761 178.687 123.682 183.419 117.787C188.259 111.761 187.293 102.956 181.26 98.1204H181.263Z" fill="white"/>
<path d="M172.497 123.885C169.396 123.885 166.267 122.91 163.579 120.9L152.984 112.975C151.852 112.762 145.761 111.652 139.71 111.158C135.761 110.833 133.552 110.15 132.548 108.938C131.86 108.109 131.86 107.182 131.935 106.468C132.158 104.353 133.49 103.064 135.585 102.929C136.714 102.858 140.097 102.973 142.591 103.074C138.382 100.042 131.643 94.7298 132.141 92.1209C132.477 90.3579 133.657 89.5255 134.856 89.1905C134.273 88.5442 133.714 87.7118 133.528 86.7643C133.355 85.8778 133.531 85.0352 134.057 84.2671C135.172 82.6327 137.012 82.23 138.49 82.2063C138.354 81.9221 138.249 81.6108 138.188 81.269C138.026 80.3858 138.117 79.0154 139.473 77.5096C141.985 74.7179 145.479 76.3726 148.286 77.7025L148.635 77.8683C150.564 78.7751 154.065 80.819 156.288 82.1386C155.787 80.3723 155.397 77.8852 156.255 75.7838C156.882 74.2476 158.061 73.1512 159.766 72.5252C160.881 72.1158 162.003 72.2105 163.098 72.8061C167.735 75.3338 170.619 86.876 171.094 88.9063L181.781 97.4741C188.164 102.59 189.187 111.937 184.069 118.308C181.127 121.97 176.839 123.885 172.494 123.885H172.497ZM136.622 104.567C136.233 104.567 135.914 104.573 135.694 104.587C134.399 104.671 133.731 105.325 133.592 106.641C133.528 107.25 133.592 107.585 133.833 107.873C134.501 108.675 136.524 109.219 139.849 109.493C146.611 110.048 153.421 111.358 153.489 111.371C153.611 111.395 153.729 111.446 153.831 111.524L164.579 119.567C170.308 123.851 178.3 122.843 182.774 117.266C187.32 111.608 186.408 103.308 180.741 98.7667L169.83 90.0195C169.681 89.9011 169.579 89.7353 169.538 89.5492C168.742 85.959 165.888 76.217 162.301 74.2611C161.641 73.8991 161 73.8415 160.346 74.0818C159.081 74.5454 158.251 75.3067 157.804 76.4031C156.597 79.3538 158.607 83.6546 158.627 83.6986C158.787 84.0302 158.705 84.4261 158.431 84.6731C158.16 84.9201 157.753 84.9574 157.441 84.7645C157.373 84.7239 150.753 80.6971 147.927 79.3673L147.574 79.2015C144.445 77.7194 142.28 76.8802 140.714 78.6161C139.988 79.4214 139.693 80.2099 139.829 80.9645C139.965 81.6988 140.503 82.2774 140.978 82.521C141.354 82.7173 141.524 83.1639 141.371 83.5598C141.219 83.9558 140.788 84.1723 140.381 84.064C140.348 84.0539 136.816 83.1639 135.433 85.1942C135.158 85.5935 135.073 85.9894 135.162 86.4361C135.395 87.6407 136.826 88.8217 137.355 89.1736C137.68 89.3902 137.809 89.803 137.67 90.165C137.531 90.5271 137.155 90.7437 136.768 90.6862C136.507 90.6489 134.165 90.3782 133.775 92.4221C133.531 93.7079 139.073 98.7058 145.876 103.335C146.184 103.545 146.316 103.934 146.198 104.286C146.079 104.638 145.74 104.874 145.367 104.851C145.3 104.851 139.293 104.553 136.619 104.553L136.622 104.567Z" fill="url(#paint32_linear_83_2116)"/>
<path d="M156.473 93.8433C156.323 93.8433 156.174 93.8027 156.035 93.7215L140.165 83.9761C139.772 83.7358 139.65 83.2215 139.891 82.8323C140.132 82.4398 140.647 82.3214 141.037 82.5583L156.906 92.3036C157.3 92.5439 157.422 93.0582 157.178 93.4474C157.022 93.7012 156.747 93.8433 156.469 93.8433H156.473Z" fill="url(#paint33_linear_83_2116)"/>
<path d="M162.235 87.6272C162.082 87.6272 161.929 87.5866 161.79 87.4986L156.699 84.3009C156.31 84.0573 156.194 83.5429 156.438 83.1538C156.682 82.7647 157.198 82.6496 157.587 82.8933L162.679 86.091C163.068 86.3346 163.184 86.8489 162.94 87.2381C162.78 87.4885 162.509 87.6272 162.235 87.6272Z" fill="url(#paint34_linear_83_2116)"/>
<path d="M151.751 100.357C151.595 100.357 151.435 100.313 151.296 100.222L136.444 90.5677C136.057 90.3173 135.949 89.803 136.199 89.4173C136.45 89.0315 136.969 88.9232 137.352 89.1736L152.205 98.8276C152.591 99.078 152.7 99.5924 152.449 99.9781C152.29 100.222 152.022 100.357 151.751 100.357Z" fill="url(#paint35_linear_83_2116)"/>
<path d="M147.388 105.66C147.283 105.66 147.178 105.639 147.076 105.599L145.243 104.858C144.816 104.685 144.609 104.201 144.782 103.775C144.955 103.348 145.439 103.142 145.866 103.315L147.7 104.056C148.127 104.228 148.334 104.712 148.161 105.138C148.029 105.463 147.717 105.66 147.388 105.66Z" fill="url(#paint36_linear_83_2116)"/>
<path d="M39.687 36.2948H60.4546C61.1664 36.2948 61.8477 36.5756 62.3494 37.0764L77.9717 52.6724H56.0923L39.6836 36.2914L39.687 36.2948Z" fill="white" stroke="url(#paint37_linear_83_2116)" stroke-miterlimit="10"/>
<path d="M48.9341 46.4564L42.7041 52.6758H20.8281L36.7013 36.8328C37.4165 36.1188 38.5791 36.1188 39.2943 36.8328L48.9341 46.4564Z" fill="white" stroke="url(#paint38_linear_83_2116)" stroke-miterlimit="10"/>
<g style="mix-blend-mode:multiply">
<path d="M160.205 166.216H170.591C170.947 166.216 171.285 166.358 171.536 166.609L179.349 174.408H168.411L160.208 166.22L160.205 166.216Z" fill="#C4DCFD"/>
<path d="M164.828 171.295L161.713 174.405H150.775L158.714 166.484C159.073 166.125 159.653 166.125 160.012 166.484L164.832 171.295H164.828Z" fill="#C4DCFD"/>
</g>
<g style="mix-blend-mode:multiply">
<path d="M160.205 10.8621H170.591C170.947 10.8621 171.285 11.0042 171.536 11.2546L179.349 19.0543H168.411L160.208 10.8654L160.205 10.8621Z" fill="#3A2FF2"/>
<path d="M164.828 15.9411L161.713 19.0509H150.775L158.714 11.1294C159.073 10.7707 159.653 10.7707 160.012 11.1294L164.832 15.9411H164.828Z" fill="#3A2FF2"/>
</g>
</g>
<defs>
<linearGradient id="paint0_linear_83_2116" x1="209.184" y1="271.839" x2="253.421" y2="271.839" gradientUnits="userSpaceOnUse">
<stop stop-color="#293A7C"/>
<stop offset="0.41" stop-color="#252D6C"/>
<stop offset="1" stop-color="#221F5A"/>
</linearGradient>
<linearGradient id="paint1_linear_83_2116" x1="210.014" y1="275.453" x2="252.587" y2="275.453" gradientUnits="userSpaceOnUse">
<stop stop-color="#293A7C"/>
<stop offset="0.41" stop-color="#252D6C"/>
<stop offset="1" stop-color="#221F5A"/>
</linearGradient>
<linearGradient id="paint2_linear_83_2116" x1="123.001" y1="266.641" x2="181.562" y2="266.641" gradientUnits="userSpaceOnUse">
<stop stop-color="#293A7C"/>
<stop offset="0.41" stop-color="#252D6C"/>
<stop offset="1" stop-color="#221F5A"/>
</linearGradient>
<linearGradient id="paint3_linear_83_2116" x1="123.839" y1="270.143" x2="178.173" y2="270.143" gradientUnits="userSpaceOnUse">
<stop stop-color="#293A7C"/>
<stop offset="0.41" stop-color="#252D6C"/>
<stop offset="1" stop-color="#221F5A"/>
</linearGradient>
<linearGradient id="paint4_linear_83_2116" x1="141.582" y1="200.721" x2="251.938" y2="200.721" gradientUnits="userSpaceOnUse">
<stop stop-color="#293A7C"/>
<stop offset="0.41" stop-color="#252D6C"/>
<stop offset="1" stop-color="#221F5A"/>
</linearGradient>
<linearGradient id="paint5_linear_83_2116" x1="140.749" y1="200.721" x2="252.769" y2="200.721" gradientUnits="userSpaceOnUse">
<stop stop-color="#293A7C"/>
<stop offset="0.41" stop-color="#252D6C"/>
<stop offset="1" stop-color="#221F5A"/>
</linearGradient>
<linearGradient id="paint6_linear_83_2116" x1="11.3945" y1="283.168" x2="1.00562" y2="283.168" gradientUnits="userSpaceOnUse">
<stop stop-color="#293A7C"/>
<stop offset="0.41" stop-color="#252D6C"/>
<stop offset="1" stop-color="#221F5A"/>
</linearGradient>
<linearGradient id="paint7_linear_83_2116" x1="54.5209" y1="277.219" x2="60.1171" y2="277.219" gradientUnits="userSpaceOnUse">
<stop stop-color="#293A7C"/>
<stop offset="0.41" stop-color="#252D6C"/>
<stop offset="1" stop-color="#221F5A"/>
</linearGradient>
<linearGradient id="paint8_linear_83_2116" x1="77.482" y1="274.157" x2="83.5052" y2="274.157" gradientUnits="userSpaceOnUse">
<stop stop-color="#293A7C"/>
<stop offset="0.41" stop-color="#252D6C"/>
<stop offset="1" stop-color="#221F5A"/>
</linearGradient>
<linearGradient id="paint9_linear_83_2116" x1="0.666016" y1="139.894" x2="126.895" y2="139.894" gradientUnits="userSpaceOnUse">
<stop stop-color="#293A7C"/>
<stop offset="0.41" stop-color="#252D6C"/>
<stop offset="1" stop-color="#221F5A"/>
</linearGradient>
<linearGradient id="paint10_linear_83_2116" x1="1.5" y1="62.1776" x2="126.065" y2="62.1776" gradientUnits="userSpaceOnUse">
<stop stop-color="#293A7C"/>
<stop offset="0.41" stop-color="#252D6C"/>
<stop offset="1" stop-color="#221F5A"/>
</linearGradient>
<linearGradient id="paint11_linear_83_2116" x1="206.645" y1="69.5272" x2="239.788" y2="69.5272" gradientUnits="userSpaceOnUse">
<stop stop-color="#293A7C"/>
<stop offset="0.41" stop-color="#252D6C"/>
<stop offset="1" stop-color="#221F5A"/>
</linearGradient>
<linearGradient id="paint12_linear_83_2116" x1="163.146" y1="111.233" x2="267.666" y2="111.233" gradientUnits="userSpaceOnUse">
<stop stop-color="#293A7C"/>
<stop offset="0.41" stop-color="#252D6C"/>
<stop offset="1" stop-color="#221F5A"/>
</linearGradient>
<linearGradient id="paint13_linear_83_2116" x1="208.54" y1="43.4331" x2="240.619" y2="43.4331" gradientUnits="userSpaceOnUse">
<stop stop-color="#293A7C"/>
<stop offset="0.41" stop-color="#252D6C"/>
<stop offset="1" stop-color="#221F5A"/>
</linearGradient>
<linearGradient id="paint14_linear_83_2116" x1="205.66" y1="50.8959" x2="214.904" y2="50.8959" gradientUnits="userSpaceOnUse">
<stop stop-color="#293A7C"/>
<stop offset="0.41" stop-color="#252D6C"/>
<stop offset="1" stop-color="#221F5A"/>
</linearGradient>
<linearGradient id="paint15_linear_83_2116" x1="230.961" y1="61.6632" x2="232.629" y2="61.6632" gradientUnits="userSpaceOnUse">
<stop stop-color="#293A7C"/>
<stop offset="0.41" stop-color="#252D6C"/>
<stop offset="1" stop-color="#221F5A"/>
</linearGradient>
<linearGradient id="paint16_linear_83_2116" x1="210.887" y1="47.2482" x2="214.202" y2="47.2482" gradientUnits="userSpaceOnUse">
<stop stop-color="#293A7C"/>
<stop offset="0.41" stop-color="#252D6C"/>
<stop offset="1" stop-color="#221F5A"/>
</linearGradient>
<linearGradient id="paint17_linear_83_2116" x1="209.698" y1="45.1671" x2="211.583" y2="45.1671" gradientUnits="userSpaceOnUse">
<stop stop-color="#293A7C"/>
<stop offset="0.41" stop-color="#252D6C"/>
<stop offset="1" stop-color="#221F5A"/>
</linearGradient>
<linearGradient id="paint18_linear_83_2116" x1="217.289" y1="46.2398" x2="219.166" y2="46.2398" gradientUnits="userSpaceOnUse">
<stop stop-color="#293A7C"/>
<stop offset="0.41" stop-color="#252D6C"/>
<stop offset="1" stop-color="#221F5A"/>
</linearGradient>
<linearGradient id="paint19_linear_83_2116" x1="176.751" y1="51.2783" x2="200.017" y2="51.2783" gradientUnits="userSpaceOnUse">
<stop stop-color="#293A7C"/>
<stop offset="0.41" stop-color="#252D6C"/>
<stop offset="1" stop-color="#221F5A"/>
</linearGradient>
<linearGradient id="paint20_linear_83_2116" x1="187.296" y1="42.6462" x2="191.95" y2="42.6462" gradientUnits="userSpaceOnUse">
<stop stop-color="#293A7C"/>
<stop offset="0.41" stop-color="#252D6C"/>
<stop offset="1" stop-color="#221F5A"/>
</linearGradient>
<linearGradient id="paint21_linear_83_2116" x1="213.237" y1="61.1455" x2="220.507" y2="61.1455" gradientUnits="userSpaceOnUse">
<stop stop-color="#293A7C"/>
<stop offset="0.41" stop-color="#252D6C"/>
<stop offset="1" stop-color="#221F5A"/>
</linearGradient>
<linearGradient id="paint22_linear_83_2116" x1="214.072" y1="63.839" x2="220.325" y2="63.839" gradientUnits="userSpaceOnUse">
<stop stop-color="#293A7C"/>
<stop offset="0.41" stop-color="#252D6C"/>
<stop offset="1" stop-color="#221F5A"/>
</linearGradient>
<linearGradient id="paint23_linear_83_2116" x1="211.711" y1="52.1615" x2="215.277" y2="52.1615" gradientUnits="userSpaceOnUse">
<stop stop-color="#293A7C"/>
<stop offset="0.41" stop-color="#252D6C"/>
<stop offset="1" stop-color="#221F5A"/>
</linearGradient>
<linearGradient id="paint24_linear_83_2116" x1="206.912" y1="30.9619" x2="221.229" y2="30.9619" gradientUnits="userSpaceOnUse">
<stop stop-color="#293A7C"/>
<stop offset="0.41" stop-color="#252D6C"/>
<stop offset="1" stop-color="#221F5A"/>
</linearGradient>
<linearGradient id="paint25_linear_83_2116" x1="204.014" y1="30.9619" x2="219.999" y2="30.9619" gradientUnits="userSpaceOnUse">
<stop stop-color="#293A7C"/>
<stop offset="0.41" stop-color="#252D6C"/>
<stop offset="1" stop-color="#221F5A"/>
</linearGradient>
<linearGradient id="paint26_linear_83_2116" x1="218.393" y1="35.2729" x2="232.713" y2="35.2729" gradientUnits="userSpaceOnUse">
<stop stop-color="#293A7C"/>
<stop offset="0.41" stop-color="#252D6C"/>
<stop offset="1" stop-color="#221F5A"/>
</linearGradient>
<linearGradient id="paint27_linear_83_2116" x1="214.07" y1="24.8609" x2="228.388" y2="24.8609" gradientUnits="userSpaceOnUse">
<stop stop-color="#293A7C"/>
<stop offset="0.41" stop-color="#252D6C"/>
<stop offset="1" stop-color="#221F5A"/>
</linearGradient>
<linearGradient id="paint28_linear_83_2116" x1="224.637" y1="27.7506" x2="238.954" y2="27.7506" gradientUnits="userSpaceOnUse">
<stop stop-color="#293A7C"/>
<stop offset="0.41" stop-color="#252D6C"/>
<stop offset="1" stop-color="#221F5A"/>
</linearGradient>
<linearGradient id="paint29_linear_83_2116" x1="231.793" y1="37.337" x2="246.11" y2="37.337" gradientUnits="userSpaceOnUse">
<stop stop-color="#293A7C"/>
<stop offset="0.41" stop-color="#252D6C"/>
<stop offset="1" stop-color="#221F5A"/>
</linearGradient>
<linearGradient id="paint30_linear_83_2116" x1="186.728" y1="109.301" x2="251.966" y2="109.301" gradientUnits="userSpaceOnUse">
<stop stop-color="#293A7C"/>
<stop offset="0.41" stop-color="#252D6C"/>
<stop offset="1" stop-color="#221F5A"/>
</linearGradient>
<linearGradient id="paint31_linear_83_2116" x1="222.381" y1="99.4942" x2="226.384" y2="99.4942" gradientUnits="userSpaceOnUse">
<stop stop-color="#293A7C"/>
<stop offset="0.41" stop-color="#252D6C"/>
<stop offset="1" stop-color="#221F5A"/>
</linearGradient>
<linearGradient id="paint32_linear_83_2116" x1="131.904" y1="98.0798" x2="187.33" y2="98.0798" gradientUnits="userSpaceOnUse">
<stop stop-color="#293A7C"/>
<stop offset="0.41" stop-color="#252D6C"/>
<stop offset="1" stop-color="#221F5A"/>
</linearGradient>
<linearGradient id="paint33_linear_83_2116" x1="139.769" y1="88.1382" x2="157.306" y2="88.1382" gradientUnits="userSpaceOnUse">
<stop stop-color="#293A7C"/>
<stop offset="0.41" stop-color="#252D6C"/>
<stop offset="1" stop-color="#221F5A"/>
</linearGradient>
<linearGradient id="paint34_linear_83_2116" x1="156.313" y1="85.1976" x2="163.068" y2="85.1976" gradientUnits="userSpaceOnUse">
<stop stop-color="#293A7C"/>
<stop offset="0.41" stop-color="#252D6C"/>
<stop offset="1" stop-color="#221F5A"/>
</linearGradient>
<linearGradient id="paint35_linear_83_2116" x1="136.064" y1="94.6994" x2="152.584" y2="94.6994" gradientUnits="userSpaceOnUse">
<stop stop-color="#293A7C"/>
<stop offset="0.41" stop-color="#252D6C"/>
<stop offset="1" stop-color="#221F5A"/>
</linearGradient>
<linearGradient id="paint36_linear_83_2116" x1="144.721" y1="104.458" x2="148.222" y2="104.458" gradientUnits="userSpaceOnUse">
<stop stop-color="#293A7C"/>
<stop offset="0.41" stop-color="#252D6C"/>
<stop offset="1" stop-color="#221F5A"/>
</linearGradient>
<linearGradient id="paint37_linear_83_2116" x1="39.2769" y1="44.487" x2="78.3819" y2="44.487" gradientUnits="userSpaceOnUse">
<stop stop-color="#293A7C"/>
<stop offset="0.41" stop-color="#252D6C"/>
<stop offset="1" stop-color="#221F5A"/>
</linearGradient>
<linearGradient id="paint38_linear_83_2116" x1="20.418" y1="44.487" x2="49.1748" y2="44.487" gradientUnits="userSpaceOnUse">
<stop stop-color="#293A7C"/>
<stop offset="0.41" stop-color="#252D6C"/>
<stop offset="1" stop-color="#221F5A"/>
</linearGradient>
<clipPath id="clip0_83_2116">
<rect width="267" height="284" fill="white" transform="translate(0.666016)"/>
</clipPath>
</defs>
</svg>
