<svg width="216" height="214" viewBox="0 0 216 214" fill="none" xmlns="http://www.w3.org/2000/svg">
<g id="Layer_1" clip-path="url(#clip0_613_3869)">
<path id="Vector" d="M49.0469 76.6387V137.987C49.0469 140.08 48.2043 142.092 46.7125 143.583L0.121094 189.714V125.096L49.0469 76.6387Z" fill="url(#paint0_linear_613_3869)"/>
<path id="Vector_2" d="M18.6996 106.704L0.121094 88.2979V23.6794L47.4446 70.5627C49.5856 72.6838 49.5856 76.1049 47.4446 78.2261L18.6996 106.704Z" fill="url(#paint1_linear_613_3869)"/>
<path id="Vector_3" d="M166.209 136.755V75.4207C166.209 73.327 167.052 71.3154 168.544 69.8237L215.121 23.6794V88.2979L166.195 136.769L166.209 136.755Z" fill="url(#paint2_linear_613_3869)"/>
<path id="Vector_4" d="M196.542 106.69L215.121 125.096V189.714L167.797 142.831C165.656 140.71 165.656 137.289 167.797 135.167L196.542 106.69Z" fill="url(#paint3_linear_613_3869)"/>
<path id="Vector_5" d="M77.2812 164.74H139.205C141.319 164.74 143.349 165.575 144.855 167.052L191.432 213.197H126.207L77.2812 164.726V164.74Z" fill="url(#paint4_linear_613_3869)"/>
<path id="Vector_6" d="M107.63 194.791L89.0514 213.197H23.8262L71.1497 166.313C73.2907 164.192 76.7439 164.192 78.885 166.313L107.63 194.791Z" fill="url(#paint5_linear_613_3869)"/>
<path id="Vector_7" d="M137.963 48.6674H76.0533C73.9399 48.6674 71.9094 47.8327 70.4037 46.3548L23.8262 0.196777H89.0514L137.977 48.6674H137.963Z" fill="url(#paint6_linear_613_3869)"/>
<path id="Vector_8" d="M107.613 18.6025L126.192 0.196777H191.417L144.094 47.08C141.953 49.2011 138.499 49.2011 136.358 47.08L107.613 18.6025Z" fill="url(#paint7_linear_613_3869)"/>
</g>
<defs>
<linearGradient id="paint0_linear_613_3869" x1="24.5702" y1="76.6387" x2="24.5702" y2="189.728" gradientUnits="userSpaceOnUse">
<stop stop-color="#293A7C"/>
<stop offset="0.41" stop-color="#252D6C"/>
<stop offset="1" stop-color="#221F5A"/>
</linearGradient>
<linearGradient id="paint1_linear_613_3869" x1="24.5702" y1="23.6794" x2="24.5702" y2="106.704" gradientUnits="userSpaceOnUse">
<stop stop-color="#293A7C"/>
<stop offset="0.41" stop-color="#252D6C"/>
<stop offset="1" stop-color="#221F5A"/>
</linearGradient>
<linearGradient id="paint2_linear_613_3869" x1="190.672" y1="136.755" x2="190.672" y2="23.6658" gradientUnits="userSpaceOnUse">
<stop stop-color="#293A7C"/>
<stop offset="0.41" stop-color="#252D6C"/>
<stop offset="1" stop-color="#221F5A"/>
</linearGradient>
<linearGradient id="paint3_linear_613_3869" x1="190.672" y1="189.714" x2="190.672" y2="106.69" gradientUnits="userSpaceOnUse">
<stop stop-color="#293A7C"/>
<stop offset="0.41" stop-color="#252D6C"/>
<stop offset="1" stop-color="#221F5A"/>
</linearGradient>
<linearGradient id="paint4_linear_613_3869" x1="83.1656" y1="82.4683" x2="84.5469" y2="82.4683" gradientUnits="userSpaceOnUse">
<stop stop-color="#293A7C"/>
<stop offset="0.41" stop-color="#252D6C"/>
<stop offset="1" stop-color="#221F5A"/>
</linearGradient>
<linearGradient id="paint5_linear_613_3869" x1="23.8262" y1="188.975" x2="107.63" y2="188.975" gradientUnits="userSpaceOnUse">
<stop stop-color="#293A7C"/>
<stop offset="0.41" stop-color="#252D6C"/>
<stop offset="1" stop-color="#221F5A"/>
</linearGradient>
<linearGradient id="paint6_linear_613_3869" x1="137.963" y1="24.4184" x2="23.8124" y2="24.4184" gradientUnits="userSpaceOnUse">
<stop stop-color="#293A7C"/>
<stop offset="0.41" stop-color="#252D6C"/>
<stop offset="1" stop-color="#221F5A"/>
</linearGradient>
<linearGradient id="paint7_linear_613_3869" x1="191.417" y1="24.4184" x2="107.613" y2="24.4184" gradientUnits="userSpaceOnUse">
<stop stop-color="#293A7C"/>
<stop offset="0.41" stop-color="#252D6C"/>
<stop offset="1" stop-color="#221F5A"/>
</linearGradient>
<clipPath id="clip0_613_3869">
<rect width="215" height="213" fill="white" transform="translate(0.121094 0.196777)"/>
</clipPath>
</defs>
</svg>
